RobotoCondensed-Bold.ufo
<glyph name="numbersign" format="1">
  <advance width="1080"/>
  <unicode hex="0023"/>
  <outline>
    <contour>
      <point x="506" y="0" type="line"/>
      <point x="681" y="0" type="line"/>
      <point x="740.9793930053711" y="410" type="line"/>
      <point x="948" y="410" type="line"/>
      <point x="948" y="584" type="line"/>
      <point x="766.4340667724609" y="584" type="line"/>
      <point x="807.6881866455078" y="866" type="line"/>
      <point x="1012" y="866" type="line"/>
      <point x="1012" y="1040" type="line"/>
      <point x="833.1428604125977" y="1040" type="line"/>
      <point x="894" y="1456" type="line"/>
      <point x="719" y="1456" type="line"/>
      <point x="658.1428604125977" y="1040" type="line"/>
      <point x="524.4285736083984" y="1040" type="line"/>
      <point x="585" y="1456" type="line"/>
      <point x="411" y="1456" type="line"/>
      <point x="350.14286041259766" y="1040" type="line"/>
      <point x="137" y="1040" type="line"/>
      <point x="137" y="866" type="line"/>
      <point x="324.6881866455078" y="866" type="line"/>
      <point x="283.43406677246094" y="584" type="line"/>
      <point x="74" y="584" type="line"/>
      <point x="74" y="410" type="line"/>
      <point x="257.9793930053711" y="410" type="line"/>
      <point x="198" y="0" type="line"/>
      <point x="373" y="0" type="line"/>
      <point x="432.6977996826172" y="410" type="line"/>
      <point x="565.9793930053711" y="410" type="line"/>
    </contour>
    <contour>
      <point x="458.03296661376953" y="584" type="line"/>
      <point x="499.0934066772461" y="866" type="line"/>
      <point x="632.6881866455078" y="866" type="line"/>
      <point x="591.4340667724609" y="584" type="line"/>
    </contour>
  </outline>
</glyph>
<glyph name="dollar" format="1">
  <advance width="1036"/>
  <unicode hex="0024"/>
  <outline>
    <contour>
      <point x="940.0000000000001" y="386.00000000000006" type="curve"/>
      <point x="940" y="647"/>
      <point x="791" y="751"/>
      <point x="571" y="854" type="curve" smooth="yes"/>
      <point x="462" y="917"/>
      <point x="422" y="971"/>
      <point x="422" y="1070" type="curve"/>
      <point x="422" y="1168"/>
      <point x="456" y="1243"/>
      <point x="536" y="1243" type="curve" smooth="yes"/>
      <point x="608" y="1243"/>
      <point x="660" y="1164"/>
      <point x="660" y="1006" type="curve"/>
      <point x="942" y="1006" type="line"/>
      <point x="942.0" y="1267.412454"/>
      <point x="818.107249131631" y="1432.634884033875"/>
      <point x="625" y="1469.257713317871" type="curve"/>
      <point x="625" y="1688" type="line"/>
      <point x="475" y="1688" type="line"/>
      <point x="475" y="1472.8086395263672" type="line"/>
      <point x="273.70708535425206" y="1446.2204988188441"/>
      <point x="140.00000000000003" y="1294.613104"/>
      <point x="140.00000000000003" y="1070.0000000000002" type="curve"/>
      <point x="140" y="807"/>
      <point x="290" y="705"/>
      <point x="511" y="606" type="curve" smooth="yes"/>
      <point x="616" y="549"/>
      <point x="657" y="494"/>
      <point x="657" y="384" type="curve"/>
      <point x="657" y="286"/>
      <point x="616" y="213"/>
      <point x="527" y="213" type="curve" smooth="yes"/>
      <point x="448" y="213"/>
      <point x="375" y="269"/>
      <point x="375" y="458" type="curve"/>
      <point x="92" y="458" type="line"/>
      <point x="92.0" y="141.036387"/>
      <point x="267.393073396025" y="10.379194185110947"/>
      <point x="453" y="-15.871620178222656" type="curve"/>
      <point x="453" y="-216" type="line"/>
      <point x="603" y="-216" type="line"/>
      <point x="603" y="-16.042747497558594" type="line"/>
      <point x="807.450267400704" y="11.565957251328001"/>
      <point x="940.0" y="153.66816"/>
    </contour>
  </outline>
</glyph>
<glyph name="ampersand" format="1">
  <advance width="1186"/>
  <unicode hex="0026"/>
  <outline>
    <contour>
      <point x="831" y="0" type="line"/>
      <point x="1151" y="0" type="line"/>
      <point x="963.0673522949219" y="263.56810760498047" type="line"/>
      <point x="1042.8356682219521" y="386.62157110272"/>
      <point x="1073.0" y="542.109536"/>
      <point x="1073.0" y="715.0" type="curve"/>
      <point x="834" y="715" type="line"/>
      <point x="834.0" y="633.346384"/>
      <point x="821.226066523904" y="558.722210682112"/>
      <point x="799.1486434936523" y="493.4576110839844" type="curve"/>
      <point x="612.8041534423828" y="754.7983932495117" type="line"/>
      <point x="687" y="815" type="line" smooth="yes"/>
      <point x="790" y="897"/>
      <point x="852" y="1001"/>
      <point x="852" y="1137" type="curve"/>
      <point x="852" y="1320"/>
      <point x="722" y="1477"/>
      <point x="524" y="1477" type="curve" smooth="yes"/>
      <point x="313" y="1477"/>
      <point x="175" y="1323"/>
      <point x="175" y="1093" type="curve" smooth="yes"/>
      <point x="175.0" y="982.401228"/>
      <point x="220.792149660722" y="884.0881546894619"/>
      <point x="293.59705352783203" y="768.4353332519531" type="curve"/>
      <point x="161.297538286264" y="658.936373944856"/>
      <point x="71.99999999999999" y="560.617218"/>
      <point x="71.99999999999997" y="391.99999999999994" type="curve"/>
      <point x="72" y="151"/>
      <point x="228" y="-21"/>
      <point x="479" y="-21" type="curve"/>
      <point x="591.361901" y="-21.0"/>
      <point x="687.387695177975" y="10.365325098288"/>
      <point x="777.1133880615234" y="76.27027893066406" type="curve"/>
    </contour>
    <contour>
      <point x="427.0" y="1097.0" type="curve" smooth="yes"/>
      <point x="427" y="1176"/>
      <point x="459" y="1242"/>
      <point x="523" y="1242" type="curve" smooth="yes"/>
      <point x="583" y="1242"/>
      <point x="619" y="1179"/>
      <point x="619" y="1119" type="curve"/>
      <point x="619" y="1060"/>
      <point x="611" y="1013"/>
      <point x="541" y="959" type="curve"/>
      <point x="494.9177932739258" y="923.6119766235352" type="line"/>
      <point x="454.231510319344" y="986.379633601136"/>
      <point x="427.0" y="1041.881588"/>
    </contour>
    <contour>
      <point x="356" y="409" type="curve"/>
      <point x="356" y="464"/>
      <point x="365" y="523"/>
      <point x="406" y="587" type="curve" smooth="yes"/>
      <point x="412.52893829345703" y="592.2975006103516" type="line"/>
      <point x="642.9511184692383" y="266.16149139404297" type="line"/>
      <point x="596.4936127066879" y="232.386447917824"/>
      <point x="545.3369359999999" y="214.0"/>
      <point x="493.9999999999999" y="213.99999999999997" type="curve" smooth="yes"/>
      <point x="416" y="214"/>
      <point x="356" y="296"/>
    </contour>
  </outline>
</glyph>
<glyph name="six" format="1">
  <advance width="1036"/>
  <unicode hex="0036"/>
  <outline>
    <contour>
      <point x="963" y="480" type="curve" smooth="yes"/>
      <point x="963" y="751"/>
      <point x="848" y="975"/>
      <point x="616" y="975" type="curve" smooth="yes"/>
      <point x="521.975014" y="975.0"/>
      <point x="445.237103601884" y="934.955255251332"/>
      <point x="389.16429901123047" y="872.2572174072266" type="curve"/>
      <point x="416.891734004687" y="1096.252835536701"/>
      <point x="538.28975" y="1232.0"/>
      <point x="756.0" y="1232.0000000000002" type="curve" smooth="yes"/>
      <point x="770" y="1232" type="line"/>
      <point x="770" y="1472" type="line"/>
      <point x="732" y="1472" type="line" name="hr00"/>
      <point x="327" y="1472"/>
      <point x="100" y="1145"/>
      <point x="100" y="673" type="curve" smooth="yes"/>
      <point x="100" y="560" type="line" smooth="yes"/>
      <point x="100" y="217"/>
      <point x="270" y="-20"/>
      <point x="537" y="-20" type="curve" smooth="yes"/>
      <point x="797" y="-20"/>
      <point x="963" y="198"/>
    </contour>
    <contour>
      <point x="383" y="521" type="curve"/>
      <point x="383" y="623.5519943237305" type="line"/>
      <point x="407.199668735205" y="689.497507617855"/>
      <point x="456.56358600000004" y="741.0"/>
      <point x="528.0" y="741.0000000000001" type="curve" smooth="yes"/>
      <point x="620" y="741"/>
      <point x="681" y="632"/>
      <point x="681" y="478" type="curve" smooth="yes"/>
      <point x="681" y="327"/>
      <point x="622" y="216"/>
      <point x="531" y="216" type="curve" smooth="yes"/>
      <point x="443" y="216"/>
      <point x="383" y="317"/>
    </contour>
  </outline>
</glyph>
<glyph name="eight" format="1">
  <advance width="1036"/>
  <unicode hex="0038"/>
  <outline>
    <contour>
      <point x="936" y="400" type="curve" smooth="yes"/>
      <point x="936.0" y="560.43391"/>
      <point x="861.7474971216" y="683.7415685607999"/>
      <point x="743.1117477416992" y="750.4592056274414" type="curve"/>
      <point x="848.007608231352" y="815.08213748028"/>
      <point x="912.0" y="928.215552"/>
      <point x="912.0" y="1069.0" type="curve" smooth="yes"/>
      <point x="912" y="1333"/>
      <point x="750" y="1477"/>
      <point x="518" y="1477" type="curve" smooth="yes"/>
      <point x="288" y="1477"/>
      <point x="123" y="1333"/>
      <point x="123" y="1069" type="curve" smooth="yes"/>
      <point x="123.0" y="928.52512"/>
      <point x="187.4978370816" y="815.579804608"/>
      <point x="292.8168411254883" y="750.8910064697266" type="curve"/>
      <point x="173.993650537353" y="684.2680192017681"/>
      <point x="99.0" y="560.7764990000001"/>
      <point x="99.0" y="400.00000000000017" type="curve" smooth="yes"/>
      <point x="99" y="124"/>
      <point x="279" y="-20"/>
      <point x="519" y="-20" type="curve" smooth="yes"/>
      <point x="760" y="-20"/>
      <point x="936" y="124"/>
    </contour>
    <contour>
      <point x="629" y="1055" type="curve" smooth="yes"/>
      <point x="629" y="940"/>
      <point x="594" y="864"/>
      <point x="519" y="864" type="curve" smooth="yes"/>
      <point x="444" y="864"/>
      <point x="407" y="940"/>
      <point x="407" y="1055" type="curve" smooth="yes"/>
      <point x="407" y="1171"/>
      <point x="445" y="1242"/>
      <point x="518" y="1242" type="curve" smooth="yes"/>
      <point x="593" y="1242"/>
      <point x="629" y="1167"/>
    </contour>
    <contour>
      <point x="653" y="421" type="curve" smooth="yes"/>
      <point x="653" y="293"/>
      <point x="605" y="215"/>
      <point x="519" y="215" type="curve" smooth="yes"/>
      <point x="433" y="215"/>
      <point x="382" y="293"/>
      <point x="382" y="421" type="curve" smooth="yes"/>
      <point x="382" y="550"/>
      <point x="433" y="629"/>
      <point x="517" y="629" type="curve" smooth="yes"/>
      <point x="601" y="629"/>
      <point x="653" y="550"/>
    </contour>
  </outline>
</glyph>
<glyph name="nine" format="1">
  <advance width="1036"/>
  <unicode hex="0039"/>
  <outline>
    <contour>
      <point x="931" y="781" type="curve" smooth="yes"/>
      <point x="931" y="882" type="line" smooth="yes"/>
      <point x="931" y="1241"/>
      <point x="763" y="1477"/>
      <point x="511" y="1477" type="curve" smooth="yes"/>
      <point x="254" y="1477"/>
      <point x="90" y="1244"/>
      <point x="90" y="961" type="curve" smooth="yes"/>
      <point x="90" y="681"/>
      <point x="215" y="471"/>
      <point x="448" y="471" type="curve" smooth="yes"/>
      <point x="522.519" y="471.0"/>
      <point x="591.031422" y="507.414879125"/>
      <point x="644.75439453125" y="563.4209136962891" type="curve"/>
      <point x="622.7494090480529" y="345.779393590749"/>
      <point x="513.9806469999999" y="229.0"/>
      <point x="289.99999999999994" y="229.00000000000006" type="curve" smooth="yes"/>
      <point x="276" y="229" type="line"/>
      <point x="276" y="-15" type="line"/>
      <point x="294" y="-15" type="line" smooth="yes"/>
      <point x="717" y="-15"/>
      <point x="931" y="301"/>
    </contour>
    <contour>
      <point x="372" y="964" type="curve" smooth="yes"/>
      <point x="372" y="1106"/>
      <point x="420" y="1241"/>
      <point x="509" y="1241" type="curve" smooth="yes"/>
      <point x="585" y="1241"/>
      <point x="649" y="1140"/>
      <point x="649" y="936" type="curve"/>
      <point x="649" y="807.8976211547852" type="line"/>
      <point x="623.809327954842" y="744.125215860101"/>
      <point x="576.963172" y="694.0"/>
      <point x="520.0000000000001" y="694.0000000000001" type="curve" smooth="yes"/>
      <point x="418" y="694"/>
      <point x="372" y="816"/>
    </contour>
  </outline>
</glyph>
<glyph name="greater" format="1">
  <advance width="930"/>
  <unicode hex="003E"/>
  <outline>
    <contour>
      <point x="122" y="1103" type="line"/>
      <point x="122" y="823" type="line"/>
      <point x="584.7417221069336" y="621.9654312133789" type="line"/>
      <point x="122" y="416" type="line"/>
      <point x="122" y="136" type="line"/>
      <point x="860" y="500" type="line"/>
      <point x="860" y="738" type="line"/>
    </contour>
  </outline>
</glyph>
<glyph name="at" format="1">
  <advance width="1569"/>
  <unicode hex="0040"/>
  <outline>
    <contour>
      <point x="1082" y="-364" type="curve"/>
      <point x="1048" y="-210" type="line"/>
      <point x="977" y="-249"/>
      <point x="867" y="-278"/>
      <point x="769" y="-278" type="curve" smooth="yes"/>
      <point x="438" y="-278"/>
      <point x="253" y="-22"/>
      <point x="272" y="463" type="curve" smooth="yes"/>
      <point x="288" y="916"/>
      <point x="482" y="1252"/>
      <point x="821" y="1252" type="curve" smooth="yes"/>
      <point x="1172" y="1252"/>
      <point x="1331" y="967"/>
      <point x="1314" y="530" type="curve" smooth="yes"/>
      <point x="1308" y="311"/>
      <point x="1240" y="142"/>
      <point x="1142" y="142" type="curve" smooth="yes"/>
      <point x="1094" y="142"/>
      <point x="1055" y="172"/>
      <point x="1066" y="303" type="curve"/>
      <point x="1110" y="881" type="line"/>
      <point x="1040" y="938"/>
      <point x="976" y="990"/>
      <point x="842" y="990" type="curve" smooth="yes"/>
      <point x="643" y="990"/>
      <point x="478" y="772"/>
      <point x="446" y="431" type="curve" smooth="yes"/>
      <point x="424" y="160"/>
      <point x="527" y="-18"/>
      <point x="693" y="-18" type="curve" smooth="yes"/>
      <point x="774.419112" y="-18.0"/>
      <point x="847.07482681728" y="26.255155772735996"/>
      <point x="901.3957824707031" y="113.61580657958984" type="curve"/>
      <point x="939.6588840355199" y="28.048372807999996"/>
      <point x="1012.0387999999999" y="-21.000000000000007"/>
      <point x="1106.0" y="-21.0" type="curve"/>
      <point x="1371" y="-21"/>
      <point x="1476" y="264"/>
      <point x="1484" y="538" type="curve"/>
      <point x="1503" y="1064"/>
      <point x="1257" y="1416"/>
      <point x="824" y="1416" type="curve" smooth="yes"/>
      <point x="383" y="1416"/>
      <point x="103" y="1010"/>
      <point x="83" y="463" type="curve" smooth="yes"/>
      <point x="64" y="-131"/>
      <point x="318" y="-453"/>
      <point x="766" y="-453" type="curve" smooth="yes"/>
      <point x="872" y="-453"/>
      <point x="1002" y="-424"/>
    </contour>
    <contour>
      <point x="661" y="431" type="curve" smooth="yes"/>
      <point x="680" y="679"/>
      <point x="736" y="813"/>
      <point x="861" y="813" type="curve" smooth="yes"/>
      <point x="878.5791" y="813.0"/>
      <point x="895.0230070158001" y="810.477348924"/>
      <point x="910.3000640869141" y="806.1236114501953" type="curve"/>
      <point x="873.0428771972656" y="316.69962310791016" type="line"/>
      <point x="840.1215510220751" y="195.32593796190002"/>
      <point x="791.1425900000002" y="163.0"/>
      <point x="762.0000000000001" y="162.99999999999994" type="curve" smooth="yes"/>
      <point x="687" y="163"/>
      <point x="650" y="256"/>
    </contour>
  </outline>
</glyph>
<glyph name="B" format="1">
  <advance width="1150"/>
  <unicode hex="0042"/>
  <outline>
    <contour>
      <point x="530" y="1612" type="move" name="top"/>
    </contour>
    <contour>
      <point x="531" y="10" type="move" name="bottom"/>
    </contour>
    <contour>
      <point x="1130" y="1600" type="move" name="top_dd"/>
    </contour>
    <contour>
      <point x="1130" y="-407" type="move" name="bottom_dd"/>
    </contour>
    <contour>
      <point x="1130" y="1612" type="move" name="top0315"/>
    </contour>
    <contour>
      <point x="1054" y="429" type="curve" smooth="yes"/>
      <point x="1054.0" y="569.598132"/>
      <point x="998.539944499837" y="706.855296801195"/>
      <point x="849.3854675292969" y="749.5511322021484" type="curve"/>
      <point x="976.8301564705681" y="806.6914716539841"/>
      <point x="1032.0000000000002" y="925.355166"/>
      <point x="1032.0" y="1057.0" type="curve"/>
      <point x="1032" y="1329"/>
      <point x="858" y="1456"/>
      <point x="567" y="1456" type="curve"/>
      <point x="117" y="1456" type="line"/>
      <point x="117" y="0" type="line"/>
      <point x="599" y="0" type="line"/>
      <point x="894" y="0"/>
      <point x="1054" y="146"/>
    </contour>
    <contour>
      <point x="412" y="1211" type="line"/>
      <point x="567" y="1211" type="line"/>
      <point x="687" y="1211"/>
      <point x="737" y="1157"/>
      <point x="737" y="1026" type="curve"/>
      <point x="737" y="910"/>
      <point x="682" y="847"/>
      <point x="564" y="847" type="curve"/>
      <point x="412" y="847" type="line"/>
    </contour>
    <contour>
      <point x="760" y="432" type="curve" smooth="yes"/>
      <point x="760" y="324"/>
      <point x="714" y="244"/>
      <point x="599" y="244" type="curve" smooth="yes"/>
      <point x="412" y="244" type="line"/>
      <point x="412" y="634" type="line"/>
      <point x="610" y="634" type="line" smooth="yes"/>
      <point x="720" y="634"/>
      <point x="760" y="556"/>
    </contour>
  </outline>
</glyph>
<glyph name="K" format="1">
  <advance width="1133"/>
  <unicode hex="004B"/>
  <outline>
    <contour>
      <point x="572" y="62" type="move" name="bottom"/>
    </contour>
    <contour>
      <point x="1037" y="0" type="move" name="right"/>
    </contour>
    <contour>
      <point x="231" y="1226" type="move" name="cross"/>
    </contour>
    <contour>
      <point x="520" y="1600" type="move" name="top"/>
    </contour>
    <contour>
      <point x="1113" y="1600" type="move" name="top_dd"/>
    </contour>
    <contour>
      <point x="1113" y="-407" type="move" name="bottom_dd"/>
    </contour>
    <contour>
      <point x="1113" y="1600" type="move" name="top0315"/>
    </contour>
    <contour>
      <point x="794" y="0" type="line"/>
      <point x="1142" y="0" type="line"/>
      <point x="718.4681930541992" y="815.7260589599609" type="line"/>
      <point x="1135" y="1456" type="line"/>
      <point x="776" y="1456" type="line"/>
      <point x="505" y="979" type="line"/>
      <point x="412" y="823" type="line"/>
      <point x="412" y="1456" type="line"/>
      <point x="117" y="1456" type="line"/>
      <point x="117" y="0" type="line"/>
      <point x="412" y="0" type="line"/>
      <point x="412" y="418.0899658203125" type="line"/>
      <point x="528.4457855224609" y="563.1435394287109" type="line"/>
    </contour>
  </outline>
</glyph>
<glyph name="Q" format="1">
  <advance width="1236"/>
  <unicode hex="0051"/>
  <outline>
    <contour>
      <point x="608" y="1600" type="move" name="top"/>
    </contour>
    <contour>
      <point x="606" y="-10" type="move" name="bottom"/>
    </contour>
    <contour>
      <point x="1216" y="1600" type="move" name="top_dd"/>
    </contour>
    <contour>
      <point x="1216" y="-407" type="move" name="bottom_dd"/>
    </contour>
    <contour>
      <point x="1216" y="1600" type="move" name="top0315"/>
    </contour>
    <contour>
      <point x="1147" y="-91" type="line"/>
      <point x="946.1194381713867" y="90.31053924560547" type="line"/>
      <point x="1068.761391402036" y="193.68531015442"/>
      <point x="1141.0" y="369.25044"/>
      <point x="1141.0" y="615.0" type="curve"/>
      <point x="1141" y="840" type="line"/>
      <point x="1141" y="1260"/>
      <point x="929" y="1476"/>
      <point x="615" y="1476" type="curve" smooth="yes"/>
      <point x="303" y="1476"/>
      <point x="91" y="1260"/>
      <point x="91" y="840" type="curve"/>
      <point x="91" y="615" type="line"/>
      <point x="91" y="195"/>
      <point x="305" y="-20"/>
      <point x="617" y="-20" type="curve" smooth="yes"/>
      <point x="643.574326" y="-20.0"/>
      <point x="669.4134003403921" y="-18.45020483514"/>
      <point x="694.4504852294922" y="-15.355125427246094" type="curve"/>
      <point x="962" y="-261" type="line"/>
    </contour>
    <contour>
      <point x="847" y="615" type="line"/>
      <point x="847" y="340"/>
      <point x="767" y="225"/>
      <point x="617" y="225" type="curve" smooth="yes"/>
      <point x="466" y="225"/>
      <point x="385" y="340"/>
      <point x="385" y="615" type="curve" smooth="yes"/>
      <point x="385" y="842" type="line" smooth="yes"/>
      <point x="385" y="1119"/>
      <point x="465" y="1230"/>
      <point x="615" y="1230" type="curve" smooth="yes"/>
      <point x="765" y="1230"/>
      <point x="847" y="1119"/>
      <point x="847" y="842" type="curve"/>
    </contour>
  </outline>
</glyph>
<glyph name="R" format="1">
  <advance width="1134"/>
  <unicode hex="0052"/>
  <outline>
    <contour>
      <point x="521" y="1600" type="move" name="top"/>
    </contour>
    <contour>
      <point x="536" y="10" type="move" name="bottom"/>
    </contour>
    <contour>
      <point x="1114" y="1600" type="move" name="top_dd"/>
    </contour>
    <contour>
      <point x="1114" y="-407" type="move" name="bottom_dd"/>
    </contour>
    <contour>
      <point x="1114" y="1600" type="move" name="top0315"/>
    </contour>
    <contour>
      <point x="778" y="0" type="line"/>
      <point x="1094" y="0" type="line"/>
      <point x="1094" y="14" type="line"/>
      <point x="837.6759033203125" y="611.1506423950195" type="line"/>
      <point x="969.8786191996" y="682.2007846884441"/>
      <point x="1049.0" y="805.188026"/>
      <point x="1049.0" y="1016.0000000000001" type="curve" smooth="yes"/>
      <point x="1049" y="1303"/>
      <point x="878" y="1456"/>
      <point x="587" y="1456" type="curve" smooth="yes"/>
      <point x="118" y="1456" type="line"/>
      <point x="118" y="0" type="line"/>
      <point x="413" y="0" type="line"/>
      <point x="413" y="532" type="line"/>
      <point x="559.1340560913086" y="532" type="line"/>
    </contour>
    <contour>
      <point x="413" y="1211" type="line"/>
      <point x="587" y="1211" type="line" smooth="yes"/>
      <point x="705" y="1211"/>
      <point x="755" y="1127"/>
      <point x="755" y="992" type="curve" smooth="yes"/>
      <point x="755" y="862"/>
      <point x="696" y="777"/>
      <point x="579" y="777" type="curve" smooth="yes"/>
      <point x="413" y="777" type="line"/>
    </contour>
  </outline>
</glyph>
<glyph name="W" format="1">
  <advance width="1534"/>
  <unicode hex="0057"/>
  <outline>
    <contour>
      <point x="775" y="1600" type="move" name="top"/>
    </contour>
    <contour>
      <point x="771" y="10" type="move" name="bottom"/>
    </contour>
    <contour>
      <point x="1514" y="1600" type="move" name="top_dd"/>
    </contour>
    <contour>
      <point x="1514" y="-407" type="move" name="bottom_dd"/>
    </contour>
    <contour>
      <point x="1514" y="1600" type="move" name="top0315"/>
    </contour>
    <contour>
      <point x="1492" y="1456" type="line"/>
      <point x="1201" y="1456" type="line"/>
      <point x="1063.5222473144531" y="543.6476287841797" type="line"/>
      <point x="892" y="1456" type="line"/>
      <point x="646" y="1456" type="line"/>
      <point x="475.20697021484375" y="544.1264877319336" type="line"/>
      <point x="337" y="1456" type="line"/>
      <point x="45" y="1456" type="line"/>
      <point x="305" y="0" type="line"/>
      <point x="600" y="0" type="line"/>
      <point x="769.1330718994141" y="858.5194702148438" type="line"/>
      <point x="938" y="0" type="line"/>
      <point x="1233" y="0" type="line"/>
    </contour>
  </outline>
</glyph>
<glyph name="d" format="1">
  <advance width="1015"/>
  <unicode hex="0064"/>
  <outline>
    <contour>
      <point x="1000" y="1536" type="move" name="caron"/>
    </contour>
    <contour>
      <point x="731" y="1306" type="move" name="cross"/>
    </contour>
    <contour>
      <point x="513" y="0" type="move" name="bottom"/>
    </contour>
    <contour>
      <point x="431" y="1603" type="move" name="top"/>
    </contour>
    <contour>
      <point x="995" y="1600" type="move" name="top_dd"/>
    </contour>
    <contour>
      <point x="995" y="-407" type="move" name="bottom_dd"/>
    </contour>
    <contour>
      <point x="995" y="1603" type="move" name="top0315"/>
    </contour>
    <contour>
      <point x="654" y="-1" type="line"/>
      <point x="910" y="0" type="line"/>
      <point x="910" y="1536" type="line"/>
      <point x="626" y="1536" type="line"/>
      <point x="626" y="993.6064758300781" type="line"/>
      <point x="573.760437164495" y="1062.263261389142"/>
      <point x="504.949846" y="1102.0"/>
      <point x="417.0" y="1102.0" type="curve" smooth="yes"/>
      <point x="189" y="1102"/>
      <point x="66" y="929"/>
      <point x="66" y="574" type="curve" smooth="yes"/>
      <point x="66" y="503" type="line"/>
      <point x="66" y="164"/>
      <point x="189" y="-20"/>
      <point x="416" y="-20" type="curve" smooth="yes"/>
      <point x="513.3578660000001" y="-20.0"/>
      <point x="587.039449323974" y="29.13945461062"/>
      <point x="640.9505233764648" y="110.8526382446289" type="curve"/>
    </contour>
    <contour>
      <point x="349" y="503" type="curve" smooth="yes"/>
      <point x="349" y="574" type="line"/>
      <point x="349" y="779"/>
      <point x="387" y="866"/>
      <point x="499" y="866" type="curve" smooth="yes"/>
      <point x="556.646218" y="866.0"/>
      <point x="599.2804153217929" y="836.934172729429"/>
      <point x="626" y="785.0976257324219" type="curve"/>
      <point x="626" y="293.08602142333984" type="line"/>
      <point x="600.176126419116" y="245.32175897444802"/>
      <point x="558.477342" y="217.00000000000003"/>
      <point x="498.0" y="217.0" type="curve" smooth="yes"/>
      <point x="384" y="217"/>
      <point x="349" y="304"/>
    </contour>
  </outline>
</glyph>
<glyph name="e" format="1">
  <advance width="981"/>
  <unicode hex="0065"/>
  <outline>
    <contour>
      <point x="473" y="1291" type="move" name="top"/>
    </contour>
    <contour>
      <point x="499" y="0" type="move" name="bottom"/>
    </contour>
    <contour>
      <point x="744" y="32" type="move" name="ogonek"/>
    </contour>
    <contour>
      <point x="963" y="1600" type="move" name="top_dd"/>
    </contour>
    <contour>
      <point x="963" y="-407" type="move" name="bottom_dd"/>
    </contour>
    <contour>
      <point x="789" y="654" type="move" name="rhotichook"/>
    </contour>
    <contour>
      <point x="963" y="1291" type="move" name="top0315"/>
    </contour>
    <contour>
      <point x="907" y="142" type="curve"/>
      <point x="795" y="313" type="line"/>
      <point x="737" y="252"/>
      <point x="658" y="215"/>
      <point x="559" y="215" type="curve" smooth="yes"/>
      <point x="438.253376" y="215.0"/>
      <point x="369.119626635562" y="274.621768975563"/>
      <point x="361.67215728759766" y="447" type="curve"/>
      <point x="923" y="447" type="line"/>
      <point x="923" y="576" type="line" smooth="yes"/>
      <point x="923" y="922"/>
      <point x="784" y="1102"/>
      <point x="511" y="1102" type="curve" smooth="yes"/>
      <point x="239" y="1102"/>
      <point x="78" y="919"/>
      <point x="78" y="568" type="curve" smooth="yes"/>
      <point x="78" y="479" type="line" smooth="yes"/>
      <point x="78" y="166"/>
      <point x="245" y="-20"/>
      <point x="540" y="-20" type="curve"/>
      <point x="725" y="-20"/>
      <point x="849" y="65"/>
    </contour>
    <contour>
      <point x="509.99999999999994" y="866.9999999999999" type="curve"/>
      <point x="608" y="867"/>
      <point x="643" y="801"/>
      <point x="646" y="670" type="curve"/>
      <point x="646" y="645" type="line"/>
      <point x="362.92579650878906" y="645" type="line"/>
      <point x="371.601597740784" y="800.6736316811521"/>
      <point x="411.02930399999997" y="867.0"/>
    </contour>
  </outline>
</glyph>
<glyph name="g" format="1">
  <advance width="1031"/>
  <unicode hex="0067"/>
  <outline>
    <contour>
      <point x="484" y="1290" type="move" name="top"/>
    </contour>
    <contour>
      <point x="485" y="-447" type="move" name="bottom"/>
    </contour>
    <contour>
      <point x="1011" y="1600" type="move" name="top_dd"/>
    </contour>
    <contour>
      <point x="1011" y="-407" type="move" name="bottom_dd"/>
    </contour>
    <contour>
      <point x="1011" y="1290" type="move" name="top0315"/>
    </contour>
    <contour>
      <point x="928" y="0" type="curve" smooth="yes"/>
      <point x="928" y="1082" type="line"/>
      <point x="672" y="1082" type="line"/>
      <point x="661.4150161743164" y="987.113151550293" type="line"/>
      <point x="611.403077106909" y="1059.754712054422"/>
      <point x="539.770218" y="1102.0"/>
      <point x="435.0" y="1102.0" type="curve" smooth="yes"/>
      <point x="205" y="1102"/>
      <point x="69" y="929"/>
      <point x="69" y="574" type="curve" smooth="yes"/>
      <point x="69" y="503" type="line"/>
      <point x="69" y="164"/>
      <point x="205" y="-20"/>
      <point x="433" y="-20" type="curve" smooth="yes"/>
      <point x="524.0138" y="-20.0"/>
      <point x="592.6276221999999" y="19.423960927999993"/>
      <point x="644" y="86.37067413330078" type="curve"/>
      <point x="644" y="-1" type="line" smooth="yes"/>
      <point x="644" y="-152"/>
      <point x="581" y="-199"/>
      <point x="466" y="-199" type="curve" smooth="yes"/>
      <point x="384" y="-199"/>
      <point x="292" y="-157"/>
      <point x="240" y="-105" type="curve"/>
      <point x="145" y="-301" type="line"/>
      <point x="221" y="-384"/>
      <point x="378" y="-426"/>
      <point x="478" y="-426" type="curve" smooth="yes"/>
      <point x="748" y="-426"/>
      <point x="928" y="-297"/>
    </contour>
    <contour>
      <point x="352" y="503" type="curve" smooth="yes"/>
      <point x="352" y="574" type="line"/>
      <point x="352" y="779"/>
      <point x="405" y="866"/>
      <point x="517" y="866" type="curve" smooth="yes"/>
      <point x="574.191751" y="866.0"/>
      <point x="616.2515245793829" y="841.841930784629"/>
      <point x="644" y="798.2983779907227" type="curve"/>
      <point x="644" y="280.26367950439453" type="line"/>
      <point x="617.2650375655479" y="240.28849101259203"/>
      <point x="575.8782459999999" y="217.00000000000003"/>
      <point x="515.0" y="217.0" type="curve" smooth="yes"/>
      <point x="402" y="217"/>
      <point x="352" y="304"/>
    </contour>
  </outline>
</glyph>
<glyph name="h" format="1">
  <advance width="1008"/>
  <unicode hex="0068"/>
  <outline>
    <contour>
      <point x="469" y="1673" type="move" name="top"/>
    </contour>
    <contour>
      <point x="259" y="1303" type="move" name="cross"/>
    </contour>
    <contour>
      <point x="512" y="10" type="move" name="bottom"/>
    </contour>
    <contour>
      <point x="908" y="0" type="move" name="right"/>
    </contour>
    <contour>
      <point x="988" y="1600" type="move" name="top_dd"/>
    </contour>
    <contour>
      <point x="988" y="-407" type="move" name="bottom_dd"/>
    </contour>
    <contour>
      <point x="988" y="1673" type="move" name="top0315"/>
    </contour>
    <contour>
      <point x="500.00000000000006" y="866.0" type="curve" smooth="yes"/>
      <point x="582" y="866"/>
      <point x="625" y="823"/>
      <point x="625" y="684" type="curve" smooth="yes"/>
      <point x="625" y="0" type="line"/>
      <point x="908" y="0" type="line"/>
      <point x="908" y="682" type="line" smooth="yes"/>
      <point x="908" y="988"/>
      <point x="784" y="1102"/>
      <point x="606" y="1102" type="curve" smooth="yes"/>
      <point x="514.874328" y="1102.0"/>
      <point x="437.24596730054395" y="1059.797139313792"/>
      <point x="379" y="986.9834671020508" type="curve"/>
      <point x="379" y="1536" type="line"/>
      <point x="96" y="1536" type="line"/>
      <point x="96" y="0" type="line"/>
      <point x="379" y="0" type="line"/>
      <point x="379" y="793.2372741699219" type="line"/>
      <point x="404.816588907053" y="838.810862163875"/>
      <point x="444.03404" y="866.0"/>
    </contour>
  </outline>
</glyph>
<glyph name="k" format="1">
  <advance width="980"/>
  <unicode hex="006B"/>
  <outline>
    <contour>
      <point x="502" y="40" type="move" name="bottom"/>
    </contour>
    <contour>
      <point x="223" y="1296" type="move" name="cross"/>
    </contour>
    <contour>
      <point x="587" y="1603" type="move" name="top"/>
    </contour>
    <contour>
      <point x="587" y="1603" type="move" name="marktop"/>
    </contour>
    <contour>
      <point x="960" y="1600" type="move" name="top_dd"/>
    </contour>
    <contour>
      <point x="960" y="-407" type="move" name="bottom_dd"/>
    </contour>
    <contour>
      <point x="851" y="1603" type="move" name="top0315"/>
    </contour>
    <contour>
      <point x="660" y="0" type="line"/>
      <point x="984" y="0" type="line"/>
      <point x="640.7188491821289" y="637.3870391845703" type="line"/>
      <point x="955" y="1082" type="line"/>
      <point x="618" y="1082" type="line"/>
      <point x="421" y="758" type="line"/>
      <point x="386" y="706.6931838989258" type="line"/>
      <point x="386" y="1537" type="line"/>
      <point x="103" y="1537" type="line"/>
      <point x="103" y="0" type="line"/>
      <point x="386" y="0" type="line"/>
      <point x="386" y="332.8340606689453" type="line"/>
      <point x="462.8463439941406" y="418.7408905029297" type="line"/>
    </contour>
  </outline>
</glyph>
<glyph name="m" format="1">
  <advance width="1519"/>
  <unicode hex="006D"/>
  <outline>
    <contour>
      <point x="779" y="1290" type="move" name="top"/>
    </contour>
    <contour>
      <point x="776" y="10" type="move" name="bottom"/>
    </contour>
    <contour>
      <point x="779" y="1290" type="move" name="marktop"/>
    </contour>
    <contour>
      <point x="1499" y="1600" type="move" name="top_dd"/>
    </contour>
    <contour>
      <point x="1499" y="-407" type="move" name="bottom_dd"/>
    </contour>
    <contour>
      <point x="1499" y="1290" type="move" name="top0315"/>
    </contour>
    <contour>
      <point x="503.0" y="866.0" type="curve" smooth="yes"/>
      <point x="577" y="866"/>
      <point x="618" y="830"/>
      <point x="618" y="687" type="curve"/>
      <point x="618" y="0" type="line"/>
      <point x="900" y="0" type="line"/>
      <point x="900" y="722" type="line"/>
      <point x="900.0" y="737.8382"/>
      <point x="899.6077265016" y="753.125840704"/>
      <point x="898.8373107910156" y="767.7805862426758" type="curve"/>
      <point x="921.967030313063" y="828.3303673324231"/>
      <point x="961.1495649999999" y="866.0000000000001"/>
      <point x="1016.0" y="866.0" type="curve" smooth="yes"/>
      <point x="1088" y="866"/>
      <point x="1130" y="833"/>
      <point x="1130" y="689" type="curve" smooth="yes"/>
      <point x="1130" y="0" type="line"/>
      <point x="1413" y="0" type="line"/>
      <point x="1413" y="689" type="line" smooth="yes"/>
      <point x="1413" y="992"/>
      <point x="1297" y="1102"/>
      <point x="1122" y="1102" type="curve" smooth="yes"/>
      <point x="1003.80444" y="1102.0"/>
      <point x="915.6979137768" y="1047.2478237832"/>
      <point x="857.5578460693359" y="956.7192306518555" type="curve"/>
      <point x="810.5863754725" y="1057.82318868125"/>
      <point x="728.12855" y="1102.0"/>
      <point x="628.0" y="1102.0" type="curve" smooth="yes"/>
      <point x="520.738371" y="1102.0"/>
      <point x="437.24711177132" y="1058.024815923058"/>
      <point x="377.9668502807617" y="982.4143753051758" type="curve"/>
      <point x="370" y="1082" type="line"/>
      <point x="105" y="1082" type="line"/>
      <point x="105" y="0" type="line"/>
      <point x="388" y="0" type="line"/>
      <point x="388" y="788.9030838012695" type="line"/>
      <point x="413.75874140529504" y="837.084324078875"/>
      <point x="452.01792200000006" y="866.0"/>
    </contour>
  </outline>
</glyph>
<glyph name="n" format="1">
  <advance width="1008"/>
  <unicode hex="006E"/>
  <outline>
    <contour>
      <point x="503" y="1290" type="move" name="top"/>
    </contour>
    <contour>
      <point x="501" y="10" type="move" name="bottom"/>
    </contour>
    <contour>
      <point x="-57" y="1535" type="move" name="caron"/>
    </contour>
    <contour>
      <point x="911" y="0" type="move" name="right"/>
    </contour>
    <contour>
      <point x="503" y="1290" type="move" name="marktop"/>
    </contour>
    <contour>
      <point x="988" y="1600" type="move" name="top_dd"/>
    </contour>
    <contour>
      <point x="988" y="-407" type="move" name="bottom_dd"/>
    </contour>
    <contour>
      <point x="988" y="1290" type="move" name="top0315"/>
    </contour>
    <contour>
      <point x="500.0" y="866.0" type="curve" smooth="yes"/>
      <point x="583" y="866"/>
      <point x="625" y="827"/>
      <point x="625" y="690" type="curve" smooth="yes"/>
      <point x="625" y="0" type="line"/>
      <point x="908" y="0" type="line"/>
      <point x="908" y="688" type="line" smooth="yes"/>
      <point x="908" y="995"/>
      <point x="791" y="1102"/>
      <point x="622" y="1102" type="curve" smooth="yes"/>
      <point x="519.158282" y="1102.0"/>
      <point x="432.562641438073" y="1057.045100787798"/>
      <point x="370.29701232910156" y="975.5216293334961" type="curve"/>
      <point x="362" y="1082" type="line"/>
      <point x="97" y="1082" type="line"/>
      <point x="97" y="0" type="line"/>
      <point x="380" y="0" type="line"/>
      <point x="380" y="785.69482421875" type="line"/>
      <point x="407.119193735084" y="835.7884761395001"/>
      <point x="447.396446" y="866.0000000000001"/>
    </contour>
  </outline>
</glyph>
<glyph name="q" format="1">
  <advance width="1018"/>
  <unicode hex="0071"/>
  <outline>
    <contour>
      <point x="471" y="1290" type="move" name="top"/>
    </contour>
    <contour>
      <point x="772" y="-407" type="move" name="bottom"/>
    </contour>
    <contour>
      <point x="471" y="1290" type="move" name="marktop"/>
    </contour>
    <contour>
      <point x="998" y="1600" type="move" name="top_dd"/>
    </contour>
    <contour>
      <point x="998" y="-407" type="move" name="bottom_dd"/>
    </contour>
    <contour>
      <point x="998" y="1290" type="move" name="top0315"/>
    </contour>
    <contour>
      <point x="910" y="1082" type="line"/>
      <point x="662" y="1082" type="line"/>
      <point x="644.610725402832" y="974.7661590576172" type="line"/>
      <point x="591.772933451236" y="1055.107049532385"/>
      <point x="518.409085" y="1102.0"/>
      <point x="418.00000000000006" y="1102.0" type="curve" smooth="yes"/>
      <point x="186" y="1102"/>
      <point x="66" y="932"/>
      <point x="66" y="577" type="curve" smooth="yes"/>
      <point x="66" y="506" type="line"/>
      <point x="66" y="166"/>
      <point x="186" y="-20"/>
      <point x="417" y="-20" type="curve" smooth="yes"/>
      <point x="506.837965" y="-20.0"/>
      <point x="574.850997724875" y="18.761079720622"/>
      <point x="626" y="84.54927825927734" type="curve"/>
      <point x="626" y="-416" type="line"/>
      <point x="910" y="-416" type="line"/>
    </contour>
    <contour>
      <point x="349" y="506" type="curve" smooth="yes"/>
      <point x="349" y="577" type="line"/>
      <point x="349" y="781"/>
      <point x="388" y="867"/>
      <point x="500" y="867" type="curve" smooth="yes"/>
      <point x="559.333344" y="867.0"/>
      <point x="600.143934741496" y="841.74170010204"/>
      <point x="626" y="796.1008148193359" type="curve"/>
      <point x="626" y="283.5879669189453" type="line"/>
      <point x="601.014465859072" y="240.56533167718396"/>
      <point x="560.92576" y="214.99999999999997"/>
      <point x="498.99999999999994" y="215.0" type="curve" smooth="yes"/>
      <point x="385" y="215"/>
      <point x="349" y="306"/>
    </contour>
  </outline>
</glyph>
<glyph name="r" format="1">
  <advance width="679"/>
  <unicode hex="0072"/>
  <outline>
    <contour>
      <point x="365" y="1290" type="move" name="top"/>
    </contour>
    <contour>
      <point x="249" y="10" type="move" name="bottom"/>
    </contour>
    <contour>
      <point x="659" y="1600" type="move" name="top_dd"/>
    </contour>
    <contour>
      <point x="659" y="-407" type="move" name="bottom_dd"/>
    </contour>
    <contour>
      <point x="659" y="1290" type="move" name="top0315"/>
    </contour>
    <contour>
      <point x="544.0" y="817.0" type="curve"/>
      <point x="571" y="817"/>
      <point x="612" y="813"/>
      <point x="637" y="809" type="curve"/>
      <point x="640" y="1090" type="line"/>
      <point x="622" y="1097"/>
      <point x="588" y="1102"/>
      <point x="563" y="1102" type="curve"/>
      <point x="483.12176" y="1102.0"/>
      <point x="420.441050959349" y="1051.155125859316"/>
      <point x="377.6953353881836" y="965.1271133422852" type="curve"/>
      <point x="370" y="1082" type="line"/>
      <point x="103" y="1082" type="line"/>
      <point x="103" y="0" type="line"/>
      <point x="386" y="0" type="line"/>
      <point x="386" y="715.5849761962891" type="line"/>
      <point x="411.903457185076" y="781.821935222884"/>
      <point x="462.589156" y="817.0"/>
    </contour>
  </outline>
</glyph>
<glyph name="u" format="1">
  <advance width="1008"/>
  <unicode hex="0075"/>
  <outline>
    <contour>
      <point x="500" y="1290" type="move" name="top"/>
    </contour>
    <contour>
      <point x="877" y="0" type="move" name="ogonek"/>
    </contour>
    <contour>
      <point x="408" y="0" type="move" name="bottomu"/>
    </contour>
    <contour>
      <point x="988" y="1600" type="move" name="top_dd"/>
    </contour>
    <contour>
      <point x="988" y="-407" type="move" name="bottom_dd"/>
    </contour>
    <contour>
      <point x="800" y="654" type="move" name="rhotichook"/>
    </contour>
    <contour>
      <point x="988" y="1290" type="move" name="top0315"/>
    </contour>
    <contour>
      <point x="502" y="0" type="move" name="bottom"/>
    </contour>
    <contour>
      <point x="643" y="0" type="line"/>
      <point x="909" y="0" type="line"/>
      <point x="909" y="1082" type="line"/>
      <point x="625" y="1082" type="line"/>
      <point x="625" y="301.3906784057617" type="line"/>
      <point x="598.4336805019899" y="248.875706564146"/>
      <point x="553.7993559999999" y="216.99999999999997"/>
      <point x="483.9999999999999" y="216.99999999999997" type="curve" smooth="yes"/>
      <point x="423" y="217"/>
      <point x="380" y="262"/>
      <point x="380" y="380" type="curve"/>
      <point x="380" y="1082" type="line"/>
      <point x="97" y="1082" type="line"/>
      <point x="97" y="382" type="line"/>
      <point x="97" y="96"/>
      <point x="220" y="-20"/>
      <point x="399" y="-20" type="curve" smooth="yes"/>
      <point x="501.62321000000003" y="-20.0"/>
      <point x="580.534203469125" y="24.125342066150004"/>
      <point x="636.1073989868164" y="99.5597915649414" type="curve"/>
    </contour>
  </outline>
</glyph>
<glyph name="v" format="1">
  <advance width="920"/>
  <unicode hex="0076"/>
  <outline>
    <contour>
      <point x="462" y="1280" type="move" name="top"/>
    </contour>
    <contour>
      <point x="462" y="10" type="move" name="bottom"/>
    </contour>
    <contour>
      <point x="900" y="1600" type="move" name="top_dd"/>
    </contour>
    <contour>
      <point x="900" y="-407" type="move" name="bottom_dd"/>
    </contour>
    <contour>
      <point x="900" y="1280" type="move" name="top0315"/>
    </contour>
    <contour>
      <point x="891" y="1082" type="line"/>
      <point x="596" y="1082" type="line"/>
      <point x="459.70821380615234" y="400.5410690307617" type="line"/>
      <point x="322" y="1082" type="line"/>
      <point x="26" y="1082" type="line"/>
      <point x="323" y="0" type="line"/>
      <point x="594" y="0" type="line"/>
    </contour>
  </outline>
</glyph>
<glyph name="w" format="1">
  <advance width="1296"/>
  <unicode hex="0077"/>
  <outline>
    <contour>
      <point x="647" y="1290" type="move" name="top"/>
    </contour>
    <contour>
      <point x="649" y="10" type="move" name="bottom"/>
    </contour>
    <contour>
      <point x="647" y="1290" type="move" name="marktop"/>
    </contour>
    <contour>
      <point x="1276" y="1600" type="move" name="top_dd"/>
    </contour>
    <contour>
      <point x="1276" y="-407" type="move" name="bottom_dd"/>
    </contour>
    <contour>
      <point x="1276" y="1290" type="move" name="top0315"/>
    </contour>
    <contour>
      <point x="1260" y="1082" type="line"/>
      <point x="988" y="1082" type="line"/>
      <point x="891.5738296508789" y="476.2259216308594" type="line"/>
      <point x="748" y="1082" type="line"/>
      <point x="546" y="1082" type="line"/>
      <point x="402.90740966796875" y="476.9010009765625" type="line"/>
      <point x="306" y="1082" type="line"/>
      <point x="34" y="1082" type="line"/>
      <point x="259" y="0" type="line"/>
      <point x="494" y="0" type="line"/>
      <point x="647.3131103515625" y="624.8545074462891" type="line"/>
      <point x="800" y="0" type="line"/>
      <point x="1036" y="0" type="line"/>
    </contour>
  </outline>
</glyph>
<glyph name="z" format="1">
  <advance width="927"/>
  <unicode hex="007A"/>
  <outline>
    <contour>
      <point x="461" y="1290" type="move" name="top"/>
    </contour>
    <contour>
      <point x="459" y="10" type="move" name="bottom"/>
    </contour>
    <contour>
      <point x="907" y="1600" type="move" name="top_dd"/>
    </contour>
    <contour>
      <point x="907" y="-407" type="move" name="bottom_dd"/>
    </contour>
    <contour>
      <point x="907" y="1290" type="move" name="top0315"/>
    </contour>
    <contour>
      <point x="91" y="847" type="line"/>
      <point x="499.76795959472656" y="847" type="line"/>
      <point x="80" y="177" type="line"/>
      <point x="80" y="0" type="line"/>
      <point x="844" y="0" type="line"/>
      <point x="844" y="235" type="line"/>
      <point x="415.7782669067383" y="235" type="line"/>
      <point x="838" y="911" type="line"/>
      <point x="838" y="1082" type="line"/>
      <point x="91" y="1082" type="line"/>
    </contour>
  </outline>
</glyph>
<glyph name="braceleft" format="1">
  <advance width="610"/>
  <unicode hex="007B"/>
  <outline>
    <contour>
      <point x="194" y="309" type="curve" smooth="yes"/>
      <point x="194" y="106" type="line" smooth="yes"/>
      <point x="194" y="-104"/>
      <point x="267" y="-283"/>
      <point x="503" y="-360" type="curve"/>
      <point x="555" y="-197" type="line"/>
      <point x="466" y="-154"/>
      <point x="446" y="-36"/>
      <point x="446" y="106" type="curve" smooth="yes"/>
      <point x="446" y="309" type="line" smooth="yes"/>
      <point x="446.0" y="441.502363"/>
      <point x="397.430903762126" y="555.684803734837"/>
      <point x="286.94425201416016" y="618.9994735717773" type="curve"/>
      <point x="397.430903762126" y="682.3151962651631"/>
      <point x="446.0" y="796.497637"/>
      <point x="446.0" y="929.0" type="curve"/>
      <point x="446" y="1132" type="line"/>
      <point x="446" y="1274"/>
      <point x="467" y="1392"/>
      <point x="556" y="1435" type="curve"/>
      <point x="503" y="1597" type="line"/>
      <point x="267" y="1520"/>
      <point x="194" y="1342"/>
      <point x="194" y="1132" type="curve"/>
      <point x="194" y="929" type="line"/>
      <point x="194" y="803"/>
      <point x="153" y="723"/>
      <point x="56" y="723" type="curve"/>
      <point x="56" y="515" type="line"/>
      <point x="153" y="515"/>
      <point x="194" y="434"/>
    </contour>
  </outline>
</glyph>
<glyph name="braceright" format="1">
  <advance width="610"/>
  <unicode hex="007D"/>
  <outline>
    <contour>
      <point x="417" y="929" type="curve" smooth="yes"/>
      <point x="417" y="1132" type="line" smooth="yes"/>
      <point x="417" y="1342"/>
      <point x="344" y="1520"/>
      <point x="108" y="1597" type="curve"/>
      <point x="54" y="1435" type="line"/>
      <point x="143" y="1392"/>
      <point x="164" y="1274"/>
      <point x="164" y="1132" type="curve" smooth="yes"/>
      <point x="164" y="929" type="line" smooth="yes"/>
      <point x="164.0" y="794.95301"/>
      <point x="213.7080708146" y="680.9636626094"/>
      <point x="326.9446716308594" y="618.9976501464844" type="curve"/>
      <point x="213.70807081460003" y="557.0363373906"/>
      <point x="164.00000000000003" y="443.04699"/>
      <point x="164.00000000000003" y="308.99999999999994" type="curve" smooth="yes"/>
      <point x="164" y="106" type="line" smooth="yes"/>
      <point x="164" y="-36"/>
      <point x="144" y="-154"/>
      <point x="55" y="-197" type="curve"/>
      <point x="108" y="-360" type="line"/>
      <point x="344" y="-283"/>
      <point x="417" y="-104"/>
      <point x="417" y="106" type="curve" smooth="yes"/>
      <point x="417" y="309" type="line" smooth="yes"/>
      <point x="417" y="434"/>
      <point x="457" y="515"/>
      <point x="554" y="515" type="curve"/>
      <point x="554" y="723" type="line"/>
      <point x="457" y="723"/>
      <point x="417" y="803"/>
    </contour>
  </outline>
</glyph>
<glyph name="cent" format="1">
  <advance width="1043"/>
  <unicode hex="00A2"/>
  <outline>
    <contour>
      <point x="913.0" y="375.0" type="curve"/>
      <point x="648" y="375" type="line"/>
      <point x="647" y="278"/>
      <point x="601" y="215"/>
      <point x="523" y="215" type="curve" smooth="yes"/>
      <point x="396" y="215"/>
      <point x="381" y="361"/>
      <point x="381" y="527" type="curve" smooth="yes"/>
      <point x="381" y="555" type="line" smooth="yes"/>
      <point x="381" y="717"/>
      <point x="397" y="867"/>
      <point x="521" y="867" type="curve"/>
      <point x="610" y="867"/>
      <point x="647" y="783"/>
      <point x="648" y="678" type="curve"/>
      <point x="913" y="678" type="line"/>
      <point x="912.145459" y="901.889742"/>
      <point x="800.294389256488" y="1052.7554519318999"/>
      <point x="623" y="1091.9035949707031" type="curve"/>
      <point x="623" y="1318" type="line"/>
      <point x="432" y="1318" type="line"/>
      <point x="432" y="1092.4497680664062" type="line"/>
      <point x="207.26477797816003" y="1044.93398051014"/>
      <point x="98.00000000000003" y="825.3320279999999"/>
      <point x="98.0" y="555.0" type="curve" smooth="yes"/>
      <point x="98" y="527" type="line" smooth="yes"/>
      <point x="98.0" y="255.951235"/>
      <point x="206.350997762475" y="37.12920992867498"/>
      <point x="432" y="-10.395805358886719" type="curve"/>
      <point x="432" y="-245" type="line"/>
      <point x="623" y="-245" type="line"/>
      <point x="623" y="-8.925086975097656" type="line"/>
      <point x="791.8953063556161" y="31.615592812560003"/>
      <point x="912.1518680000001" y="179.92964"/>
    </contour>
  </outline>
</glyph>
<glyph name="yen" format="1">
  <advance width="973"/>
  <unicode hex="00A5"/>
  <outline>
    <contour>
      <point x="854" y="278" type="line"/>
      <point x="854" y="452" type="line"/>
      <point x="630" y="452" type="line"/>
      <point x="630" y="567" type="line"/>
      <point x="854" y="567" type="line"/>
      <point x="854" y="742" type="line"/>
      <point x="685.4066696166992" y="742" type="line"/>
      <point x="948" y="1456" type="line"/>
      <point x="643" y="1456" type="line"/>
      <point x="488.22296142578125" y="959.6460418701172" type="line"/>
      <point x="332" y="1456" type="line"/>
      <point x="25" y="1456" type="line"/>
      <point x="289.9733352661133" y="742" type="line"/>
      <point x="93" y="742" type="line"/>
      <point x="93" y="567" type="line"/>
      <point x="336" y="567" type="line"/>
      <point x="336" y="452" type="line"/>
      <point x="93" y="452" type="line"/>
      <point x="93" y="278" type="line"/>
      <point x="336" y="278" type="line"/>
      <point x="336" y="0" type="line"/>
      <point x="630" y="0" type="line"/>
      <point x="630" y="278" type="line"/>
    </contour>
  </outline>
</glyph>
<glyph name="section" format="1">
  <advance width="1132"/>
  <unicode hex="00A7"/>
  <outline>
    <contour>
      <point x="1007" y="-78" type="curve" smooth="yes"/>
      <point x="1007.0" y="57.013722"/>
      <point x="966.196005887331" y="147.11566524511602"/>
      <point x="889.3173065185547" y="214.08206176757812" type="curve"/>
      <point x="976.220241164748" y="271.615445238192"/>
      <point x="1026.0" y="361.769532"/>
      <point x="1026.0" y="483.00000000000006" type="curve"/>
      <point x="1026" y="724"/>
      <point x="880" y="826"/>
      <point x="622" y="905" type="curve" smooth="yes"/>
      <point x="439" y="967"/>
      <point x="397" y="1001"/>
      <point x="397" y="1097" type="curve"/>
      <point x="397" y="1177"/>
      <point x="445" y="1241"/>
      <point x="561" y="1241" type="curve" smooth="yes"/>
      <point x="671" y="1241"/>
      <point x="726" y="1157"/>
      <point x="726" y="1050" type="curve"/>
      <point x="1009" y="1050" type="line"/>
      <point x="1009" y="1325"/>
      <point x="838" y="1476"/>
      <point x="561" y="1476" type="curve" smooth="yes"/>
      <point x="290" y="1476"/>
      <point x="114" y="1326"/>
      <point x="114" y="1095" type="curve"/>
      <point x="114.0" y="960.881209"/>
      <point x="156.212853569195" y="871.426340486116"/>
      <point x="232.96360778808594" y="804.4705352783203" type="curve"/>
      <point x="145.28355397937497" y="746.03823219125"/>
      <point x="94.99999999999997" y="654.170775"/>
      <point x="95.0" y="534.0" type="curve" smooth="yes"/>
      <point x="95" y="293"/>
      <point x="243" y="192"/>
      <point x="495" y="113" type="curve"/>
      <point x="671" y="49"/>
      <point x="724" y="7"/>
      <point x="724" y="-79" type="curve" smooth="yes"/>
      <point x="724" y="-163"/>
      <point x="668" y="-216"/>
      <point x="561" y="-216" type="curve" smooth="yes"/>
      <point x="470" y="-216"/>
      <point x="377" y="-182"/>
      <point x="377" y="-34" type="curve"/>
      <point x="94" y="-35" type="line"/>
      <point x="94" y="-355"/>
      <point x="328" y="-452"/>
      <point x="561" y="-452" type="curve" smooth="yes"/>
      <point x="831" y="-452"/>
      <point x="1007" y="-319"/>
    </contour>
    <contour>
      <point x="592.9999999999999" y="356.0" type="curve" smooth="yes"/>
      <point x="416" y="425"/>
      <point x="378" y="461"/>
      <point x="378" y="564" type="curve" smooth="yes"/>
      <point x="378.0" y="620.178714"/>
      <point x="391.752573512004" y="667.300855199412"/>
      <point x="422.5602111816406" y="697.0033950805664" type="curve"/>
      <point x="454.582948788724" y="684.2120772505921"/>
      <point x="488.78060800000003" y="672.02597"/>
      <point x="525.0" y="660.0000000000001" type="curve" smooth="yes"/>
      <point x="696" y="593"/>
      <point x="747" y="546"/>
      <point x="747" y="454" type="curve"/>
      <point x="747.0" y="397.896116"/>
      <point x="728.794814018896" y="351.357668701936"/>
      <point x="695.6409912109375" y="321.0988998413086" type="curve"/>
      <point x="663.677392090604" y="333.224630699028"/>
      <point x="629.435115" y="344.72573800000004"/>
    </contour>
  </outline>
</glyph>
<glyph name="ordfeminine" format="1">
  <advance width="805"/>
  <unicode hex="00AA"/>
  <outline>
    <contour>
      <point x="516.0" y="705.0" type="curve"/>
      <point x="683" y="705" type="line"/>
      <point x="667" y="763"/>
      <point x="662" y="821"/>
      <point x="662" y="886" type="curve" smooth="yes"/>
      <point x="662" y="1200" type="line"/>
      <point x="662" y="1383"/>
      <point x="562" y="1476"/>
      <point x="411" y="1476" type="curve" smooth="yes"/>
      <point x="251" y="1476"/>
      <point x="147" y="1378"/>
      <point x="147" y="1243" type="curve"/>
      <point x="311" y="1229" type="line"/>
      <point x="311" y="1293"/>
      <point x="348" y="1328"/>
      <point x="411" y="1328" type="curve" smooth="yes"/>
      <point x="468" y="1328"/>
      <point x="495" y="1283"/>
      <point x="495" y="1201" type="curve"/>
      <point x="495" y="1150" type="line"/>
      <point x="421" y="1150" type="line"/>
      <point x="223" y="1150"/>
      <point x="131" y="1066"/>
      <point x="131" y="919" type="curve" smooth="yes"/>
      <point x="131" y="781"/>
      <point x="206" y="691"/>
      <point x="340" y="691" type="curve" smooth="yes"/>
      <point x="416.250154" y="691.0"/>
      <point x="468.342055984666" y="725.895252911038"/>
      <point x="501.9611053466797" y="768.1634750366211" type="curve"/>
      <point x="505.38078509873276" y="746.1400114358454"/>
      <point x="510.0604166498395" y="724.9400298183958"/>
    </contour>
    <contour>
      <point x="383.0" y="835.0" type="curve" smooth="yes"/>
      <point x="325" y="835"/>
      <point x="297" y="868"/>
      <point x="297" y="923" type="curve" smooth="yes"/>
      <point x="297" y="981"/>
      <point x="332" y="1033"/>
      <point x="421" y="1033" type="curve"/>
      <point x="495" y="1033" type="line"/>
      <point x="495" y="890.586051940918" type="line"/>
      <point x="466.048905968898" y="859.9522165526259"/>
      <point x="421.121878" y="834.9999999999999"/>
    </contour>
  </outline>
</glyph>
<glyph name="registered" format="1">
  <advance width="1607"/>
  <unicode hex="00AE"/>
  <outline>
    <contour>
      <point x="87" y="729" type="curve" smooth="yes"/>
      <point x="87" y="306"/>
      <point x="405" y="-20"/>
      <point x="797" y="-20" type="curve" smooth="yes"/>
      <point x="1188" y="-20"/>
      <point x="1506" y="306"/>
      <point x="1506" y="729" type="curve" smooth="yes"/>
      <point x="1506" y="1152"/>
      <point x="1188" y="1476"/>
      <point x="797" y="1476" type="curve" smooth="yes"/>
      <point x="405" y="1476"/>
      <point x="87" y="1152"/>
    </contour>
    <contour>
      <point x="209" y="729" type="curve" smooth="yes"/>
      <point x="209" y="1082"/>
      <point x="472" y="1351"/>
      <point x="797" y="1351" type="curve" smooth="yes"/>
      <point x="1121" y="1351"/>
      <point x="1384" y="1082"/>
      <point x="1384" y="729" type="curve" smooth="yes"/>
      <point x="1384" y="376"/>
      <point x="1121" y="105"/>
      <point x="797" y="105" type="curve" smooth="yes"/>
      <point x="472" y="105"/>
      <point x="209" y="376"/>
    </contour>
    <contour>
      <point x="811" y="653" type="line"/>
      <point x="915" y="653"/>
      <point x="954" y="608"/>
      <point x="954" y="514" type="curve"/>
      <point x="954" y="460" type="line"/>
      <point x="954" y="431"/>
      <point x="954" y="350"/>
      <point x="967" y="316" type="curve"/>
      <point x="1122" y="316" type="line"/>
      <point x="1122" y="332" type="line"/>
      <point x="1109" y="362"/>
      <point x="1105" y="409"/>
      <point x="1105" y="459" type="curve"/>
      <point x="1105" y="515" type="line"/>
      <point x="1105.0" y="609.951714"/>
      <point x="1076.782825983744" y="688.149480927848"/>
      <point x="996.6353607177734" y="729.9748077392578" type="curve"/>
      <point x="1069.118797990402" y="770.439860055958"/>
      <point x="1108.0" y="827.748868"/>
      <point x="1108.0" y="904.0" type="curve"/>
      <point x="1108" y="1076"/>
      <point x="981" y="1166"/>
      <point x="783" y="1166" type="curve"/>
      <point x="502" y="1166" type="line"/>
      <point x="502" y="316" type="line"/>
      <point x="653" y="316" type="line"/>
      <point x="653" y="653" type="line"/>
    </contour>
    <contour>
      <point x="653" y="1033" type="line"/>
      <point x="783" y="1033" type="line"/>
      <point x="913" y="1033"/>
      <point x="958" y="1000"/>
      <point x="958" y="903" type="curve"/>
      <point x="958" y="827"/>
      <point x="878" y="788"/>
      <point x="788" y="787" type="curve"/>
      <point x="653" y="787" type="line"/>
    </contour>
  </outline>
</glyph>
<glyph name="mu" format="1">
  <advance width="1125"/>
  <unicode hex="00B5"/>
  <outline>
    <contour>
      <point x="537.0" y="-20.999999999999986" type="curve" smooth="yes"/>
      <point x="604.302686" y="-21.0"/>
      <point x="660.400585787776" y="5.0277846388119976"/>
      <point x="705.0944061279297" y="51.389442443847656" type="curve"/>
      <point x="709" y="0" type="line"/>
      <point x="973" y="0" type="line"/>
      <point x="973" y="1082" type="line"/>
      <point x="690" y="1082" type="line"/>
      <point x="690" y="305.21875" type="line"/>
      <point x="662.046638541472" y="250.06335100547597"/>
      <point x="616.0463560000001" y="216.99999999999997"/>
      <point x="545.9999999999999" y="216.99999999999994" type="curve" smooth="yes"/>
      <point x="462" y="217"/>
      <point x="415" y="260"/>
      <point x="415" y="462" type="curve"/>
      <point x="415" y="1082" type="line"/>
      <point x="132" y="1082" type="line"/>
      <point x="132" y="-416" type="line"/>
      <point x="415" y="-416" type="line"/>
      <point x="415" y="12.91546630859375" type="line"/>
      <point x="449.64909174244195" y="-10.153616077532998"/>
      <point x="489.92493299999995" y="-20.999999999999993"/>
    </contour>
  </outline>
</glyph>
<glyph name="AE" format="1">
  <advance width="1675"/>
  <unicode hex="00C6"/>
  <outline>
    <contour>
      <point x="799" y="1612" type="move" name="top"/>
    </contour>
    <contour>
      <point x="1655" y="1600" type="move" name="top_dd"/>
    </contour>
    <contour>
      <point x="1655" y="1612" type="move" name="top0315"/>
    </contour>
    <contour>
      <point x="1602" y="238" type="line"/>
      <point x="1099.663459777832" y="238" type="line"/>
      <point x="1085.9677200317383" y="629" type="line"/>
      <point x="1483" y="629" type="line"/>
      <point x="1483" y="867" type="line"/>
      <point x="1077.6311798095703" y="867" type="line"/>
      <point x="1065.336540222168" y="1218" type="line"/>
      <point x="1551" y="1218" type="line"/>
      <point x="1551" y="1456" type="line"/>
      <point x="658" y="1456" type="line"/>
      <point x="16" y="0" type="line"/>
      <point x="347" y="0" type="line"/>
      <point x="479.2619400024414" y="334" type="line"/>
      <point x="813.3008270263672" y="334" type="line"/>
      <point x="825" y="0" type="line"/>
      <point x="1602" y="0" type="line"/>
    </contour>
    <contour>
      <point x="577.4684143066406" y="582" type="line"/>
      <point x="786.1547470092773" y="1108.993896484375" type="line"/>
      <point x="804.614013671875" y="582" type="line"/>
    </contour>
  </outline>
</glyph>
<glyph name="multiply" format="1">
  <advance width="960"/>
  <unicode hex="00D7"/>
  <outline>
    <contour>
      <point x="884" y="375" type="line"/>
      <point x="629.3143615722656" y="684.2054977416992" type="line"/>
      <point x="889" y="999" type="line"/>
      <point x="723" y="1169" type="line"/>
      <point x="476.5" y="869.7324142456055" type="line"/>
      <point x="230" y="1169" type="line"/>
      <point x="65" y="999" type="line"/>
      <point x="323.9874038696289" y="684.5718688964844" type="line"/>
      <point x="69" y="375" type="line"/>
      <point x="234" y="205" type="line"/>
      <point x="476.6852569580078" y="499.1864013671875" type="line"/>
      <point x="719" y="205" type="line"/>
    </contour>
  </outline>
</glyph>
<glyph name="Oslash" format="1">
  <advance width="1233"/>
  <unicode hex="00D8"/>
  <outline>
    <contour>
      <point x="622" y="1674" type="move" name="top"/>
    </contour>
    <contour>
      <point x="1213" y="1600" type="move" name="top_dd"/>
    </contour>
    <contour>
      <point x="1213" y="1674" type="move" name="top0315"/>
    </contour>
    <contour>
      <point x="626.0" y="-20.00000000000002" type="curve" smooth="yes"/>
      <point x="939" y="-20"/>
      <point x="1158" y="251"/>
      <point x="1158" y="695" type="curve"/>
      <point x="1158" y="760" type="line"/>
      <point x="1158.0" y="988.930396"/>
      <point x="1099.51241900618" y="1172.134137768468"/>
      <point x="999.9457015991211" y="1295.8982543945312" type="curve"/>
      <point x="1109" y="1518" type="line"/>
      <point x="932" y="1518" type="line"/>
      <point x="876.9447708129883" y="1406.015022277832" type="line"/>
      <point x="803.490057820928" y="1451.7882148741119"/>
      <point x="718.384176" y="1475.9999999999998"/>
      <point x="625.0" y="1475.9999999999998" type="curve" smooth="yes"/>
      <point x="312" y="1476"/>
      <point x="92" y="1204"/>
      <point x="92" y="760" type="curve"/>
      <point x="92" y="695" type="line"/>
      <point x="92.0" y="459.80431999999996"/>
      <point x="154.2939278048" y="273.15300716319996"/>
      <point x="259.2614440917969" y="149.61753845214844" type="curve"/>
      <point x="139" y="-95" type="line"/>
      <point x="317" y="-95" type="line"/>
      <point x="384.9340286254883" y="43.35553741455078" type="line"/>
      <point x="456.01038613240996" y="1.8665507764789808"/>
      <point x="537.3742159999999" y="-20.000000000000025"/>
    </contour>
    <contour>
      <point x="389.00000000000006" y="695.0" type="curve" smooth="yes"/>
      <point x="389" y="762" type="line" smooth="yes"/>
      <point x="389" y="1065"/>
      <point x="474" y="1226"/>
      <point x="625" y="1226" type="curve" smooth="yes"/>
      <point x="677.924204" y="1226.0"/>
      <point x="722.900063499792" y="1205.687564055024"/>
      <point x="758.8967819213867" y="1165.8997650146484" type="curve"/>
      <point x="411.97157287597656" y="460.2372589111328" type="line"/>
      <point x="396.850246207126" y="525.532684839176"/>
      <point x="389.0" y="604.059171"/>
    </contour>
    <contour>
      <point x="860.0000000000001" y="762.0" type="curve"/>
      <point x="860" y="695" type="line"/>
      <point x="860" y="394"/>
      <point x="776" y="229"/>
      <point x="626" y="229" type="curve" smooth="yes"/>
      <point x="577.3025" y="229.0"/>
      <point x="535.36540625" y="246.16103125"/>
      <point x="500.8929901123047" y="279.5194396972656" type="curve"/>
      <point x="841.9922103881836" y="974.2076187133789" type="line"/>
      <point x="853.850808632714" y="913.8904780214581"/>
      <point x="860.0" y="843.0218970000001"/>
    </contour>
  </outline>
</glyph>
<glyph name="ae" format="1">
  <advance width="1492"/>
  <unicode hex="00E6"/>
  <outline>
    <contour>
      <point x="745" y="1291" type="move" name="top"/>
    </contour>
    <contour>
      <point x="1472" y="1600" type="move" name="top_dd"/>
    </contour>
    <contour>
      <point x="1472" y="1291" type="move" name="top0315"/>
    </contour>
    <contour>
      <point x="1408" y="101" type="curve"/>
      <point x="1336" y="291" type="line"/>
      <point x="1271" y="252"/>
      <point x="1211" y="215"/>
      <point x="1094" y="215" type="curve" smooth="yes"/>
      <point x="962.244928" y="215.0"/>
      <point x="902.155605286912" y="313.540405269504"/>
      <point x="891.6842727661133" y="449" type="curve"/>
      <point x="1432" y="449" type="line"/>
      <point x="1432" y="612" type="line" smooth="yes"/>
      <point x="1432" y="913"/>
      <point x="1287" y="1102"/>
      <point x="1043" y="1102" type="curve" smooth="yes"/>
      <point x="934.376782" y="1102.781462"/>
      <point x="845.753427581291" y="1069.059342554414"/>
      <point x="778.0845413208008" y="1008.8263702392578" type="curve"/>
      <point x="711.952733184064" y="1070.904689537728"/>
      <point x="619.2114399999999" y="1102.0"/>
      <point x="508.0" y="1102.0" type="curve" smooth="yes"/>
      <point x="263" y="1102"/>
      <point x="102" y="960"/>
      <point x="102" y="764" type="curve"/>
      <point x="385" y="745" type="line"/>
      <point x="385" y="812"/>
      <point x="430" y="867"/>
      <point x="505" y="867" type="curve" smooth="yes"/>
      <point x="574" y="867"/>
      <point x="615" y="806"/>
      <point x="615" y="706" type="curve"/>
      <point x="615" y="650" type="line"/>
      <point x="499" y="650" type="line"/>
      <point x="219" y="650"/>
      <point x="72" y="530"/>
      <point x="72" y="320" type="curve" smooth="yes"/>
      <point x="72" y="113"/>
      <point x="193" y="-20"/>
      <point x="416" y="-20" type="curve" smooth="yes"/>
      <point x="570.940269" y="-20.0"/>
      <point x="677.516927911272" y="43.752031480596"/>
      <point x="740.2116622924805" y="116.26368713378906" type="curve"/>
      <point x="815.3940414916" y="30.369202485999963"/>
      <point x="924.08626" y="-20.000000000000043"/>
      <point x="1063.0" y="-20.000000000000057" type="curve"/>
      <point x="1218" y="-20"/>
      <point x="1350" y="46"/>
    </contour>
    <contour>
      <point x="1043.0" y="867.0" type="curve"/>
      <point x="1122" y="867"/>
      <point x="1155" y="789"/>
      <point x="1155" y="672" type="curve"/>
      <point x="1155" y="645" type="line"/>
      <point x="893.0206069946289" y="645" type="line"/>
      <point x="903.673783153547" y="776.05720759083"/>
      <point x="944.305154" y="867.0"/>
    </contour>
    <contour>
      <point x="471.0000000000001" y="194.00000000000003" type="curve" smooth="yes"/>
      <point x="389" y="194"/>
      <point x="354" y="243"/>
      <point x="354" y="316" type="curve" smooth="yes"/>
      <point x="354" y="391"/>
      <point x="407" y="461"/>
      <point x="501" y="461" type="curve"/>
      <point x="615" y="461" type="line"/>
      <point x="615" y="261.1862335205078" type="line"/>
      <point x="575.3066464383361" y="223.63052707904"/>
      <point x="518.0502880000001" y="194.0"/>
    </contour>
  </outline>
</glyph>
<glyph name="eth" format="1">
  <advance width="1029"/>
  <unicode hex="00F0"/>
  <outline>
    <contour>
      <point x="960" y="579" type="curve"/>
      <point x="960" y="651" type="line"/>
      <point x="960.0" y="920.4826740000001"/>
      <point x="874.246914715812" y="1144.8478710734762"/>
      <point x="733.60888671875" y="1308.2506256103516" type="curve"/>
      <point x="850" y="1394" type="line"/>
      <point x="778" y="1508" type="line"/>
      <point x="636.5145950317383" y="1404.2632446289062" type="line"/>
      <point x="536.283506503662" y="1488.517596621512"/>
      <point x="417.703035" y="1548.332246"/>
      <point x="288.0" y="1580.0" type="curve"/>
      <point x="199" y="1354" type="line"/>
      <point x="274.100344" y="1330.104436"/>
      <point x="348.622852298656" y="1293.68909847088"/>
      <point x="415.6934509277344" y="1242.3577194213867" type="curve"/>
      <point x="287" y="1148" type="line"/>
      <point x="360" y="1033" type="line"/>
      <point x="515.3521041870117" y="1147.4532852172852" type="line"/>
      <point x="569.9645024903283" y="1082.6613955553687"/>
      <point x="614.4511931153164" y="1003.1162449761102"/>
      <point x="642.829475402832" y="906.7379150390625" type="curve"/>
      <point x="591.093184799547" y="944.474173251437"/>
      <point x="529.04619" y="966.0"/>
      <point x="460.0" y="966.0" type="curve"/>
      <point x="218" y="966"/>
      <point x="76" y="767"/>
      <point x="76" y="468" type="curve"/>
      <point x="76" y="196"/>
      <point x="248" y="-20"/>
      <point x="506" y="-20" type="curve" smooth="yes"/>
      <point x="767" y="-20"/>
      <point x="960" y="223"/>
    </contour>
    <contour>
      <point x="359" y="468" type="curve"/>
      <point x="359" y="640"/>
      <point x="417" y="745"/>
      <point x="525" y="745" type="curve"/>
      <point x="598.321374" y="745.0"/>
      <point x="648.86459440104" y="711.592041388192"/>
      <point x="676.8635711669922" y="670.239631652832" type="curve"/>
      <point x="676.954317109716" y="664.5627919705099"/>
      <point x="677.0" y="658.8017209999999"/>
      <point x="677.0" y="652.9999999999999" type="curve" smooth="yes"/>
      <point x="677" y="549" type="line" smooth="yes"/>
      <point x="677" y="358"/>
      <point x="622" y="215"/>
      <point x="510" y="215" type="curve" smooth="yes"/>
      <point x="415" y="215"/>
      <point x="359" y="329"/>
    </contour>
  </outline>
</glyph>
<glyph name="oslash" format="1">
  <advance width="1017"/>
  <unicode hex="00F8"/>
  <outline>
    <contour>
      <point x="478" y="1285" type="move" name="top"/>
    </contour>
    <contour>
      <point x="997" y="1600" type="move" name="top_dd"/>
    </contour>
    <contour>
      <point x="997" y="1285" type="move" name="top0315"/>
    </contour>
    <contour>
      <point x="510.0000000000001" y="-19.999999999999893" type="curve" smooth="yes"/>
      <point x="792" y="-20"/>
      <point x="946" y="215"/>
      <point x="946" y="530" type="curve"/>
      <point x="946" y="551" type="line"/>
      <point x="946.0" y="743.857175"/>
      <point x="888.27403323615" y="907.101678738025"/>
      <point x="778.3299026489258" y="1004.6930084228516" type="curve"/>
      <point x="865" y="1216" type="line"/>
      <point x="714" y="1216" type="line"/>
      <point x="656.9952087402344" y="1077.0188446044922" type="line"/>
      <point x="612.232594732" y="1093.3055325904"/>
      <point x="562.5109600000001" y="1102.0"/>
      <point x="508.0" y="1102.0" type="curve" smooth="yes"/>
      <point x="226" y="1102"/>
      <point x="72" y="866"/>
      <point x="72" y="551" type="curve"/>
      <point x="72" y="530" type="line"/>
      <point x="72.0" y="334.08669499999996"/>
      <point x="131.569982904586" y="169.11883566471997"/>
      <point x="244.9360580444336" y="72.39347839355469" type="curve"/>
      <point x="157" y="-142" type="line"/>
      <point x="308" y="-142" type="line"/>
      <point x="367.3301696777344" y="2.6505813598632812" type="line"/>
      <point x="410.43767305908" y="-12.134728854739878"/>
      <point x="458.043336" y="-19.999999999999886"/>
    </contour>
    <contour>
      <point x="355.0" y="530.0" type="curve"/>
      <point x="355" y="551" type="line"/>
      <point x="355" y="722"/>
      <point x="390" y="867"/>
      <point x="508" y="867" type="curve" smooth="yes"/>
      <point x="529.83687" y="867.0"/>
      <point x="548.8402003817" y="862.2774339695"/>
      <point x="565.3214340209961" y="853.5125732421875" type="curve"/>
      <point x="367.9505386352539" y="372.31029510498047" type="line"/>
      <point x="358.686169747826" y="418.551136505115"/>
      <point x="355.0" y="472.378275"/>
    </contour>
    <contour>
      <point x="662.9999999999999" y="551.0000000000001" type="curve"/>
      <point x="663" y="530" type="line"/>
      <point x="663" y="355"/>
      <point x="628" y="215"/>
      <point x="510" y="215" type="curve" smooth="yes"/>
      <point x="490.742487" y="215.0"/>
      <point x="473.688655934583" y="218.54615483726"/>
      <point x="458.6248779296875" y="225.2326431274414" type="curve"/>
      <point x="652.0183868408203" y="696.7378311157227" type="line"/>
      <point x="659.840032203086" y="652.8460160376541"/>
      <point x="663.0" y="603.1312310000001"/>
    </contour>
  </outline>
</glyph>
<glyph name="thorn" format="1">
  <advance width="1022"/>
  <unicode hex="00FE"/>
  <outline>
    <contour>
      <point x="593.0" y="-20.000000000000014" type="curve" smooth="yes"/>
      <point x="824" y="-20"/>
      <point x="948" y="217"/>
      <point x="948" y="532" type="curve" smooth="yes"/>
      <point x="948" y="553" type="line"/>
      <point x="948" y="882"/>
      <point x="825" y="1102"/>
      <point x="591" y="1102" type="curve" smooth="yes"/>
      <point x="506.229347" y="1102.0"/>
      <point x="440.14589002061405" y="1070.064418740891"/>
      <point x="389" y="1013.5245666503906" type="curve"/>
      <point x="389" y="1536" type="line"/>
      <point x="105" y="1536" type="line"/>
      <point x="105" y="-416" type="line"/>
      <point x="389" y="-416" type="line"/>
      <point x="389" y="71.62358093261719" type="line"/>
      <point x="440.422138950984" y="13.68224996605295"/>
      <point x="507.046964" y="-20.000000000000036"/>
    </contour>
    <contour>
      <point x="515.0" y="866.0" type="curve" smooth="yes"/>
      <point x="626" y="866"/>
      <point x="666" y="731"/>
      <point x="666" y="553" type="curve" smooth="yes"/>
      <point x="666" y="532" type="line"/>
      <point x="666" y="358"/>
      <point x="629" y="215"/>
      <point x="517" y="215" type="curve" smooth="yes"/>
      <point x="453.65956" y="215.0"/>
      <point x="413.443907581227" y="245.368696944021"/>
      <point x="389" y="295.96571350097656" type="curve"/>
      <point x="389" y="783.924560546875" type="line"/>
      <point x="414.359157603385" y="837.0423636871"/>
      <point x="455.26834699999995" y="866.0"/>
    </contour>
  </outline>
</glyph>
<glyph name="Aogonek" format="1">
  <advance width="1224"/>
  <unicode hex="0104"/>
  <outline>
    <contour>
      <point x="615" y="1600" type="move" name="parent_top"/>
    </contour>
    <contour>
      <point x="616" y="7" type="move" name="bottom"/>
    </contour>
    <contour>
      <point x="1204" y="1600" type="move" name="top_dd"/>
    </contour>
    <contour>
      <point x="1204" y="-407" type="move" name="bottom_dd"/>
    </contour>
    <contour>
      <point x="1204" y="1600" type="move" name="top0315"/>
    </contour>
    <contour>
      <point x="615" y="1600" type="move" name="top"/>
    </contour>
    <contour>
      <point x="22" y="0" type="line"/>
      <point x="334" y="0" type="line"/>
      <point x="411.9346160888672" y="298" type="line"/>
      <point x="812.8155899047852" y="298" type="line"/>
      <point x="889.179817199707" y="6.9376373291015625" type="line"/>
      <point x="806.287284729515" y="-58.849224405387"/>
      <point x="785.0" y="-135.01229999999998"/>
      <point x="785.0" y="-212.99999999999997" type="curve" smooth="yes"/>
      <point x="785" y="-350"/>
      <point x="877" y="-422"/>
      <point x="989" y="-422" type="curve" smooth="yes"/>
      <point x="1060" y="-422"/>
      <point x="1105" y="-398"/>
      <point x="1134" y="-378" type="curve"/>
      <point x="1107" y="-220" type="line"/>
      <point x="1093" y="-229"/>
      <point x="1074" y="-240"/>
      <point x="1045" y="-240" type="curve" smooth="yes"/>
      <point x="1009" y="-240"/>
      <point x="995" y="-213"/>
      <point x="995" y="-176" type="curve" smooth="yes"/>
      <point x="995" y="-105"/>
      <point x="1034" y="-56"/>
      <point x="1118" y="0" type="curve"/>
      <point x="1204" y="0" type="line"/>
      <point x="746" y="1456" type="line"/>
      <point x="477" y="1456" type="line"/>
    </contour>
    <contour>
      <point x="476.00838470458984" y="543" type="line"/>
      <point x="612.0543975830078" y="1063.2015991210938" type="line"/>
      <point x="748.5364608764648" y="543" type="line"/>
    </contour>
  </outline>
</glyph>
<glyph name="aogonek" format="1">
  <advance width="965"/>
  <unicode hex="0105"/>
  <outline>
    <contour>
      <point x="478" y="1290" type="move" name="parent_top"/>
    </contour>
    <contour>
      <point x="414" y="17" type="move" name="bottom"/>
    </contour>
    <contour>
      <point x="945" y="1600" type="move" name="top_dd"/>
    </contour>
    <contour>
      <point x="945" y="-407" type="move" name="bottom_dd"/>
    </contour>
    <contour>
      <point x="945" y="1290" type="move" name="top0315"/>
    </contour>
    <contour>
      <point x="478" y="1290" type="move" name="top"/>
    </contour>
    <contour>
      <point x="869" y="-378" type="curve"/>
      <point x="842" y="-220" type="line"/>
      <point x="828" y="-229"/>
      <point x="809" y="-240"/>
      <point x="780" y="-240" type="curve" smooth="yes"/>
      <point x="744" y="-240"/>
      <point x="730" y="-213"/>
      <point x="730" y="-176" type="curve" smooth="yes"/>
      <point x="730" y="-105"/>
      <point x="769" y="-56"/>
      <point x="853" y="0" type="curve"/>
      <point x="902" y="0" type="line"/>
      <point x="902" y="17" type="line"/>
      <point x="876" y="72"/>
      <point x="863" y="141"/>
      <point x="863" y="264" type="curve" smooth="yes"/>
      <point x="863" y="744" type="line"/>
      <point x="863" y="998"/>
      <point x="704" y="1102"/>
      <point x="489" y="1102" type="curve" smooth="yes"/>
      <point x="246" y="1102"/>
      <point x="92" y="946"/>
      <point x="92" y="757" type="curve"/>
      <point x="375" y="757" type="line"/>
      <point x="375" y="836"/>
      <point x="408" y="881"/>
      <point x="481" y="881" type="curve" smooth="yes"/>
      <point x="545" y="881"/>
      <point x="579" y="845"/>
      <point x="579" y="748" type="curve"/>
      <point x="579" y="661" type="line"/>
      <point x="503" y="661" type="line"/>
      <point x="212" y="661"/>
      <point x="73" y="523"/>
      <point x="73" y="303" type="curve" smooth="yes"/>
      <point x="73" y="107"/>
      <point x="212" y="-20"/>
      <point x="387" y="-20" type="curve" smooth="yes"/>
      <point x="485.071836" y="-20.0"/>
      <point x="549.886611227907" y="26.130761716128994"/>
      <point x="592.9919891357422" y="84.19310760498047" type="curve"/>
      <point x="598.9087169772607" y="52.479747456936224"/>
      <point x="606.7612464226665" y="23.865483732274743"/>
      <point x="616.6615447998047" y="0.79998779296875" type="curve"/>
      <point x="539.99042638264" y="-63.563865118512"/>
      <point x="520.0" y="-137.42520000000002"/>
      <point x="520.0" y="-213.0" type="curve" smooth="yes"/>
      <point x="520" y="-350"/>
      <point x="612" y="-422"/>
      <point x="724" y="-422" type="curve" smooth="yes"/>
      <point x="795" y="-422"/>
      <point x="840" y="-398"/>
    </contour>
    <contour>
      <point x="450.9999999999999" y="203.00000000000003" type="curve" smooth="yes"/>
      <point x="390" y="203"/>
      <point x="356" y="245"/>
      <point x="356" y="323" type="curve" smooth="yes"/>
      <point x="356" y="417"/>
      <point x="406" y="492"/>
      <point x="512" y="492" type="curve"/>
      <point x="579" y="492" type="line"/>
      <point x="579" y="266.5538101196289" type="line"/>
      <point x="558.1174923166" y="232.93669536680002"/>
      <point x="512.04292" y="203.00000000000003"/>
    </contour>
  </outline>
</glyph>
<glyph name="eogonek" format="1">
  <advance width="981"/>
  <unicode hex="0119"/>
  <outline>
    <contour>
      <point x="473" y="1291" type="move" name="parent_top"/>
    </contour>
    <contour>
      <point x="499" y="0" type="move" name="bottom"/>
    </contour>
    <contour>
      <point x="963" y="1600" type="move" name="top_dd"/>
    </contour>
    <contour>
      <point x="963" y="-407" type="move" name="bottom_dd"/>
    </contour>
    <contour>
      <point x="963" y="1291" type="move" name="top0315"/>
    </contour>
    <contour>
      <point x="473" y="1291" type="move" name="top"/>
    </contour>
    <contour>
      <point x="760" y="-346" type="curve"/>
      <point x="733" y="-188" type="line"/>
      <point x="719" y="-197"/>
      <point x="700" y="-208"/>
      <point x="671" y="-208" type="curve" smooth="yes"/>
      <point x="635" y="-208"/>
      <point x="621" y="-181"/>
      <point x="621" y="-144" type="curve" smooth="yes"/>
      <point x="621.0" y="-84.19165899999999"/>
      <point x="648.673967163999" y="-39.994273836101975"/>
      <point x="707.6083984375" y="5.9161376953125" type="curve"/>
      <point x="801.813466482424" y="36.974920422112014"/>
      <point x="868.755148" y="91.22666200000002"/>
      <point x="907.0" y="142.0" type="curve"/>
      <point x="795" y="313" type="line"/>
      <point x="737" y="252"/>
      <point x="658" y="215"/>
      <point x="559" y="215" type="curve" smooth="yes"/>
      <point x="438.253376" y="215.0"/>
      <point x="369.119626635562" y="274.621768975563"/>
      <point x="361.67215728759766" y="447" type="curve"/>
      <point x="923" y="447" type="line"/>
      <point x="923" y="576" type="line" smooth="yes"/>
      <point x="923" y="922"/>
      <point x="784" y="1102"/>
      <point x="511" y="1102" type="curve" smooth="yes"/>
      <point x="239" y="1102"/>
      <point x="78" y="919"/>
      <point x="78" y="568" type="curve" smooth="yes"/>
      <point x="78" y="479" type="line" smooth="yes"/>
      <point x="78.0" y="194.89709900000003"/>
      <point x="215.58754856694298" y="15.426645113783024"/>
      <point x="461.59791564941406" y="-15.286354064941406" type="curve"/>
      <point x="422.517480821315" y="-67.257812641827"/>
      <point x="411.0" y="-123.6353"/>
      <point x="411.0" y="-181.0" type="curve" smooth="yes"/>
      <point x="411" y="-318"/>
      <point x="503" y="-390"/>
      <point x="615" y="-390" type="curve" smooth="yes"/>
      <point x="686" y="-390"/>
      <point x="731" y="-366"/>
    </contour>
    <contour>
      <point x="509.99999999999994" y="866.9999999999999" type="curve"/>
      <point x="608" y="867"/>
      <point x="643" y="801"/>
      <point x="646" y="670" type="curve"/>
      <point x="646" y="645" type="line"/>
      <point x="362.92579650878906" y="645" type="line"/>
      <point x="371.601597740784" y="800.6736316811521"/>
      <point x="411.02930399999997" y="867.0"/>
    </contour>
  </outline>
</glyph>
<glyph name="hbar" format="1">
  <advance width="1038"/>
  <unicode hex="0127"/>
  <outline>
    <contour>
      <point x="469" y="1673" type="move" name="parent_top"/>
    </contour>
    <contour>
      <point x="512" y="10" type="move" name="bottom"/>
    </contour>
    <contour>
      <point x="1018" y="1600" type="move" name="top_dd"/>
    </contour>
    <contour>
      <point x="1018" y="-407" type="move" name="bottom_dd"/>
    </contour>
    <contour>
      <point x="1018" y="1673" type="move" name="top0315"/>
    </contour>
    <contour>
      <point x="469" y="1673" type="move" name="top"/>
    </contour>
    <contour>
      <point x="530.0" y="866.0" type="curve" smooth="yes"/>
      <point x="612" y="866"/>
      <point x="655" y="823"/>
      <point x="655" y="684" type="curve" smooth="yes"/>
      <point x="655" y="0" type="line"/>
      <point x="938" y="0" type="line"/>
      <point x="938" y="682" type="line" smooth="yes"/>
      <point x="938" y="988"/>
      <point x="814" y="1102"/>
      <point x="636" y="1102" type="curve" smooth="yes"/>
      <point x="544.874328" y="1102.0"/>
      <point x="467.24596730054395" y="1059.797139313792"/>
      <point x="409" y="986.9834671020508" type="curve"/>
      <point x="409" y="1216" type="line"/>
      <point x="599" y="1216" type="line"/>
      <point x="599" y="1399" type="line"/>
      <point x="409" y="1399" type="line"/>
      <point x="409" y="1536" type="line"/>
      <point x="126" y="1536" type="line"/>
      <point x="126" y="1399" type="line"/>
      <point x="-8" y="1399" type="line"/>
      <point x="-8" y="1216" type="line"/>
      <point x="126" y="1216" type="line"/>
      <point x="126" y="0" type="line"/>
      <point x="409" y="0" type="line"/>
      <point x="409" y="793.2372741699219" type="line"/>
      <point x="434.816588907053" y="838.810862163875"/>
      <point x="474.03404" y="866.0"/>
    </contour>
  </outline>
</glyph>
<glyph name="kgreenlandic" format="1">
  <advance width="1077"/>
  <unicode hex="0138"/>
  <outline>
    <contour>
      <point x="529" y="1290" type="move" name="top"/>
    </contour>
    <contour>
      <point x="529" y="10" type="move" name="bottom"/>
    </contour>
    <contour>
      <point x="1057" y="1290" type="move" name="top0315"/>
    </contour>
    <contour>
      <point x="666" y="0" type="line"/>
      <point x="1028" y="0" type="line"/>
      <point x="717.5439071655273" y="575.3139495849609" type="line"/>
      <point x="1022" y="1082" type="line"/>
      <point x="664" y="1082" type="line"/>
      <point x="464" y="677" type="line"/>
      <point x="405" y="677" type="line"/>
      <point x="405" y="1082" type="line"/>
      <point x="122" y="1082" type="line"/>
      <point x="122" y="0" type="line"/>
      <point x="405" y="0" type="line"/>
      <point x="405" y="398" type="line"/>
      <point x="486.3716812133789" y="398" type="line"/>
    </contour>
  </outline>
</glyph>
<glyph name="OE" format="1">
  <advance width="1724"/>
  <unicode hex="0152"/>
  <outline>
    <contour>
      <point x="855" y="1600" type="move" name="top"/>
    </contour>
    <contour>
      <point x="855" y="0" type="move" name="bottom"/>
    </contour>
    <contour>
      <point x="1704" y="1600" type="move" name="top_dd"/>
    </contour>
    <contour>
      <point x="1704" y="-407" type="move" name="bottom_dd"/>
    </contour>
    <contour>
      <point x="1704" y="1600" type="move" name="top0315"/>
    </contour>
    <contour>
      <point x="1611" y="244" type="line"/>
      <point x="1069" y="244" type="line"/>
      <point x="1069" y="630" type="line"/>
      <point x="1527" y="630" type="line"/>
      <point x="1527" y="867" type="line"/>
      <point x="1069" y="867" type="line"/>
      <point x="1069" y="1211" type="line"/>
      <point x="1609" y="1211" type="line"/>
      <point x="1609" y="1456" type="line"/>
      <point x="857" y="1456" type="line"/>
      <point x="785" y="1467"/>
      <point x="703" y="1476"/>
      <point x="621" y="1476" type="curve" smooth="yes"/>
      <point x="310" y="1476"/>
      <point x="99" y="1233"/>
      <point x="99" y="880" type="curve"/>
      <point x="99" y="576" type="line"/>
      <point x="99" y="223"/>
      <point x="311" y="-20"/>
      <point x="622" y="-20" type="curve" smooth="yes"/>
      <point x="705" y="-20"/>
      <point x="785" y="-10"/>
      <point x="857" y="0" type="curve"/>
      <point x="1611" y="0" type="line"/>
    </contour>
    <contour>
      <point x="381" y="576" type="curve"/>
      <point x="381" y="882" type="line"/>
      <point x="381" y="1122"/>
      <point x="473" y="1241"/>
      <point x="621" y="1241" type="curve" smooth="yes"/>
      <point x="674.123364" y="1241.0"/>
      <point x="726.046859036277" y="1236.200524145108"/>
      <point x="775" y="1228.875389099121" type="curve"/>
      <point x="775" y="226.59964752197266" type="line"/>
      <point x="726.71453899625" y="219.365553506875"/>
      <point x="675.547875" y="215.0"/>
      <point x="622.0000000000001" y="215.0" type="curve" smooth="yes"/>
      <point x="474" y="215"/>
      <point x="381" y="336"/>
    </contour>
  </outline>
</glyph>
<glyph name="oe" format="1">
  <advance width="1580"/>
  <unicode hex="0153"/>
  <outline>
    <contour>
      <point x="792" y="1290" type="move" name="top"/>
    </contour>
    <contour>
      <point x="792" y="-8" type="move" name="bottom"/>
    </contour>
    <contour>
      <point x="1560" y="1600" type="move" name="top_dd"/>
    </contour>
    <contour>
      <point x="1560" y="-407" type="move" name="bottom_dd"/>
    </contour>
    <contour>
      <point x="1560" y="1290" type="move" name="top0315"/>
    </contour>
    <contour>
      <point x="1477" y="104" type="curve"/>
      <point x="1402" y="292" type="line"/>
      <point x="1331" y="249"/>
      <point x="1273" y="215"/>
      <point x="1156" y="215" type="curve" smooth="yes"/>
      <point x="1037.711688" y="215.0"/>
      <point x="982.2124306459871" y="318.639764897593"/>
      <point x="969.7630157470703" y="449" type="curve"/>
      <point x="1495" y="449" type="line"/>
      <point x="1495" y="613" type="line" smooth="yes"/>
      <point x="1495" y="910"/>
      <point x="1359" y="1102"/>
      <point x="1100" y="1102" type="curve" smooth="yes"/>
      <point x="983.789505" y="1102.88373"/>
      <point x="889.05592460475" y="1056.5182478695501"/>
      <point x="819.5090484619141" y="977.2154541015625" type="curve"/>
      <point x="747.282845152252" y="1055.8872111509959"/>
      <point x="647.537372" y="1101.9999999999998"/>
      <point x="521.9999999999999" y="1102.0" type="curve" smooth="yes"/>
      <point x="240" y="1102"/>
      <point x="88" y="866"/>
      <point x="88" y="551" type="curve"/>
      <point x="88" y="530" type="line"/>
      <point x="88" y="215"/>
      <point x="240" y="-20"/>
      <point x="524" y="-20" type="curve" smooth="yes"/>
      <point x="649.904258" y="-20.0"/>
      <point x="749.89502216507" y="26.84362347083499"/>
      <point x="822.0144500732422" y="106.74642181396484" type="curve"/>
      <point x="896.22993214892" y="27.315210536671017"/>
      <point x="998.8253010000001" y="-19.999999999999964"/>
      <point x="1126.0" y="-19.99999999999997" type="curve"/>
      <point x="1287" y="-20"/>
      <point x="1412" y="41"/>
    </contour>
    <contour>
      <point x="1100.0" y="867.0" type="curve"/>
      <point x="1188" y="867"/>
      <point x="1217" y="788"/>
      <point x="1217" y="673" type="curve"/>
      <point x="1217" y="647" type="line"/>
      <point x="971.0847549438477" y="647" type="line"/>
      <point x="982.45017936" y="773.27946976"/>
      <point x="1019.0788" y="867.0"/>
    </contour>
    <contour>
      <point x="371" y="551" type="line"/>
      <point x="371" y="722"/>
      <point x="404" y="867"/>
      <point x="522" y="867" type="curve" smooth="yes"/>
      <point x="642" y="867"/>
      <point x="675" y="722"/>
      <point x="675" y="551" type="curve"/>
      <point x="675" y="530" type="line"/>
      <point x="675" y="355"/>
      <point x="642" y="215"/>
      <point x="524" y="215" type="curve" smooth="yes"/>
      <point x="403" y="215"/>
      <point x="371" y="355"/>
      <point x="371" y="530" type="curve"/>
    </contour>
  </outline>
</glyph>
<glyph name="Uogonek" format="1">
  <advance width="1170"/>
  <unicode hex="0172"/>
  <outline>
    <contour>
      <point x="579" y="1600" type="move" name="parent_top"/>
    </contour>
    <contour>
      <point x="581" y="0" type="move" name="bottom"/>
    </contour>
    <contour>
      <point x="1150" y="1600" type="move" name="top_dd"/>
    </contour>
    <contour>
      <point x="1150" y="-407" type="move" name="bottom_dd"/>
    </contour>
    <contour>
      <point x="1150" y="1600" type="move" name="top0315"/>
    </contour>
    <contour>
      <point x="579" y="1600" type="move" name="top"/>
    </contour>
    <contour>
      <point x="901" y="-310" type="curve"/>
      <point x="874" y="-152" type="line"/>
      <point x="860" y="-161"/>
      <point x="841" y="-172"/>
      <point x="812" y="-172" type="curve" smooth="yes"/>
      <point x="776" y="-172"/>
      <point x="762" y="-145"/>
      <point x="762" y="-108" type="curve" smooth="yes"/>
      <point x="762.0" y="-54.799487"/>
      <point x="783.896744446551" y="-13.950983687798"/>
      <point x="830.2143936157227" y="26.734886169433594" type="curve"/>
      <point x="974.4510766462" y="92.240790737031"/>
      <point x="1065.0" y="229.572306"/>
      <point x="1065.0" y="457.0" type="curve"/>
      <point x="1065" y="1456" type="line"/>
      <point x="770" y="1456" type="line"/>
      <point x="770" y="457" type="line" smooth="yes"/>
      <point x="770" y="266"/>
      <point x="707" y="224"/>
      <point x="586" y="224" type="curve" smooth="yes"/>
      <point x="466" y="224"/>
      <point x="401" y="266"/>
      <point x="401" y="457" type="curve" smooth="yes"/>
      <point x="401" y="1456" type="line"/>
      <point x="106" y="1456" type="line"/>
      <point x="106" y="457" type="line"/>
      <point x="106.0" y="122.299556"/>
      <point x="300.15311673551196" y="-17.267199967843993"/>
      <point x="577.7651901245117" y="-19.95661163330078" type="curve"/>
      <point x="558.38217259694" y="-60.142643365451995"/>
      <point x="552.0" y="-102.2978"/>
      <point x="552.0" y="-145.0" type="curve" smooth="yes"/>
      <point x="552" y="-282"/>
      <point x="644" y="-354"/>
      <point x="756" y="-354" type="curve" smooth="yes"/>
      <point x="827" y="-354"/>
      <point x="872" y="-330"/>
    </contour>
  </outline>
</glyph>
<glyph name="uogonek" format="1">
  <advance width="1008"/>
  <unicode hex="0173"/>
  <outline>
    <contour>
      <point x="500" y="1290" type="move" name="parent_top"/>
    </contour>
    <contour>
      <point x="988" y="1600" type="move" name="top_dd"/>
    </contour>
    <contour>
      <point x="988" y="-407" type="move" name="bottom_dd"/>
    </contour>
    <contour>
      <point x="988" y="1290" type="move" name="top0315"/>
    </contour>
    <contour>
      <point x="502" y="0" type="move" name="bottom"/>
    </contour>
    <contour>
      <point x="500" y="1290" type="move" name="top"/>
    </contour>
    <contour>
      <point x="893" y="-378" type="curve"/>
      <point x="866" y="-220" type="line"/>
      <point x="852" y="-229"/>
      <point x="833" y="-240"/>
      <point x="804" y="-240" type="curve" smooth="yes"/>
      <point x="768" y="-240"/>
      <point x="754" y="-213"/>
      <point x="754" y="-176" type="curve" smooth="yes"/>
      <point x="754" y="-105"/>
      <point x="793" y="-56"/>
      <point x="877" y="0" type="curve"/>
      <point x="909" y="0" type="line"/>
      <point x="909" y="1082" type="line"/>
      <point x="625" y="1082" type="line"/>
      <point x="625" y="301.3906784057617" type="line"/>
      <point x="598.4336805019899" y="248.875706564146"/>
      <point x="553.7993559999999" y="216.99999999999997"/>
      <point x="483.9999999999999" y="216.99999999999997" type="curve" smooth="yes"/>
      <point x="423" y="217"/>
      <point x="380" y="262"/>
      <point x="380" y="380" type="curve"/>
      <point x="380" y="1082" type="line"/>
      <point x="97" y="1082" type="line"/>
      <point x="97" y="382" type="line"/>
      <point x="97" y="96"/>
      <point x="220" y="-20"/>
      <point x="399" y="-20" type="curve" smooth="yes"/>
      <point x="501.62321000000003" y="-20.0"/>
      <point x="580.534203469125" y="24.125342066150004"/>
      <point x="636.1073989868164" y="99.5597915649414" type="curve"/>
      <point x="642.8198165893555" y="2.6027069091796875" type="line"/>
      <point x="564.364753838835" y="-62.187350329042985"/>
      <point x="544.0" y="-136.72089999999997"/>
      <point x="544.0" y="-212.99999999999997" type="curve" smooth="yes"/>
      <point x="544" y="-350"/>
      <point x="636" y="-422"/>
      <point x="748" y="-422" type="curve" smooth="yes"/>
      <point x="819" y="-422"/>
      <point x="864" y="-398"/>
    </contour>
  </outline>
</glyph>
<glyph name="Bhook" format="1">
  <advance width="1428"/>
  <unicode hex="0181"/>
  <outline>
    <contour>
      <point x="54" y="1085" type="curve" smooth="yes"/>
      <point x="54" y="1036"/>
      <point x="58" y="989"/>
      <point x="68" y="940" type="curve"/>
      <point x="302" y="940" type="line"/>
      <point x="298" y="970"/>
      <point x="296" y="998"/>
      <point x="296" y="1027" type="curve" smooth="yes"/>
      <point x="296.0" y="1119.251318"/>
      <point x="310.447101074135" y="1207.650075713564"/>
      <point x="397" y="1210.873893737793" type="curve"/>
      <point x="397" y="0" type="line"/>
      <point x="879" y="0" type="line"/>
      <point x="1174" y="0"/>
      <point x="1334" y="146"/>
      <point x="1334" y="429" type="curve" smooth="yes"/>
      <point x="1334.0" y="569.598132"/>
      <point x="1278.539944499837" y="706.855296801195"/>
      <point x="1129.3854675292969" y="749.5511322021484" type="curve"/>
      <point x="1256.830156470568" y="806.6914716539841"/>
      <point x="1312.0" y="925.355166"/>
      <point x="1312.0" y="1057.0" type="curve"/>
      <point x="1312" y="1329"/>
      <point x="1139" y="1456"/>
      <point x="847" y="1456" type="curve"/>
      <point x="397" y="1456" type="line"/>
      <point x="397" y="1455.9722213745117" type="line"/>
      <point x="177" y="1456"/>
      <point x="54" y="1320"/>
    </contour>
    <contour>
      <point x="692" y="1211" type="line"/>
      <point x="847" y="1211" type="line"/>
      <point x="967" y="1211"/>
      <point x="1017" y="1157"/>
      <point x="1017" y="1026" type="curve"/>
      <point x="1017" y="910"/>
      <point x="962" y="847"/>
      <point x="844" y="847" type="curve"/>
      <point x="692" y="847" type="line"/>
    </contour>
    <contour>
      <point x="1040" y="432" type="curve" smooth="yes"/>
      <point x="1040" y="324"/>
      <point x="994" y="244"/>
      <point x="879" y="244" type="curve" smooth="yes"/>
      <point x="692" y="244" type="line"/>
      <point x="692" y="634" type="line"/>
      <point x="890" y="634" type="line" smooth="yes"/>
      <point x="1000" y="634"/>
      <point x="1040" y="556"/>
    </contour>
  </outline>
</glyph>
<glyph name="btopbar" format="1">
  <advance width="1014"/>
  <unicode hex="0183"/>
  <outline>
    <contour>
      <point x="104" y="0" type="line"/>
      <point x="357" y="0" type="line"/>
      <point x="368.15245056152344" y="96.91096496582031" type="line"/>
      <point x="421.655853804538" y="23.13569192943403"/>
      <point x="494.108428" y="-19.99999999999998"/>
      <point x="592.0" y="-19.999999999999986" type="curve" smooth="yes"/>
      <point x="832" y="-20"/>
      <point x="947" y="207"/>
      <point x="947" y="531" type="curve" smooth="yes"/>
      <point x="947" y="552" type="line"/>
      <point x="947" y="872"/>
      <point x="833" y="1102"/>
      <point x="590" y="1102" type="curve" smooth="yes"/>
      <point x="503.790394" y="1102.0"/>
      <point x="437.19624878262397" y="1068.10563761826"/>
      <point x="386" y="1009.1883850097656" type="curve"/>
      <point x="386" y="1353" type="line"/>
      <point x="764" y="1353" type="line"/>
      <point x="764" y="1536" type="line"/>
      <point x="104" y="1536" type="line"/>
    </contour>
    <contour>
      <point x="516.0" y="866.0" type="curve" smooth="yes"/>
      <point x="641" y="866"/>
      <point x="665" y="722"/>
      <point x="665" y="552" type="curve" smooth="yes"/>
      <point x="665" y="531" type="line"/>
      <point x="665" y="349"/>
      <point x="642" y="216"/>
      <point x="518" y="216" type="curve" smooth="yes"/>
      <point x="452.34572000000003" y="216.0"/>
      <point x="410.63857601288004" y="248.029294417227"/>
      <point x="386" y="303.27477264404297" type="curve"/>
      <point x="386" y="773.0995101928711" type="line"/>
      <point x="411.16846846106" y="831.719727733332"/>
      <point x="453.172002" y="866.0"/>
    </contour>
  </outline>
</glyph>
<glyph name="tonesix" format="1">
  <advance width="1144"/>
  <unicode hex="0185"/>
  <outline>
    <contour>
      <point x="1074" y="531" type="curve" smooth="yes"/>
      <point x="1074" y="552" type="line"/>
      <point x="1074" y="872"/>
      <point x="960" y="1102"/>
      <point x="717" y="1102" type="curve" smooth="yes"/>
      <point x="630.657768" y="1102.0"/>
      <point x="564.1059980977681" y="1068.29885077554"/>
      <point x="513" y="1009.6872253417969" type="curve"/>
      <point x="513" y="1536" type="line"/>
      <point x="230" y="1536" type="line"/>
      <point x="64" y="1361" type="line"/>
      <point x="64" y="1221" type="line"/>
      <point x="230" y="1047" type="line"/>
      <point x="230" y="0" type="line"/>
      <point x="484" y="0" type="line"/>
      <point x="495.15245056152344" y="96.91096496582031" type="line"/>
      <point x="548.6558538045381" y="23.13569192943403"/>
      <point x="621.1084280000001" y="-19.99999999999998"/>
      <point x="719.0" y="-19.999999999999986" type="curve" smooth="yes"/>
      <point x="959" y="-20"/>
      <point x="1074" y="207"/>
    </contour>
    <contour>
      <point x="643.0000000000001" y="866.0" type="curve" smooth="yes"/>
      <point x="768" y="866"/>
      <point x="792" y="722"/>
      <point x="792" y="552" type="curve" smooth="yes"/>
      <point x="792" y="531" type="line"/>
      <point x="792" y="349"/>
      <point x="769" y="216"/>
      <point x="645" y="216" type="curve" smooth="yes"/>
      <point x="579.34572" y="216.0"/>
      <point x="537.63857601288" y="248.029294417227"/>
      <point x="513" y="303.27477264404297" type="curve"/>
      <point x="513" y="773.0995101928711" type="line"/>
      <point x="538.16846846106" y="831.719727733332"/>
      <point x="580.172002" y="866.0"/>
    </contour>
  </outline>
</glyph>
<glyph name="Chook" format="1">
  <advance width="1257"/>
  <unicode hex="0187"/>
  <outline>
    <contour>
      <point x="1270" y="1329" type="curve" smooth="yes"/>
      <point x="1293" y="1329"/>
      <point x="1314" y="1325"/>
      <point x="1340" y="1320" type="curve"/>
      <point x="1338" y="1561" type="line"/>
      <point x="1295" y="1573"/>
      <point x="1254" y="1578"/>
      <point x="1211" y="1578" type="curve" smooth="yes"/>
      <point x="1072.056708" y="1578.0"/>
      <point x="965.8680857193281" y="1513.400512497992"/>
      <point x="911.4582061767578" y="1391.2505111694336" type="curve"/>
      <point x="833.1915199534241" y="1447.6314957399359"/>
      <point x="731.0454520000001" y="1476.9999999999998"/>
      <point x="604.0" y="1476.9999999999998" type="curve" smooth="yes"/>
      <point x="287" y="1477"/>
      <point x="91" y="1257"/>
      <point x="91" y="851" type="curve"/>
      <point x="91" y="604" type="line"/>
      <point x="91" y="198"/>
      <point x="277" y="-20"/>
      <point x="600" y="-20" type="curve" smooth="yes"/>
      <point x="912" y="-20"/>
      <point x="1091" y="156"/>
      <point x="1104" y="486" type="curve"/>
      <point x="810" y="486" type="line"/>
      <point x="803" y="276"/>
      <point x="745" y="224"/>
      <point x="600" y="224" type="curve" smooth="yes"/>
      <point x="433" y="224"/>
      <point x="385" y="330"/>
      <point x="385" y="604" type="curve" smooth="yes"/>
      <point x="385" y="853" type="line" smooth="yes"/>
      <point x="385" y="1133"/>
      <point x="449" y="1233"/>
      <point x="604" y="1233" type="curve" smooth="yes"/>
      <point x="757" y="1233"/>
      <point x="805" y="1170"/>
      <point x="812" y="962" type="curve"/>
      <point x="1106" y="962" type="line"/>
      <point x="1106" y="1175" type="line" smooth="yes"/>
      <point x="1106" y="1305"/>
      <point x="1200" y="1329"/>
    </contour>
  </outline>
</glyph>
<glyph name="chook" format="1">
  <advance width="1067"/>
  <unicode hex="0188"/>
  <outline>
    <contour>
      <point x="885" y="860" type="line" smooth="yes"/>
      <point x="885" y="971"/>
      <point x="964" y="1000"/>
      <point x="1020" y="1000" type="curve" smooth="yes"/>
      <point x="1039" y="1000"/>
      <point x="1056" y="997"/>
      <point x="1078" y="993" type="curve"/>
      <point x="1076" y="1189" type="line"/>
      <point x="1040" y="1200"/>
      <point x="1006" y="1204"/>
      <point x="970" y="1204" type="curve" smooth="yes"/>
      <point x="852.974782" y="1204.0"/>
      <point x="766.860391562824" y="1146.8618035959921"/>
      <point x="724.1568756103516" y="1039.6083450317383" type="curve"/>
      <point x="662.9386179899999" y="1080.8959141300002"/>
      <point x="586.2837" y="1102.0000000000002"/>
      <point x="497.99999999999994" y="1102.0" type="curve" smooth="yes"/>
      <point x="209" y="1102"/>
      <point x="70" y="910"/>
      <point x="70" y="580" type="curve" smooth="yes"/>
      <point x="70" y="502" type="line" smooth="yes"/>
      <point x="70" y="171"/>
      <point x="209" y="-20"/>
      <point x="499" y="-20" type="curve"/>
      <point x="716" y="-20"/>
      <point x="883" y="129"/>
      <point x="884" y="375" type="curve"/>
      <point x="619" y="375" type="line"/>
      <point x="619" y="260"/>
      <point x="572" y="215"/>
      <point x="494" y="215" type="curve" smooth="yes"/>
      <point x="367" y="215"/>
      <point x="353" y="311"/>
      <point x="353" y="502" type="curve" smooth="yes"/>
      <point x="353" y="580" type="line" smooth="yes"/>
      <point x="353" y="765"/>
      <point x="368" y="867"/>
      <point x="493" y="867" type="curve"/>
      <point x="582" y="867"/>
      <point x="618" y="799"/>
      <point x="619" y="678" type="curve"/>
      <point x="885" y="678" type="line"/>
    </contour>
  </outline>
</glyph>
<glyph name="Gamma1" format="1">
  <advance width="1212"/>
  <unicode hex="0194"/>
  <outline>
    <contour>
      <point x="932" y="-159" type="curve" smooth="yes"/>
      <point x="932.0" y="-76.00992"/>
      <point x="839.3316168704" y="116.83703354880001"/>
      <point x="739.9194107055664" y="359.45865631103516" type="curve"/>
      <point x="1170" y="1456" type="line"/>
      <point x="830" y="1456" type="line"/>
      <point x="605.8603515625" y="750.4285736083984" type="line"/>
      <point x="381" y="1456" type="line"/>
      <point x="42" y="1456" type="line"/>
      <point x="472.3449172973633" y="360.87464141845703" type="line"/>
      <point x="370.863047108048" y="116.995168825376"/>
      <point x="271.0" y="-75.81446399999999"/>
      <point x="271.00000000000006" y="-158.99999999999997" type="curve" smooth="yes"/>
      <point x="271" y="-354"/>
      <point x="426" y="-437"/>
      <point x="606" y="-437" type="curve" smooth="yes"/>
      <point x="785" y="-437"/>
      <point x="932" y="-354"/>
    </contour>
    <contour>
      <point x="564" y="-148" type="curve" smooth="yes"/>
      <point x="564.0" y="-106.521499"/>
      <point x="577.238427556225" y="-57.099941466265"/>
      <point x="606.4126205444336" y="20.295936584472656" type="curve"/>
      <point x="635.7015581610281" y="-57.828779374359996"/>
      <point x="648.0000000000001" y="-105.587964"/>
      <point x="648.0" y="-148.0" type="curve" smooth="yes"/>
      <point x="648" y="-188"/>
      <point x="643" y="-223"/>
      <point x="606" y="-223" type="curve" smooth="yes"/>
      <point x="570" y="-223"/>
      <point x="564" y="-189"/>
    </contour>
  </outline>
</glyph>
<glyph name="hv" format="1">
  <advance width="1501"/>
  <unicode hex="0195"/>
  <outline>
    <contour>
      <point x="606" y="1102" type="curve" smooth="yes"/>
      <point x="514.874328" y="1102.0"/>
      <point x="437.24596730054395" y="1059.797139313792"/>
      <point x="379" y="986.9834671020508" type="curve"/>
      <point x="379" y="1536" type="line"/>
      <point x="96" y="1536" type="line"/>
      <point x="96" y="0" type="line"/>
      <point x="379" y="0" type="line"/>
      <point x="379" y="793.2372741699219" type="line"/>
      <point x="404.816588907053" y="838.810862163875"/>
      <point x="444.03404" y="866.0"/>
      <point x="500.00000000000006" y="866.0" type="curve" smooth="yes"/>
      <point x="612" y="866"/>
      <point x="625" y="787"/>
      <point x="625" y="671" type="curve" smooth="yes"/>
      <point x="625" y="427" type="line" smooth="yes"/>
      <point x="625" y="110"/>
      <point x="748" y="-20"/>
      <point x="1013" y="-20" type="curve" smooth="yes"/>
      <point x="1279" y="-20"/>
      <point x="1401" y="110"/>
      <point x="1401" y="427" type="curve" smooth="yes"/>
      <point x="1401" y="1082" type="line"/>
      <point x="1118" y="1082" type="line"/>
      <point x="1118" y="425" type="line" smooth="yes"/>
      <point x="1118" y="274"/>
      <point x="1075" y="217"/>
      <point x="1013" y="217" type="curve" smooth="yes"/>
      <point x="952" y="217"/>
      <point x="908" y="274"/>
      <point x="908" y="425" type="curve" smooth="yes"/>
      <point x="908" y="672" type="line" smooth="yes"/>
      <point x="908" y="899"/>
      <point x="852" y="1102"/>
    </contour>
  </outline>
</glyph>
<glyph name="Khook" format="1">
  <advance width="1133"/>
  <unicode hex="0198"/>
  <outline>
    <contour>
      <point x="794" y="0" type="line"/>
      <point x="1142" y="0" type="line"/>
      <point x="713.8904266357422" y="824.5428695678711" type="line"/>
      <point x="857" y="1090" type="line" smooth="yes"/>
      <point x="903" y="1171"/>
      <point x="929" y="1219"/>
      <point x="969" y="1219" type="curve" smooth="yes"/>
      <point x="991" y="1219"/>
      <point x="998" y="1211"/>
      <point x="1023" y="1195" type="curve"/>
      <point x="1125" y="1415" type="line"/>
      <point x="1064" y="1450"/>
      <point x="1010" y="1477"/>
      <point x="925" y="1477" type="curve" smooth="yes"/>
      <point x="777" y="1477"/>
      <point x="714" y="1369"/>
      <point x="617" y="1210" type="curve" smooth="yes"/>
      <point x="505" y="979" type="line"/>
      <point x="412" y="812" type="line"/>
      <point x="412" y="1456" type="line"/>
      <point x="117" y="1456" type="line"/>
      <point x="117" y="0" type="line"/>
      <point x="412" y="0" type="line"/>
      <point x="412" y="411.1141891479492" type="line"/>
      <point x="529.5513763427734" y="560.7989883422852" type="line"/>
    </contour>
  </outline>
</glyph>
<glyph name="khook" format="1">
  <advance width="980"/>
  <unicode hex="0199"/>
  <outline>
    <contour>
      <point x="522" y="1354" type="curve" smooth="yes"/>
      <point x="540" y="1354"/>
      <point x="558" y="1351"/>
      <point x="579" y="1347" type="curve"/>
      <point x="577" y="1542" type="line"/>
      <point x="542" y="1553"/>
      <point x="480" y="1557"/>
      <point x="444" y="1557" type="curve" smooth="yes"/>
      <point x="221" y="1557"/>
      <point x="103" y="1442"/>
      <point x="103" y="1213" type="curve" smooth="yes"/>
      <point x="103" y="0" type="line"/>
      <point x="386" y="0" type="line"/>
      <point x="386" y="332.8340606689453" type="line"/>
      <point x="462.8463439941406" y="418.7408905029297" type="line"/>
      <point x="660" y="0" type="line"/>
      <point x="984" y="0" type="line"/>
      <point x="640.7188491821289" y="637.3870391845703" type="line"/>
      <point x="955" y="1082" type="line"/>
      <point x="618" y="1082" type="line"/>
      <point x="421" y="758" type="line"/>
      <point x="386" y="706.6931838989258" type="line"/>
      <point x="386" y="1213" type="line" smooth="yes"/>
      <point x="386" y="1325"/>
      <point x="465" y="1354"/>
    </contour>
  </outline>
</glyph>
<glyph name="lambdabar" format="1">
  <advance width="984"/>
  <unicode hex="019B"/>
  <outline>
    <contour>
      <point x="909" y="1603" type="move" name="top0315"/>
    </contour>
    <contour>
      <point x="962" y="-12" type="curve"/>
      <point x="962" y="219" type="line"/>
      <point x="953" y="218"/>
      <point x="947" y="218"/>
      <point x="936" y="218" type="curve" smooth="yes"/>
      <point x="896" y="218"/>
      <point x="873" y="271"/>
      <point x="857" y="327" type="curve" smooth="yes"/>
      <point x="576.6467208862305" y="1149.212547302246" type="line"/>
      <point x="665" y="1183" type="line"/>
      <point x="665" y="1378" type="line"/>
      <point x="517.8264999389648" y="1321.7189254760742" type="line"/>
      <point x="500" y="1374" type="line" smooth="yes"/>
      <point x="463" y="1483"/>
      <point x="388" y="1547"/>
      <point x="268" y="1547" type="curve"/>
      <point x="222" y="1547"/>
      <point x="155" y="1539"/>
      <point x="114" y="1526" type="curve"/>
      <point x="119" y="1308" type="line"/>
      <point x="140" y="1311"/>
      <point x="153" y="1311"/>
      <point x="170" y="1311" type="curve" smooth="yes"/>
      <point x="212.867968" y="1311.0"/>
      <point x="246.24387670016" y="1288.219057680384"/>
      <point x="267.3533477783203" y="1225.934715270996" type="curve"/>
      <point x="176" y="1191" type="line"/>
      <point x="176" y="996" type="line"/>
      <point x="330.37696075439453" y="1055.035774230957" type="line"/>
      <point x="17" y="0" type="line"/>
      <point x="322" y="0" type="line"/>
      <point x="469.27201080322266" y="620.5180435180664" type="line"/>
      <point x="595" y="206" type="line" smooth="yes"/>
      <point x="642" y="62"/>
      <point x="718" y="-19"/>
      <point x="861" y="-19" type="curve" smooth="yes"/>
      <point x="904" y="-19"/>
      <point x="935" y="-17"/>
    </contour>
  </outline>
</glyph>
<glyph name="mcapturn" format="1">
  <advance width="1584"/>
  <unicode hex="019C"/>
  <outline>
    <contour>
      <point x="1208" y="0" type="line"/>
      <point x="1462" y="0" type="line"/>
      <point x="1462" y="1456" type="line"/>
      <point x="1179" y="1456" type="line"/>
      <point x="1179" y="310.45176696777344" type="line"/>
      <point x="1151.557297003584" y="252.422902336192"/>
      <point x="1106.154296" y="217.0"/>
      <point x="1038.0" y="217.0" type="curve" smooth="yes"/>
      <point x="976" y="217"/>
      <point x="933" y="274"/>
      <point x="933" y="425" type="curve"/>
      <point x="933" y="1456" type="line"/>
      <point x="650" y="1456" type="line"/>
      <point x="650" y="427" type="line"/>
      <point x="650.0" y="388.56602"/>
      <point x="651.63498729745" y="353.040173143825"/>
      <point x="654.8072357177734" y="320.3381652832031" type="curve"/>
      <point x="628.20856169528" y="256.466051068507"/>
      <point x="581.938769" y="217.00000000000003"/>
      <point x="509.99999999999994" y="217.0" type="curve" smooth="yes"/>
      <point x="448" y="217"/>
      <point x="405" y="274"/>
      <point x="405" y="425" type="curve" smooth="yes"/>
      <point x="405" y="1456" type="line"/>
      <point x="122" y="1456" type="line"/>
      <point x="122" y="427" type="line" smooth="yes"/>
      <point x="122" y="80"/>
      <point x="240" y="-20"/>
      <point x="425" y="-20" type="curve" smooth="yes"/>
      <point x="548.472674" y="-20.0"/>
      <point x="638.812638420401" y="40.696896540778006"/>
      <point x="696.6076583862305" y="143.1530532836914" type="curve"/>
      <point x="747.996467138444" y="25.825385439339996"/>
      <point x="838.743026" y="-20.000000000000007"/>
      <point x="952.9999999999999" y="-20.0" type="curve" smooth="yes"/>
      <point x="1057.138316" y="-20.0"/>
      <point x="1138.32867157901" y="26.313156485998"/>
      <point x="1195.8087615966797" y="105.51725769042969" type="curve"/>
    </contour>
  </outline>
</glyph>
<glyph name="Ohorn" format="1">
  <advance width="1245"/>
  <unicode hex="01A0"/>
  <outline>
    <contour>
      <point x="610" y="1604" type="move" name="top"/>
    </contour>
    <contour>
      <point x="592" y="0" type="move" name="bottom"/>
    </contour>
    <contour>
      <point x="1225" y="1604" type="move" name="top0315"/>
    </contour>
    <contour>
      <point x="1140" y="695" type="curve"/>
      <point x="1140" y="760" type="line"/>
      <point x="1140.0" y="910.784176"/>
      <point x="1114.62720710048" y="1041.731441187648"/>
      <point x="1068.8560104370117" y="1148.9235534667969" type="curve"/>
      <point x="1195.165880729113" y="1205.84182551948"/>
      <point x="1255.0" y="1351.0660859999998"/>
      <point x="1255.0000000000002" y="1566.0" type="curve"/>
      <point x="1067" y="1566" type="line"/>
      <point x="1067.0" y="1422.70288"/>
      <point x="1046.9092285504" y="1325.4201075136"/>
      <point x="984.2930374145508" y="1292.956672668457" type="curve"/>
      <point x="890.584654453952" y="1411.103720209408"/>
      <point x="759.886728" y="1476.0"/>
      <point x="606.9999999999999" y="1476.0000000000002" type="curve" smooth="yes"/>
      <point x="295" y="1476"/>
      <point x="74" y="1204"/>
      <point x="74" y="760" type="curve"/>
      <point x="74" y="695" type="line"/>
      <point x="74" y="251"/>
      <point x="296" y="-20"/>
      <point x="608" y="-20" type="curve" smooth="yes"/>
      <point x="921" y="-20"/>
      <point x="1140" y="251"/>
    </contour>
    <contour>
      <point x="842" y="695" type="line"/>
      <point x="842" y="394"/>
      <point x="759" y="229"/>
      <point x="608" y="229" type="curve" smooth="yes"/>
      <point x="457" y="229"/>
      <point x="371" y="394"/>
      <point x="371" y="695" type="curve" smooth="yes"/>
      <point x="371" y="762" type="line" smooth="yes"/>
      <point x="371" y="1065"/>
      <point x="456" y="1226"/>
      <point x="607" y="1226" type="curve" smooth="yes"/>
      <point x="756" y="1226"/>
      <point x="842" y="1065"/>
      <point x="842" y="762" type="curve"/>
    </contour>
  </outline>
</glyph>
<glyph name="ohorn" format="1">
  <advance width="1051"/>
  <unicode hex="01A1"/>
  <outline>
    <contour>
      <point x="504" y="1290" type="move" name="top"/>
    </contour>
    <contour>
      <point x="504" y="-10" type="move" name="bottom"/>
    </contour>
    <contour>
      <point x="1031" y="1290" type="move" name="top0315"/>
    </contour>
    <contour>
      <point x="945" y="530" type="curve"/>
      <point x="945" y="551" type="line"/>
      <point x="945.0" y="656.88284"/>
      <point x="927.599938783616" y="753.839674570816"/>
      <point x="893.6732864379883" y="835.8961868286133" type="curve"/>
      <point x="996.1870757664" y="893.3597019056"/>
      <point x="1042.0" y="1014.05496"/>
      <point x="1042.0" y="1183.0" type="curve"/>
      <point x="875" y="1183" type="line"/>
      <point x="875.0" y="1078.534828"/>
      <point x="863.211750298688" y="999.751199992144"/>
      <point x="822.4253845214844" y="957.3290863037109" type="curve"/>
      <point x="748.5686236989" y="1048.0574686484"/>
      <point x="642.25565" y="1101.9999999999998"/>
      <point x="505.9999999999999" y="1102.0" type="curve" smooth="yes"/>
      <point x="225" y="1102"/>
      <point x="70" y="866"/>
      <point x="70" y="551" type="curve"/>
      <point x="70" y="530" type="line"/>
      <point x="70" y="215"/>
      <point x="225" y="-20"/>
      <point x="508" y="-20" type="curve" smooth="yes"/>
      <point x="791" y="-20"/>
      <point x="945" y="215"/>
    </contour>
    <contour>
      <point x="353" y="551" type="line"/>
      <point x="353" y="722"/>
      <point x="388" y="867"/>
      <point x="506" y="867" type="curve" smooth="yes"/>
      <point x="627" y="867"/>
      <point x="662" y="722"/>
      <point x="662" y="551" type="curve"/>
      <point x="662" y="530" type="line"/>
      <point x="662" y="355"/>
      <point x="626" y="215"/>
      <point x="508" y="215" type="curve" smooth="yes"/>
      <point x="388" y="215"/>
      <point x="353" y="355"/>
      <point x="353" y="530" type="curve"/>
    </contour>
  </outline>
</glyph>
<glyph name="OI" format="1">
  <advance width="1621"/>
  <unicode hex="01A2"/>
  <outline>
    <contour>
      <point x="622" y="-20" type="curve" smooth="yes"/>
      <point x="898" y="-20"/>
      <point x="1035" y="104"/>
      <point x="1096" y="186" type="curve"/>
      <point x="1096" y="1049.4492721557617" type="line"/>
      <point x="1220" y="1111" type="line"/>
      <point x="1220" y="-417" type="line"/>
      <point x="1503" y="-417" type="line"/>
      <point x="1503" y="1456" type="line"/>
      <point x="1290" y="1456" type="line"/>
      <point x="1041.0545196533203" y="1332.2467575073242" type="line"/>
      <point x="964.595470377789" y="1403.498158207524"/>
      <point x="834.494332" y="1477.0"/>
      <point x="621.9999999999999" y="1477.0" type="curve" smooth="yes"/>
      <point x="300" y="1477"/>
      <point x="82" y="1221"/>
      <point x="82" y="773" type="curve" smooth="yes"/>
      <point x="82" y="684" type="line" smooth="yes"/>
      <point x="82" y="232"/>
      <point x="301" y="-20"/>
    </contour>
    <contour>
      <point x="637" y="1233" type="curve" smooth="yes"/>
      <point x="737" y="1233"/>
      <point x="779" y="1198"/>
      <point x="813" y="1158" type="curve"/>
      <point x="813" y="299" type="line"/>
      <point x="788" y="267"/>
      <point x="748" y="224"/>
      <point x="639" y="224" type="curve" smooth="yes"/>
      <point x="459" y="224"/>
      <point x="380" y="393"/>
      <point x="380" y="684" type="curve" smooth="yes"/>
      <point x="380" y="773" type="line" smooth="yes"/>
      <point x="380" y="1079"/>
      <point x="461" y="1233"/>
    </contour>
  </outline>
</glyph>
<glyph name="oi" format="1">
  <advance width="1340"/>
  <unicode hex="01A3"/>
  <outline>
    <contour>
      <point x="952" y="748" type="line"/>
      <point x="952" y="-417" type="line"/>
      <point x="1235" y="-417" type="line"/>
      <point x="1235" y="1082" type="line"/>
      <point x="1043" y="1082" type="line"/>
      <point x="802.5977020263672" y="965.0257263183594" type="line"/>
      <point x="736.4657465407" y="1039.04672868075"/>
      <point x="633.697575" y="1102.0"/>
      <point x="498.00000000000006" y="1102.0" type="curve" smooth="yes"/>
      <point x="209" y="1102"/>
      <point x="70" y="861"/>
      <point x="70" y="555" type="curve" smooth="yes"/>
      <point x="70" y="527" type="line" smooth="yes"/>
      <point x="70" y="220"/>
      <point x="209" y="-20"/>
      <point x="499" y="-20" type="curve"/>
      <point x="701" y="-20"/>
      <point x="806" y="77"/>
      <point x="868" y="196" type="curve"/>
      <point x="868" y="708.2318878173828" type="line"/>
    </contour>
    <contour>
      <point x="494" y="215" type="curve" smooth="yes"/>
      <point x="378" y="215"/>
      <point x="353" y="347"/>
      <point x="353" y="527" type="curve" smooth="yes"/>
      <point x="353" y="555" type="line" smooth="yes"/>
      <point x="353" y="717"/>
      <point x="368" y="867"/>
      <point x="493" y="867" type="curve"/>
      <point x="537" y="867"/>
      <point x="566" y="846"/>
      <point x="586" y="811" type="curve"/>
      <point x="586" y="262" type="line"/>
      <point x="566" y="232"/>
      <point x="534" y="215"/>
    </contour>
  </outline>
</glyph>
<glyph name="Phook" format="1">
  <advance width="1446"/>
  <unicode hex="01A4"/>
  <outline>
    <contour>
      <point x="54" y="1085" type="curve" smooth="yes"/>
      <point x="54" y="1036"/>
      <point x="58" y="989"/>
      <point x="68" y="940" type="curve"/>
      <point x="302" y="940" type="line"/>
      <point x="298" y="970"/>
      <point x="296" y="998"/>
      <point x="296" y="1027" type="curve" smooth="yes"/>
      <point x="296.0" y="1119.251318"/>
      <point x="310.447101074135" y="1207.650075713564"/>
      <point x="397" y="1210.873893737793" type="curve"/>
      <point x="397" y="0" type="line"/>
      <point x="692" y="0" type="line"/>
      <point x="692" y="512" type="line"/>
      <point x="894" y="512" type="line"/>
      <point x="1188" y="512"/>
      <point x="1367" y="692"/>
      <point x="1367" y="974" type="curve"/>
      <point x="1367" y="1253"/>
      <point x="1188" y="1456"/>
      <point x="894" y="1456" type="curve"/>
      <point x="397" y="1456" type="line"/>
      <point x="397" y="1455.9722213745117" type="line"/>
      <point x="177" y="1456"/>
      <point x="54" y="1320"/>
    </contour>
    <contour>
      <point x="692" y="1211" type="line"/>
      <point x="894" y="1211" type="line"/>
      <point x="1018" y="1211"/>
      <point x="1069" y="1098"/>
      <point x="1069" y="972" type="curve"/>
      <point x="1069" y="847"/>
      <point x="1018" y="757"/>
      <point x="894" y="757" type="curve"/>
      <point x="692" y="757" type="line"/>
    </contour>
  </outline>
</glyph>
<glyph name="phook" format="1">
  <advance width="1014"/>
  <unicode hex="01A5"/>
  <outline>
    <contour>
      <point x="599.0000000000001" y="-19.999999999999986" type="curve" smooth="yes"/>
      <point x="830" y="-20"/>
      <point x="947" y="168"/>
      <point x="947" y="507" type="curve" smooth="yes"/>
      <point x="947" y="578" type="line"/>
      <point x="947" y="933"/>
      <point x="831" y="1102"/>
      <point x="597" y="1102" type="curve" smooth="yes"/>
      <point x="506.26183" y="1102.0"/>
      <point x="437.431937033612" y="1063.883160282984"/>
      <point x="386" y="997.4859466552734" type="curve"/>
      <point x="386" y="1067" type="line" smooth="yes"/>
      <point x="386" y="1179"/>
      <point x="465" y="1207"/>
      <point x="522" y="1207" type="curve" smooth="yes"/>
      <point x="540" y="1207"/>
      <point x="558" y="1205"/>
      <point x="580" y="1200" type="curve"/>
      <point x="577" y="1396" type="line"/>
      <point x="542" y="1406"/>
      <point x="499" y="1411"/>
      <point x="443" y="1411" type="curve" smooth="yes"/>
      <point x="303" y="1411"/>
      <point x="104" y="1358"/>
      <point x="104" y="1082" type="curve" smooth="yes"/>
      <point x="104" y="-416" type="line"/>
      <point x="386" y="-416" type="line"/>
      <point x="386" y="87.69633483886719" type="line"/>
      <point x="437.6700773645" y="20.096028876436023"/>
      <point x="506.99566400000003" y="-19.99999999999998"/>
    </contour>
    <contour>
      <point x="513.0" y="866.0000000000001" type="curve" smooth="yes"/>
      <point x="624" y="866"/>
      <point x="664" y="784"/>
      <point x="664" y="578" type="curve" smooth="yes"/>
      <point x="664" y="507" type="line"/>
      <point x="664" y="307"/>
      <point x="627" y="215"/>
      <point x="515" y="215" type="curve" smooth="yes"/>
      <point x="450.78812" y="215.0"/>
      <point x="410.341708003483" y="242.201439281095"/>
      <point x="386" y="287.14044189453125" type="curve"/>
      <point x="386" y="791.3641128540039" type="line"/>
      <point x="411.266525" y="839.6226535156251"/>
      <point x="452.43125" y="866.0000000000001"/>
    </contour>
  </outline>
</glyph>
<glyph name="YR" format="1">
  <advance width="1240"/>
  <unicode hex="01A6"/>
  <outline>
    <contour>
      <point x="1238" y="-338" type="line"/>
      <point x="837.4487915039062" y="611.0278015136719" type="line"/>
      <point x="969.7880419879" y="682.0600593934311"/>
      <point x="1049.0" y="805.067393"/>
      <point x="1049.0" y="1016.0" type="curve" smooth="yes"/>
      <point x="1049" y="1303"/>
      <point x="878" y="1456"/>
      <point x="587" y="1456" type="curve" smooth="yes"/>
      <point x="413" y="1456" type="line"/>
      <point x="413" y="1560" type="line"/>
      <point x="119" y="1560" type="line"/>
      <point x="119" y="1456" type="line"/>
      <point x="118" y="1456" type="line"/>
      <point x="118" y="0" type="line"/>
      <point x="413" y="0" type="line"/>
      <point x="413" y="532" type="line"/>
      <point x="559.1558456420898" y="532" type="line"/>
      <point x="923" y="-352" type="line"/>
      <point x="1238" y="-352" type="line"/>
    </contour>
    <contour>
      <point x="413" y="1211" type="line"/>
      <point x="587" y="1211" type="line" smooth="yes"/>
      <point x="705" y="1211"/>
      <point x="755" y="1127"/>
      <point x="755" y="992" type="curve" smooth="yes"/>
      <point x="755" y="862"/>
      <point x="696" y="777"/>
      <point x="579" y="777" type="curve" smooth="yes"/>
      <point x="413" y="777" type="line"/>
    </contour>
  </outline>
</glyph>
<glyph name="tpalatalhook" format="1">
  <advance width="629"/>
  <unicode hex="01AB"/>
  <outline>
    <contour>
      <point x="583" y="-58" type="curve" smooth="yes"/>
      <point x="583" y="7" type="line"/>
      <point x="584" y="228" type="line"/>
      <point x="570" y="224"/>
      <point x="546" y="220"/>
      <point x="517" y="220" type="curve" smooth="yes"/>
      <point x="456" y="220"/>
      <point x="432" y="242"/>
      <point x="432" y="332" type="curve"/>
      <point x="432" y="869" type="line"/>
      <point x="577" y="869" type="line"/>
      <point x="577" y="1082" type="line"/>
      <point x="432" y="1082" type="line"/>
      <point x="432" y="1349" type="line"/>
      <point x="150" y="1349" type="line"/>
      <point x="150" y="1082" type="line"/>
      <point x="24" y="1082" type="line"/>
      <point x="24" y="869" type="line"/>
      <point x="150" y="869" type="line"/>
      <point x="150" y="301" type="line"/>
      <point x="150.0" y="85.98566200000002"/>
      <point x="243.56957101483198" y="-6.868402730635964"/>
      <point x="392" y="-18.687828063964844" type="curve"/>
      <point x="392" y="-58" type="line" smooth="yes"/>
      <point x="392" y="-170"/>
      <point x="313" y="-199"/>
      <point x="256" y="-199" type="curve" smooth="yes"/>
      <point x="238" y="-199"/>
      <point x="220" y="-196"/>
      <point x="199" y="-192" type="curve"/>
      <point x="201" y="-387" type="line"/>
      <point x="236" y="-398"/>
      <point x="270" y="-402"/>
      <point x="306" y="-402" type="curve" smooth="yes"/>
      <point x="478" y="-402"/>
      <point x="583" y="-280"/>
    </contour>
  </outline>
</glyph>
<glyph name="Uhorn" format="1">
  <advance width="1282"/>
  <unicode hex="01AF"/>
  <outline>
    <contour>
      <point x="630" y="1612" type="move" name="top"/>
    </contour>
    <contour>
      <point x="632" y="-10" type="move" name="bottom"/>
    </contour>
    <contour>
      <point x="1262" y="1612" type="move" name="top0315"/>
    </contour>
    <contour>
      <point x="1065" y="497" type="curve"/>
      <point x="1065" y="1069.9252624511719" type="line"/>
      <point x="1327.236690010737" y="1083.678743846272"/>
      <point x="1407.0" y="1251.662914"/>
      <point x="1406.9999999999998" y="1537.0" type="curve"/>
      <point x="1222" y="1537" type="line"/>
      <point x="1222.0" y="1356.90398"/>
      <point x="1209.9348477554" y="1244.8898905231001"/>
      <point x="1065" y="1229.7730407714844" type="curve"/>
      <point x="1065" y="1456" type="line"/>
      <point x="770" y="1456" type="line"/>
      <point x="770" y="497" type="line" smooth="yes"/>
      <point x="770" y="306"/>
      <point x="707" y="224"/>
      <point x="586" y="224" type="curve" smooth="yes"/>
      <point x="466" y="224"/>
      <point x="401" y="306"/>
      <point x="401" y="497" type="curve" smooth="yes"/>
      <point x="401" y="1456" type="line"/>
      <point x="106" y="1456" type="line"/>
      <point x="106" y="497" type="line"/>
      <point x="106" y="159"/>
      <point x="304" y="-20"/>
      <point x="586" y="-20" type="curve" smooth="yes"/>
      <point x="865" y="-20"/>
      <point x="1065" y="159"/>
    </contour>
  </outline>
</glyph>
<glyph name="uhorn" format="1">
  <advance width="1107"/>
  <unicode hex="01B0"/>
  <outline>
    <contour>
      <point x="503" y="1269" type="move" name="top"/>
    </contour>
    <contour>
      <point x="914" y="0" type="move" name="right"/>
    </contour>
    <contour>
      <point x="1087" y="1269" type="move" name="top0315"/>
    </contour>
    <contour>
      <point x="408" y="0" type="move" name="bottomu"/>
    </contour>
    <contour>
      <point x="502" y="0" type="move" name="bottom"/>
    </contour>
    <contour>
      <point x="643" y="0" type="line"/>
      <point x="909" y="0" type="line"/>
      <point x="909" y="804.7972183227539" type="line"/>
      <point x="1102.149481141248" y="832.323677248512"/>
      <point x="1166.0" y="957.850912"/>
      <point x="1166.0000000000002" y="1178.0" type="curve"/>
      <point x="1002" y="1178" type="line"/>
      <point x="1002.0" y="1049.72904"/>
      <point x="992.2121123264" y="974.0679762456"/>
      <point x="909" y="947.2014083862305" type="curve"/>
      <point x="909" y="1082" type="line"/>
      <point x="625" y="1082" type="line"/>
      <point x="625" y="301.3906784057617" type="line"/>
      <point x="598.4336805019899" y="248.875706564146"/>
      <point x="553.7993559999999" y="216.99999999999997"/>
      <point x="483.9999999999999" y="216.99999999999997" type="curve" smooth="yes"/>
      <point x="423" y="217"/>
      <point x="380" y="262"/>
      <point x="380" y="380" type="curve"/>
      <point x="380" y="1082" type="line"/>
      <point x="97" y="1082" type="line"/>
      <point x="97" y="382" type="line"/>
      <point x="97" y="96"/>
      <point x="220" y="-20"/>
      <point x="399" y="-20" type="curve" smooth="yes"/>
      <point x="501.62321000000003" y="-20.0"/>
      <point x="580.534203469125" y="24.125342066150004"/>
      <point x="636.1073989868164" y="99.5597915649414" type="curve"/>
    </contour>
  </outline>
</glyph>
<glyph name="Upsilon2" format="1">
  <advance width="1187"/>
  <unicode hex="01B1"/>
  <outline>
    <contour>
      <point x="760" y="678" type="curve" smooth="yes"/>
      <point x="760" y="592" type="line" smooth="yes"/>
      <point x="760" y="351"/>
      <point x="698" y="227"/>
      <point x="595" y="227" type="curve" smooth="yes"/>
      <point x="490" y="227"/>
      <point x="428" y="351"/>
      <point x="428" y="592" type="curve" smooth="yes"/>
      <point x="428" y="678" type="line"/>
      <point x="428" y="1004"/>
      <point x="472" y="1157"/>
      <point x="555" y="1204" type="curve"/>
      <point x="555" y="1456" type="line"/>
      <point x="120" y="1456" type="line"/>
      <point x="120" y="1211" type="line"/>
      <point x="304.10240936279297" y="1211" type="line"/>
      <point x="185.12776390914104" y="1088.519581287796"/>
      <point x="99.00000000000006" y="897.551734"/>
      <point x="99.00000000000006" y="678.0000000000001" type="curve" smooth="yes"/>
      <point x="99" y="594" type="line" smooth="yes"/>
      <point x="99" y="234"/>
      <point x="301" y="-20"/>
      <point x="595" y="-20" type="curve" smooth="yes"/>
      <point x="889" y="-20"/>
      <point x="1089" y="234"/>
      <point x="1089" y="594" type="curve" smooth="yes"/>
      <point x="1089" y="678" type="line" smooth="yes"/>
      <point x="1089.0" y="897.0333499999999"/>
      <point x="1002.529809125625" y="1088.3662925337499"/>
      <point x="882.2651672363281" y="1211" type="curve"/>
      <point x="1069" y="1211" type="line"/>
      <point x="1069" y="1456" type="line"/>
      <point x="626" y="1456" type="line"/>
      <point x="626" y="1204" type="line"/>
      <point x="714" y="1158"/>
      <point x="760" y="1006"/>
    </contour>
  </outline>
</glyph>
<glyph name="yhook" format="1">
  <advance width="1070"/>
  <unicode hex="01B4"/>
  <outline>
    <contour>
      <point x="540" y="-162" type="curve" smooth="yes"/>
      <point x="818" y="903" type="line" smooth="yes"/>
      <point x="858" y="1043"/>
      <point x="881" y="1100"/>
      <point x="927" y="1100" type="curve" smooth="yes"/>
      <point x="949" y="1100"/>
      <point x="967" y="1089"/>
      <point x="991" y="1074" type="curve"/>
      <point x="1053" y="1255" type="line"/>
      <point x="1002" y="1304"/>
      <point x="931" y="1343"/>
      <point x="849" y="1343" type="curve" smooth="yes"/>
      <point x="666" y="1343"/>
      <point x="618" y="1166"/>
      <point x="569" y="980" type="curve" smooth="yes"/>
      <point x="448.40757751464844" y="464.4673843383789" type="line"/>
      <point x="320" y="1082" type="line"/>
      <point x="17" y="1082" type="line"/>
      <point x="328.3516540527344" y="-9.204063415527344" type="line"/>
      <point x="306" y="-83" type="line" smooth="yes"/>
      <point x="283" y="-164"/>
      <point x="249" y="-199"/>
      <point x="156" y="-199" type="curve" smooth="yes"/>
      <point x="145" y="-199"/>
      <point x="135" y="-198"/>
      <point x="123" y="-198" type="curve"/>
      <point x="123" y="-418" type="line"/>
      <point x="168" y="-430"/>
      <point x="190" y="-437"/>
      <point x="240" y="-437" type="curve" smooth="yes"/>
      <point x="438" y="-437"/>
      <point x="510" y="-271"/>
    </contour>
  </outline>
</glyph>
<glyph name="zbar" format="1">
  <advance width="932"/>
  <unicode hex="01B6"/>
  <outline>
    <contour>
      <point x="464" y="1290" type="move" name="top"/>
    </contour>
    <contour>
      <point x="462" y="10" type="move" name="bottom"/>
    </contour>
    <contour>
      <point x="912" y="1290" type="move" name="top0315"/>
    </contour>
    <contour>
      <point x="94" y="847" type="line"/>
      <point x="502.02762603759766" y="847" type="line"/>
      <point x="375.6939239501953" y="645" type="line"/>
      <point x="125" y="645" type="line"/>
      <point x="125" y="462" type="line"/>
      <point x="261.2430953979492" y="462" type="line"/>
      <point x="83" y="177" type="line"/>
      <point x="83" y="0" type="line"/>
      <point x="847" y="0" type="line"/>
      <point x="847" y="235" type="line"/>
      <point x="418.7782669067383" y="235" type="line"/>
      <point x="560.5598220825195" y="462" type="line"/>
      <point x="801" y="462" type="line"/>
      <point x="801" y="645" type="line"/>
      <point x="674.8594970703125" y="645" type="line"/>
      <point x="841" y="911" type="line"/>
      <point x="841" y="1082" type="line"/>
      <point x="94" y="1082" type="line"/>
    </contour>
  </outline>
</glyph>
<glyph name="uni01BB" format="1">
  <advance width="1088"/>
  <unicode hex="01BB"/>
  <outline>
    <contour>
      <point x="954" y="235" type="line"/>
      <point x="458" y="235" type="line"/>
      <point x="645" y="502" type="line" smooth="yes"/>
      <point x="688.395012" y="553.515716"/>
      <point x="727.475208725072" y="602.45542288064"/>
      <point x="761.6358261108398" y="650" type="curve"/>
      <point x="1004" y="650" type="line"/>
      <point x="1004" y="833" type="line" name="hr00"/>
      <point x="869.5186767578125" y="833" type="line"/>
      <point x="902.3075249986559" y="907.585998461952"/>
      <point x="919.9999999999999" y="982.57108"/>
      <point x="919.9999999999999" y="1063.0" type="curve" smooth="yes"/>
      <point x="920" y="1320"/>
      <point x="778" y="1477"/>
      <point x="511" y="1477" type="curve" smooth="yes"/>
      <point x="239" y="1477"/>
      <point x="71" y="1260"/>
      <point x="71" y="998" type="curve"/>
      <point x="355" y="998" type="line"/>
      <point x="355" y="1138"/>
      <point x="404" y="1242"/>
      <point x="506" y="1242" type="curve" smooth="yes"/>
      <point x="589" y="1242"/>
      <point x="636" y="1163"/>
      <point x="636" y="1035" type="curve" smooth="yes"/>
      <point x="636.0" y="977.148915"/>
      <point x="619.787379757965" y="915.5920882303919"/>
      <point x="574.1209030151367" y="833" type="curve"/>
      <point x="224" y="833" type="line"/>
      <point x="224" y="650" type="line"/>
      <point x="448.8922119140625" y="650" type="line"/>
      <point x="95" y="200" type="line"/>
      <point x="95" y="0" type="line"/>
      <point x="954" y="0" type="line"/>
    </contour>
  </outline>
</glyph>
<glyph name="wynn" format="1">
  <advance width="1014"/>
  <unicode hex="01BF"/>
  <outline>
    <contour>
      <point x="947.0" y="532.0" type="curve" smooth="yes"/>
      <point x="947" y="553" type="line" smooth="yes"/>
      <point x="947" y="882"/>
      <point x="823" y="1102"/>
      <point x="589" y="1102" type="curve" smooth="yes"/>
      <point x="496.427584" y="1102.0"/>
      <point x="426.30666225664004" y="1063.915613446144"/>
      <point x="373.55064392089844" y="997.3078918457031" type="curve"/>
      <point x="365" y="1082" type="line"/>
      <point x="104" y="1082" type="line"/>
      <point x="104" y="-416" type="line"/>
      <point x="386" y="-416" type="line"/>
      <point x="386" y="-167.52326202392578" type="line"/>
      <point x="722.5325206296" y="-51.8218308812"/>
      <point x="946.9999999999999" y="123.21409999999999"/>
    </contour>
    <contour>
      <point x="513.0" y="866.0000000000001" type="curve" smooth="yes"/>
      <point x="624" y="866"/>
      <point x="664" y="731"/>
      <point x="664" y="553" type="curve" smooth="yes"/>
      <point x="664" y="532" type="line" smooth="yes"/>
      <point x="664.0" y="285.952003"/>
      <point x="552.944227024924" y="135.384883984669"/>
      <point x="386" y="66.37388610839844" type="curve"/>
      <point x="386" y="780.1892929077148" type="line"/>
      <point x="411.266525" y="835.6812109375"/>
      <point x="452.43125" y="866.0"/>
    </contour>
  </outline>
</glyph>
<glyph name="uni01C6" format="1">
  <advance width="1834"/>
  <unicode hex="01C6"/>
  <outline>
    <contour>
      <point x="665" y="0" type="line"/>
      <point x="910" y="0" type="line"/>
      <point x="910" y="1560" type="line"/>
      <point x="626" y="1560" type="line"/>
      <point x="626" y="1008.8669509887695" type="line"/>
      <point x="574.199453987584" y="1068.217245612992"/>
      <point x="508.009168" y="1102.0"/>
      <point x="425.00000000000006" y="1102.0" type="curve" smooth="yes"/>
      <point x="196" y="1102"/>
      <point x="66" y="878"/>
      <point x="66" y="549" type="curve" smooth="yes"/>
      <point x="66" y="528" type="line"/>
      <point x="66" y="213"/>
      <point x="197" y="-20"/>
      <point x="423" y="-20" type="curve" smooth="yes"/>
      <point x="519.616668" y="-20.0"/>
      <point x="593.266673437088" y="25.933325125824005"/>
      <point x="648.1576080322266" y="103.21363067626953" type="curve"/>
    </contour>
    <contour>
      <point x="1274" y="1526" type="line"/>
      <point x="1036" y="1526" type="line"/>
      <point x="1036" y="1510" type="line"/>
      <point x="1283" y="1252" type="line"/>
      <point x="1470" y="1252" type="line"/>
      <point x="1716" y="1509" type="line"/>
      <point x="1716" y="1526" type="line"/>
      <point x="1479" y="1526" type="line"/>
      <point x="1376" y="1387" type="line"/>
    </contour>
    <contour>
      <point x="998" y="847" type="line"/>
      <point x="1406.7679595947266" y="847" type="line"/>
      <point x="987" y="177" type="line"/>
      <point x="987" y="0" type="line"/>
      <point x="1751" y="0" type="line"/>
      <point x="1751" y="235" type="line"/>
      <point x="1323.5203094482422" y="235" type="line"/>
      <point x="1745" y="911" type="line"/>
      <point x="1745" y="1082" type="line"/>
      <point x="998" y="1082" type="line"/>
    </contour>
    <contour>
      <point x="349" y="528" type="curve" smooth="yes"/>
      <point x="349" y="549" type="line"/>
      <point x="349" y="728"/>
      <point x="387" y="866"/>
      <point x="499" y="866" type="curve" smooth="yes"/>
      <point x="556.646218" y="866.0"/>
      <point x="599.2804153217929" y="832.781911690776"/>
      <point x="626" y="773.3530349731445" type="curve"/>
      <point x="626" y="305.2613830566406" type="line"/>
      <point x="600.176126419116" y="249.93943706810802"/>
      <point x="558.477342" y="217.00000000000003"/>
      <point x="498.0" y="217.0" type="curve" smooth="yes"/>
      <point x="384" y="217"/>
      <point x="349" y="355"/>
    </contour>
  </outline>
</glyph>
<glyph name="gbar" format="1">
  <advance width="1031"/>
  <unicode hex="01E5"/>
  <outline>
    <contour>
      <point x="487" y="1290" type="move" name="top"/>
    </contour>
    <contour>
      <point x="489" y="-487" type="move" name="bottom"/>
    </contour>
    <contour>
      <point x="514" y="-125" type="move" name="parenthesses.w3"/>
    </contour>
    <contour>
      <point x="489" y="-487" type="move" name="markbottom"/>
    </contour>
    <contour>
      <point x="1011" y="1290" type="move" name="top0315"/>
    </contour>
    <contour>
      <point x="998" y="-190" type="line"/>
      <point x="998" y="-54" type="line" name="hr00"/>
      <point x="931" y="-54" type="line"/>
      <point x="931" y="1082" type="line"/>
      <point x="676" y="1082" type="line"/>
      <point x="667.0224685668945" y="1001.5228271484375" type="line"/>
      <point x="616.013377394304" y="1065.422739896048"/>
      <point x="545.449212" y="1102.0"/>
      <point x="446.00000000000006" y="1102.0" type="curve" smooth="yes"/>
      <point x="216" y="1102"/>
      <point x="73" y="878"/>
      <point x="73" y="549" type="curve" smooth="yes"/>
      <point x="73" y="528" type="line"/>
      <point x="73" y="213"/>
      <point x="216" y="-20"/>
      <point x="444" y="-20" type="curve" smooth="yes"/>
      <point x="530.250804" y="-20.0"/>
      <point x="596.753036048838" y="13.772920148363994"/>
      <point x="648" y="72.1280288696289" type="curve"/>
      <point x="648" y="-54" type="line"/>
      <point x="58" y="-54" type="line"/>
      <point x="58" y="-190" type="line"/>
      <point x="630.4406509399414" y="-190" type="line"/>
      <point x="602.88911662592" y="-265.672928887808"/>
      <point x="544.14768" y="-307.0"/>
      <point x="463.0" y="-307.0" type="curve" smooth="yes"/>
      <point x="378" y="-307"/>
      <point x="296" y="-280"/>
      <point x="235" y="-217" type="curve"/>
      <point x="127" y="-388" type="line"/>
      <point x="235" y="-505"/>
      <point x="370" y="-532"/>
      <point x="475" y="-532" type="curve" smooth="yes"/>
      <point x="707.014114" y="-532.0"/>
      <point x="878.027066797048" y="-410.741594194132"/>
      <point x="920.6674118041992" y="-190" type="curve"/>
    </contour>
    <contour>
      <point x="355" y="528" type="curve" smooth="yes"/>
      <point x="355" y="549" type="line"/>
      <point x="355" y="728"/>
      <point x="409" y="866"/>
      <point x="521" y="866" type="curve" smooth="yes"/>
      <point x="578.555498" y="866.0"/>
      <point x="620.5170628532079" y="838.0384647023039"/>
      <point x="648" y="787.5509262084961" type="curve"/>
      <point x="648" y="291.25907135009766" type="line"/>
      <point x="621.282093710325" y="244.425421506603"/>
      <point x="579.75276" y="217.0"/>
      <point x="518.9999999999999" y="217.0" type="curve" smooth="yes"/>
      <point x="406" y="217"/>
      <point x="355" y="355"/>
    </contour>
  </outline>
</glyph>
<glyph name="uni01EF" format="1">
  <advance width="1039"/>
  <unicode hex="01EF"/>
  <outline>
    <contour>
      <point x="421" y="1526" type="line"/>
      <point x="183" y="1526" type="line"/>
      <point x="183" y="1510" type="line"/>
      <point x="430" y="1252" type="line"/>
      <point x="617" y="1252" type="line"/>
      <point x="863" y="1509" type="line"/>
      <point x="863" y="1526" type="line"/>
      <point x="625" y="1526" type="line"/>
      <point x="523" y="1387" type="line"/>
    </contour>
    <contour>
      <point x="483" y="309" type="line" smooth="yes"/>
      <point x="626" y="309"/>
      <point x="697" y="232"/>
      <point x="697" y="38" type="curve" smooth="yes"/>
      <point x="697" y="-74"/>
      <point x="631" y="-160"/>
      <point x="518" y="-160" type="curve" smooth="yes"/>
      <point x="424" y="-160"/>
      <point x="366" y="-76"/>
      <point x="366" y="29" type="curve"/>
      <point x="83" y="29" type="line"/>
      <point x="83" y="-268"/>
      <point x="304" y="-395"/>
      <point x="518" y="-395" type="curve" smooth="yes"/>
      <point x="787" y="-395"/>
      <point x="980" y="-239"/>
      <point x="980" y="33" type="curve" smooth="yes"/>
      <point x="980.0" y="288.731488"/>
      <point x="861.114051848288" y="448.92962480666006"/>
      <point x="651.3207473754883" y="493.34810638427734" type="curve"/>
      <point x="949" y="890" type="line"/>
      <point x="948" y="1082" type="line"/>
      <point x="134" y="1082" type="line"/>
      <point x="134" y="847" type="line"/>
      <point x="618" y="847" type="line"/>
      <point x="359" y="494" type="line"/>
      <point x="359" y="309" type="line"/>
    </contour>
  </outline>
</glyph>
<glyph name="uni01F7" format="1">
  <advance width="1189"/>
  <unicode hex="01F7"/>
  <outline>
    <contour>
      <point x="1104.0000000000005" y="786.0" type="curve" smooth="yes"/>
      <point x="1104" y="840" type="line" smooth="yes"/>
      <point x="1104" y="1254"/>
      <point x="899" y="1477"/>
      <point x="582" y="1477" type="curve" smooth="yes"/>
      <point x="521.97615" y="1477.0"/>
      <point x="461.9523" y="1459.0355882995"/>
      <point x="410" y="1426.878433227539" type="curve"/>
      <point x="410" y="1456" type="line"/>
      <point x="117" y="1456" type="line"/>
      <point x="117" y="-417" type="line"/>
      <point x="410" y="-417" type="line"/>
      <point x="410" y="-141.7832794189453" type="line"/>
      <point x="852.6750301256981" y="28.41325239508498"/>
      <point x="1104.0000000000002" y="371.83804599999996"/>
    </contour>
    <contour>
      <point x="582.0" y="1232.0" type="curve" smooth="yes"/>
      <point x="772" y="1232"/>
      <point x="806" y="1079"/>
      <point x="806" y="842" type="curve" smooth="yes"/>
      <point x="806" y="786" type="line" smooth="yes"/>
      <point x="806.0" y="511.517505"/>
      <point x="686.791327894747" y="257.53586443848303"/>
      <point x="410" y="115.36305236816406" type="curve"/>
      <point x="410" y="1144.4984893798828" type="line"/>
      <point x="456.091539826227" y="1199.172019419683"/>
      <point x="515.257926" y="1232.0"/>
    </contour>
  </outline>
</glyph>
<glyph name="uni021C" format="1">
  <advance width="1077"/>
  <unicode hex="021C"/>
  <outline>
    <contour>
      <point x="989" y="342" type="curve" smooth="yes"/>
      <point x="989.0" y="494.779792"/>
      <point x="928.650967080704" y="606.488714374368"/>
      <point x="826.6732406616211" y="670.334114074707" type="curve"/>
      <point x="919.2564501219201" y="777.347812839575"/>
      <point x="970.0000000000001" y="905.298717"/>
      <point x="970.0000000000002" y="1061.0" type="curve" smooth="yes"/>
      <point x="970" y="1333"/>
      <point x="789" y="1475"/>
      <point x="511" y="1475" type="curve" smooth="yes"/>
      <point x="275" y="1475"/>
      <point x="64" y="1326"/>
      <point x="64" y="1062" type="curve"/>
      <point x="358" y="1062" type="line"/>
      <point x="358" y="1171"/>
      <point x="431" y="1231"/>
      <point x="511" y="1231" type="curve" smooth="yes"/>
      <point x="634" y="1231"/>
      <point x="680" y="1146"/>
      <point x="680" y="1025" type="curve" smooth="yes"/>
      <point x="680" y="790"/>
      <point x="565" y="683"/>
      <point x="151" y="533" type="curve"/>
      <point x="151" y="305" type="line"/>
      <point x="349.00070500000004" y="364.122455"/>
      <point x="518.8185273075251" y="433.793810225675"/>
      <point x="651.6448516845703" y="520.7620468139648" type="curve"/>
      <point x="680.969056435256" y="491.583688492608"/>
      <point x="693.0" y="439.60751600000003"/>
      <point x="693.0" y="348.0" type="curve" smooth="yes"/>
      <point x="693" y="67"/>
      <point x="510" y="-107"/>
      <point x="151" y="-194" type="curve"/>
      <point x="151" y="-436" type="line"/>
      <point x="629" y="-352"/>
      <point x="989" y="-109"/>
    </contour>
  </outline>
</glyph>
<glyph name="uni021D" format="1">
  <advance width="913"/>
  <unicode hex="021D"/>
  <outline>
    <contour>
      <point x="839" y="186" type="curve" smooth="yes"/>
      <point x="839.0" y="319.23851"/>
      <point x="791.762410659092" y="412.536294053216"/>
      <point x="708.47314453125" y="467.7852554321289" type="curve"/>
      <point x="783.1177112336532" y="557.267307480093"/>
      <point x="823.0000000000001" y="662.032362"/>
      <point x="823.0000000000001" y="785.9999999999999" type="curve" smooth="yes"/>
      <point x="823" y="991"/>
      <point x="671" y="1101"/>
      <point x="436" y="1101" type="curve" smooth="yes"/>
      <point x="229" y="1101"/>
      <point x="63" y="978"/>
      <point x="63" y="771" type="curve"/>
      <point x="346" y="771" type="line"/>
      <point x="346" y="842"/>
      <point x="386" y="882"/>
      <point x="451" y="882" type="curve" smooth="yes"/>
      <point x="524" y="882"/>
      <point x="540" y="821"/>
      <point x="540" y="747" type="curve" smooth="yes"/>
      <point x="540" y="569"/>
      <point x="407" y="467"/>
      <point x="171" y="373" type="curve"/>
      <point x="171" y="160" type="line"/>
      <point x="314.267792" y="205.887728"/>
      <point x="437.16710463129596" y="258.892153610752"/>
      <point x="536.388557434082" y="321.55260467529297" type="curve"/>
      <point x="548.54093312" y="291.3168717824"/>
      <point x="556.0" y="252.96256000000002"/>
      <point x="556.0" y="207.00000000000006" type="curve" smooth="yes"/>
      <point x="556" y="-8"/>
      <point x="434" y="-106"/>
      <point x="171" y="-217" type="curve"/>
      <point x="171" y="-436" type="line"/>
      <point x="572" y="-343"/>
      <point x="839" y="-150"/>
    </contour>
  </outline>
</glyph>
<glyph name="uni0220" format="1">
  <advance width="1144"/>
  <unicode hex="0220"/>
  <outline>
    <contour>
      <point x="1038" y="1022" type="line" smooth="yes"/>
      <point x="1038" y="1314"/>
      <point x="849" y="1477"/>
      <point x="618" y="1477" type="curve" smooth="yes"/>
      <point x="536.309054" y="1477.0"/>
      <point x="463.53709715215996" y="1454.479552390796"/>
      <point x="400" y="1419.6499710083008" type="curve"/>
      <point x="400" y="1456" type="line"/>
      <point x="117" y="1456" type="line"/>
      <point x="117" y="0" type="line"/>
      <point x="400" y="0" type="line"/>
      <point x="400" y="1182.9651565551758" type="line"/>
      <point x="459.78356068374995" y="1221.656709330625"/>
      <point x="521.1572249999999" y="1241.0"/>
      <point x="583.9999999999999" y="1241.0" type="curve" smooth="yes"/>
      <point x="703" y="1241"/>
      <point x="753" y="1172"/>
      <point x="753" y="1022" type="curve" smooth="yes"/>
      <point x="753" y="-417" type="line"/>
      <point x="1038" y="-417" type="line"/>
    </contour>
  </outline>
</glyph>
<glyph name="uni0221" format="1">
  <advance width="1331"/>
  <unicode hex="0221"/>
  <outline>
    <contour>
      <point x="626" y="1536" type="line"/>
      <point x="626" y="1008.8669509887695" type="line"/>
      <point x="574.199453987584" y="1068.217245612992"/>
      <point x="508.009168" y="1102.0"/>
      <point x="425.00000000000006" y="1102.0" type="curve" smooth="yes"/>
      <point x="196" y="1102"/>
      <point x="66" y="878"/>
      <point x="66" y="549" type="curve" smooth="yes"/>
      <point x="66" y="528" type="line"/>
      <point x="66" y="213"/>
      <point x="197" y="-20"/>
      <point x="423" y="-20" type="curve" smooth="yes"/>
      <point x="507.7092" y="-20.0"/>
      <point x="574.76391968" y="15.308960639999995"/>
      <point x="627" y="76.1010513305664" type="curve"/>
      <point x="627" y="-13.865081787109375" type="line"/>
      <point x="388" y="-232" type="line"/>
      <point x="514" y="-411" type="line"/>
      <point x="663.6369018554688" y="-266.707275390625" type="line"/>
      <point x="708.297030412626" y="-367.87517501348304"/>
      <point x="799.451359" y="-436.00000000000006"/>
      <point x="967.0" y="-436.00000000000006" type="curve" smooth="yes"/>
      <point x="1176" y="-436"/>
      <point x="1286" y="-322"/>
      <point x="1286" y="-157" type="curve" smooth="yes"/>
      <point x="1286" y="13"/>
      <point x="1180" y="118"/>
      <point x="989" y="118" type="curve" smooth="yes"/>
      <point x="961.301255" y="118.0"/>
      <point x="935.06895424495" y="116.37919320295"/>
      <point x="910" y="113.18164825439453" type="curve"/>
      <point x="910" y="1536" type="line"/>
    </contour>
    <contour>
      <point x="349" y="528" type="curve" smooth="yes"/>
      <point x="349" y="549" type="line"/>
      <point x="349" y="728"/>
      <point x="387" y="866"/>
      <point x="499" y="866" type="curve" smooth="yes"/>
      <point x="556.646218" y="866.0"/>
      <point x="599.2804153217929" y="832.781911690776"/>
      <point x="626" y="773.3530349731445" type="curve"/>
      <point x="626" y="305.2613830566406" type="line"/>
      <point x="600.176126419116" y="249.93943706810802"/>
      <point x="558.477342" y="217.00000000000003"/>
      <point x="498.0" y="217.0" type="curve" smooth="yes"/>
      <point x="384" y="217"/>
      <point x="349" y="355"/>
    </contour>
    <contour>
      <point x="910" y="-133" type="curve" smooth="yes"/>
      <point x="910" y="-91.72855377197266" type="line"/>
      <point x="926.7080991683999" y="-87.25975314969999"/>
      <point x="943.2747599999999" y="-84.99999999999999"/>
      <point x="959.9999999999999" y="-84.99999999999999" type="curve" smooth="yes"/>
      <point x="1005" y="-85"/>
      <point x="1036" y="-112"/>
      <point x="1036" y="-164" type="curve" smooth="yes"/>
      <point x="1036" y="-220"/>
      <point x="1002" y="-245"/>
      <point x="971" y="-245" type="curve" smooth="yes"/>
      <point x="929" y="-245"/>
      <point x="910" y="-201"/>
    </contour>
  </outline>
</glyph>
<glyph name="uni0223" format="1">
  <advance width="1066"/>
  <unicode hex="0223"/>
  <outline>
    <contour>
      <point x="1000" y="456" type="curve" smooth="yes"/>
      <point x="1000.0" y="618.4964200000001"/>
      <point x="946.970013559068" y="733.7329557106721"/>
      <point x="858.049446105957" y="806.60009765625" type="curve"/>
      <point x="946.697747515625" y="873.11212684375"/>
      <point x="1001.0" y="981.541375"/>
      <point x="1000.9999999999999" y="1144.0" type="curve" smooth="yes"/>
      <point x="1001" y="1410"/>
      <point x="850" y="1555"/>
      <point x="637" y="1557" type="curve"/>
      <point x="637" y="1331" type="line"/>
      <point x="680" y="1303"/>
      <point x="718" y="1252"/>
      <point x="718" y="1139" type="curve" smooth="yes"/>
      <point x="718" y="989"/>
      <point x="665" y="929"/>
      <point x="544" y="929" type="curve"/>
      <point x="523" y="929" type="line" smooth="yes"/>
      <point x="401" y="929"/>
      <point x="348" y="989"/>
      <point x="348" y="1139" type="curve" smooth="yes"/>
      <point x="348" y="1252"/>
      <point x="384" y="1303"/>
      <point x="425" y="1331" type="curve"/>
      <point x="425" y="1557" type="line"/>
      <point x="216" y="1555"/>
      <point x="65" y="1410"/>
      <point x="65" y="1144" type="curve" smooth="yes"/>
      <point x="65.0" y="981.773692"/>
      <point x="119.4191540768" y="873.422346536032"/>
      <point x="208.10279083251953" y="806.884880065918" type="curve"/>
      <point x="118.55031480553606" y="733.812448205344"/>
      <point x="65.00000000000006" y="617.921056"/>
      <point x="65.00000000000004" y="454.0" type="curve" smooth="yes"/>
      <point x="65" y="142"/>
      <point x="259" y="-20"/>
      <point x="526" y="-20" type="curve" smooth="yes"/>
      <point x="540" y="-20" type="line" smooth="yes"/>
      <point x="807" y="-20"/>
      <point x="1000" y="142"/>
    </contour>
    <contour>
      <point x="540" y="694" type="line"/>
      <point x="661" y="694"/>
      <point x="717" y="604"/>
      <point x="717" y="456" type="curve" smooth="yes"/>
      <point x="717" y="305"/>
      <point x="661" y="215"/>
      <point x="540" y="215" type="curve" smooth="yes"/>
      <point x="526" y="215" type="line" smooth="yes"/>
      <point x="408" y="215"/>
      <point x="349" y="306"/>
      <point x="349" y="454" type="curve" smooth="yes"/>
      <point x="349" y="605"/>
      <point x="408" y="694"/>
      <point x="526" y="694" type="curve" smooth="yes"/>
    </contour>
  </outline>
</glyph>
<glyph name="uni0234" format="1">
  <advance width="979"/>
  <unicode hex="0234"/>
  <outline>
    <contour>
      <point x="275" y="1536" type="line"/>
      <point x="275" y="0" type="line"/>
      <point x="276" y="0" type="line"/>
      <point x="276" y="-13.865081787109375" type="line"/>
      <point x="37" y="-232" type="line"/>
      <point x="162" y="-411" type="line"/>
      <point x="312.6047592163086" y="-266.63330841064453" type="line"/>
      <point x="357.253456616226" y="-367.84260267728297"/>
      <point x="448.411309" y="-435.99999999999994"/>
      <point x="616.0" y="-436.0" type="curve" smooth="yes"/>
      <point x="825" y="-436"/>
      <point x="934" y="-322"/>
      <point x="934" y="-157" type="curve" smooth="yes"/>
      <point x="934" y="13"/>
      <point x="829" y="118"/>
      <point x="638" y="118" type="curve" smooth="yes"/>
      <point x="609.875622" y="118.0"/>
      <point x="583.32033869924" y="116.352450565798"/>
      <point x="558" y="113.10247039794922" type="curve"/>
      <point x="558" y="1536" type="line"/>
    </contour>
    <contour>
      <point x="558" y="-133" type="curve" smooth="yes"/>
      <point x="558" y="-92.00362396240234" type="line"/>
      <point x="575.0471931948961" y="-87.35081102726801"/>
      <point x="591.9411120000001" y="-85.00000000000001"/>
      <point x="609.0000000000001" y="-85.0" type="curve" smooth="yes"/>
      <point x="653" y="-85"/>
      <point x="684" y="-112"/>
      <point x="684" y="-164" type="curve" smooth="yes"/>
      <point x="684" y="-220"/>
      <point x="651" y="-245"/>
      <point x="619" y="-245" type="curve" smooth="yes"/>
      <point x="578" y="-245"/>
      <point x="558" y="-201"/>
    </contour>
  </outline>
</glyph>
<glyph name="uni0235" format="1">
  <advance width="1329"/>
  <unicode hex="0235"/>
  <outline>
    <contour>
      <point x="622" y="1102" type="curve" smooth="yes"/>
      <point x="519.158282" y="1102.0"/>
      <point x="432.562641438073" y="1057.045100787798"/>
      <point x="370.29701232910156" y="975.5216293334961" type="curve"/>
      <point x="362" y="1082" type="line"/>
      <point x="97" y="1082" type="line"/>
      <point x="97" y="0" type="line"/>
      <point x="380" y="0" type="line"/>
      <point x="380" y="785.69482421875" type="line"/>
      <point x="407.119193735084" y="835.7884761395001"/>
      <point x="447.396446" y="866.0000000000001"/>
      <point x="500.0" y="866.0" type="curve" smooth="yes"/>
      <point x="583" y="866"/>
      <point x="625" y="827"/>
      <point x="625" y="690" type="curve" smooth="yes"/>
      <point x="625" y="-14.777778625488281" type="line"/>
      <point x="387" y="-232" type="line"/>
      <point x="512" y="-411" type="line"/>
      <point x="662.1208038330078" y="-267.0972137451172" type="line"/>
      <point x="707.1353292949119" y="-368.047678424768"/>
      <point x="798.6636239999999" y="-436.0"/>
      <point x="966.0" y="-436.0" type="curve" smooth="yes"/>
      <point x="1175" y="-436"/>
      <point x="1284" y="-322"/>
      <point x="1284" y="-157" type="curve" smooth="yes"/>
      <point x="1284" y="13"/>
      <point x="1179" y="118"/>
      <point x="988" y="118" type="curve" smooth="yes"/>
      <point x="959.910412" y="118.0"/>
      <point x="933.3469087652439" y="116.356524098968"/>
      <point x="908" y="113.11491394042969" type="curve"/>
      <point x="908" y="688" type="line" smooth="yes"/>
      <point x="908" y="995"/>
      <point x="791" y="1102"/>
    </contour>
    <contour>
      <point x="908" y="-133" type="curve" smooth="yes"/>
      <point x="908" y="-92.00362396240234" type="line"/>
      <point x="925.0471931948961" y="-87.35081102726801"/>
      <point x="941.9411120000001" y="-85.00000000000001"/>
      <point x="959.0000000000001" y="-85.0" type="curve" smooth="yes"/>
      <point x="1003" y="-85"/>
      <point x="1034" y="-112"/>
      <point x="1034" y="-164" type="curve" smooth="yes"/>
      <point x="1034" y="-220"/>
      <point x="1000" y="-245"/>
      <point x="969" y="-245" type="curve" smooth="yes"/>
      <point x="928" y="-245"/>
      <point x="908" y="-201"/>
    </contour>
  </outline>
</glyph>
<glyph name="uni0236" format="1">
  <advance width="970"/>
  <unicode hex="0236"/>
  <outline>
    <contour>
      <point x="924" y="260" type="curve" smooth="yes"/>
      <point x="924" y="429"/>
      <point x="819" y="535"/>
      <point x="628" y="535" type="curve" smooth="yes"/>
      <point x="600.96508" y="535.0"/>
      <point x="574.6432613136999" y="533.2382202838"/>
      <point x="549" y="529.7512283325195" type="curve"/>
      <point x="549" y="869" type="line"/>
      <point x="693" y="869" type="line"/>
      <point x="693" y="1082" type="line"/>
      <point x="549" y="1082" type="line"/>
      <point x="549" y="1349" type="line"/>
      <point x="266" y="1349" type="line"/>
      <point x="266" y="1082" type="line"/>
      <point x="141" y="1082" type="line"/>
      <point x="141" y="869" type="line"/>
      <point x="266" y="869" type="line"/>
      <point x="266" y="402.18650817871094" type="line"/>
      <point x="27" y="185" type="line"/>
      <point x="153" y="6" type="line"/>
      <point x="302.33068084716797" y="149.99744415283203" type="line"/>
      <point x="346.87995223039997" y="48.43718791680003"/>
      <point x="438.06767999999994" y="-19.999999999999986"/>
      <point x="605.9999999999999" y="-20.00000000000003" type="curve" smooth="yes"/>
      <point x="815" y="-20"/>
      <point x="924" y="94"/>
    </contour>
    <contour>
      <point x="549" y="283" type="curve" smooth="yes"/>
      <point x="549" y="325.3320617675781" type="line"/>
      <point x="565.6896575640999" y="329.75239032055"/>
      <point x="582.2673249999999" y="332.0"/>
      <point x="598.9999999999999" y="332.0" type="curve" smooth="yes"/>
      <point x="643" y="332"/>
      <point x="675" y="304"/>
      <point x="675" y="253" type="curve" smooth="yes"/>
      <point x="675" y="197"/>
      <point x="641" y="172"/>
      <point x="610" y="172" type="curve" smooth="yes"/>
      <point x="568" y="172"/>
      <point x="549" y="215"/>
    </contour>
  </outline>
</glyph>
<glyph name="uni0238" format="1">
  <advance width="1604"/>
  <unicode hex="0238"/>
  <outline>
    <contour>
      <point x="1504" y="531" type="curve" smooth="yes"/>
      <point x="1504" y="552" type="line"/>
      <point x="1504" y="872"/>
      <point x="1390" y="1102"/>
      <point x="1147" y="1102" type="curve" smooth="yes"/>
      <point x="1061.320666" y="1102.0"/>
      <point x="995.0162270175041" y="1068.52132110946"/>
      <point x="944" y="1010.2631454467773" type="curve"/>
      <point x="944" y="1536" type="line"/>
      <point x="660" y="1536" type="line"/>
      <point x="660" y="1008.8669509887695" type="line"/>
      <point x="608.199453987584" y="1068.217245612992"/>
      <point x="542.0091679999999" y="1102.0"/>
      <point x="459.00000000000006" y="1102.0" type="curve" smooth="yes"/>
      <point x="230" y="1102"/>
      <point x="100" y="878"/>
      <point x="100" y="549" type="curve" smooth="yes"/>
      <point x="100" y="528" type="line"/>
      <point x="100" y="213"/>
      <point x="230" y="-20"/>
      <point x="457" y="-20" type="curve" smooth="yes"/>
      <point x="550.945306" y="-20.0"/>
      <point x="622.9923875715559" y="23.428411471536002"/>
      <point x="677.2461547851562" y="96.86786651611328" type="curve"/>
      <point x="689" y="0" type="line"/>
      <point x="944" y="0" type="line"/>
      <point x="944" y="73.1881332397461" type="line"/>
      <point x="995.284991133312" y="13.973380095616015"/>
      <point x="1062.124704" y="-20.0"/>
      <point x="1149.0" y="-20.0" type="curve" smooth="yes"/>
      <point x="1390" y="-20"/>
      <point x="1504" y="207"/>
    </contour>
    <contour>
      <point x="1073.0" y="866.0000000000001" type="curve" smooth="yes"/>
      <point x="1199" y="866"/>
      <point x="1222" y="722"/>
      <point x="1222" y="552" type="curve" smooth="yes"/>
      <point x="1222" y="531" type="line"/>
      <point x="1222" y="349"/>
      <point x="1199" y="216"/>
      <point x="1075" y="216" type="curve" smooth="yes"/>
      <point x="1010.22568" y="216.0"/>
      <point x="968.76087406368" y="247.176475060172"/>
      <point x="944" y="301.0553283691406" type="curve"/>
      <point x="944" y="775.414794921875" type="line"/>
      <point x="969.274949376985" y="832.613920287117"/>
      <point x="1010.996843" y="866.0"/>
    </contour>
    <contour>
      <point x="383" y="528" type="curve" smooth="yes"/>
      <point x="383" y="549" type="line"/>
      <point x="383" y="728"/>
      <point x="421" y="866"/>
      <point x="533" y="866" type="curve" smooth="yes"/>
      <point x="590.30841" y="866.0"/>
      <point x="633.1288851355" y="832.5167727576"/>
      <point x="660" y="772.6431579589844" type="curve"/>
      <point x="660" y="306.3352584838867" type="line"/>
      <point x="634.207974997273" y="250.36695643320303"/>
      <point x="592.42697" y="217.00000000000003"/>
      <point x="531.0" y="217.00000000000003" type="curve" smooth="yes"/>
      <point x="418" y="217"/>
      <point x="383" y="355"/>
    </contour>
  </outline>
</glyph>
<glyph name="uni0239" format="1">
  <advance width="1536"/>
  <unicode hex="0239"/>
  <outline>
    <contour>
      <point x="1115.0" y="-19.9999999999999" type="curve" smooth="yes"/>
      <point x="1346" y="-20"/>
      <point x="1470" y="217"/>
      <point x="1470" y="532" type="curve" smooth="yes"/>
      <point x="1470" y="553" type="line"/>
      <point x="1470" y="882"/>
      <point x="1347" y="1102"/>
      <point x="1113" y="1102" type="curve" smooth="yes"/>
      <point x="1020.431544" y="1102.0"/>
      <point x="950.281004864544" y="1064.252184103084"/>
      <point x="897.4619369506836" y="998.1865081787109" type="curve"/>
      <point x="889" y="1082" type="line"/>
      <point x="662" y="1082" type="line"/>
      <point x="646.9782791137695" y="989.3660736083984" type="line"/>
      <point x="593.621806666465" y="1060.819497673729"/>
      <point x="521.844167" y="1102.0"/>
      <point x="425.99999999999994" y="1102.0" type="curve" smooth="yes"/>
      <point x="193" y="1102"/>
      <point x="66" y="881"/>
      <point x="66" y="552" type="curve" smooth="yes"/>
      <point x="66" y="531" type="line"/>
      <point x="66" y="216"/>
      <point x="194" y="-20"/>
      <point x="424" y="-20" type="curve" smooth="yes"/>
      <point x="508.987684" y="-20.0"/>
      <point x="574.939930535767" y="13.068862164141997"/>
      <point x="626" y="70.20013427734375" type="curve"/>
      <point x="626" y="-416" type="line"/>
      <point x="910" y="-416" type="line"/>
      <point x="910" y="72.69918823242188" type="line"/>
      <point x="961.604608979744" y="14.09719170734806"/>
      <point x="1028.5191439999999" y="-19.99999999999993"/>
    </contour>
    <contour>
      <point x="349" y="531" type="curve" smooth="yes"/>
      <point x="349" y="552" type="line"/>
      <point x="349" y="730"/>
      <point x="388" y="867"/>
      <point x="500" y="867" type="curve" smooth="yes"/>
      <point x="559.333344" y="867.0"/>
      <point x="600.143934741496" y="838.093279005668"/>
      <point x="626" y="785.7496871948242" type="curve"/>
      <point x="626" y="294.22010040283203" type="line"/>
      <point x="601.014465859072" y="244.559914751744"/>
      <point x="560.92576" y="215.0"/>
      <point x="498.99999999999994" y="215.0" type="curve" smooth="yes"/>
      <point x="385" y="215"/>
      <point x="349" y="357"/>
    </contour>
    <contour>
      <point x="1037.0" y="866.0" type="curve" smooth="yes"/>
      <point x="1148" y="866"/>
      <point x="1187" y="731"/>
      <point x="1187" y="553" type="curve" smooth="yes"/>
      <point x="1187" y="532" type="line"/>
      <point x="1187" y="358"/>
      <point x="1151" y="215"/>
      <point x="1038" y="215" type="curve" smooth="yes"/>
      <point x="974.65956" y="215.0"/>
      <point x="934.443907581227" y="245.368696944021"/>
      <point x="910" y="295.96571350097656" type="curve"/>
      <point x="910" y="782.1604614257812" type="line"/>
      <point x="935.4530151842599" y="836.3957366395999"/>
      <point x="976.6051219999999" y="865.9999999999999"/>
    </contour>
  </outline>
</glyph>
<glyph name="uni023A" format="1">
  <advance width="1224"/>
  <unicode hex="023A"/>
  <outline>
    <contour>
      <point x="-153" y="-200" type="line"/>
      <point x="38" y="-200" type="line"/>
      <point x="180.03409576416016" y="0" type="line"/>
      <point x="334" y="0" type="line"/>
      <point x="411.9346160888672" y="298" type="line"/>
      <point x="812.8155899047852" y="298" type="line"/>
      <point x="891" y="0" type="line"/>
      <point x="1204" y="0" type="line"/>
      <point x="889.6744003295898" y="999.2534408569336" type="line"/>
      <point x="1246" y="1501" type="line"/>
      <point x="1055" y="1501" type="line"/>
      <point x="831.0433578491211" y="1185.6438293457031" type="line"/>
      <point x="746" y="1456" type="line"/>
      <point x="477" y="1456" type="line"/>
      <point x="47.905479431152344" y="82.89752960205078" type="line"/>
    </contour>
    <contour>
      <point x="612.0543975830078" y="1063.2015991210938" type="line"/>
      <point x="647.6736755371094" y="927.4386749267578" type="line"/>
      <point x="535.0886535644531" y="768.9062881469727" type="line"/>
    </contour>
    <contour>
      <point x="565.6566696166992" y="543" type="line"/>
      <point x="699.2003784179688" y="731.0445709228516" type="line"/>
      <point x="748.5364608764648" y="543" type="line"/>
    </contour>
  </outline>
</glyph>
<glyph name="uni023B" format="1">
  <advance width="1168"/>
  <unicode hex="023B"/>
  <outline>
    <contour>
      <point x="599.9999999999999" y="-20.000000000000114" type="curve" smooth="yes"/>
      <point x="912" y="-20"/>
      <point x="1089" y="189"/>
      <point x="1104" y="486" type="curve"/>
      <point x="810" y="486" type="line"/>
      <point x="801" y="313"/>
      <point x="745" y="228"/>
      <point x="600" y="228" type="curve" smooth="yes"/>
      <point x="575.312891" y="228.0"/>
      <point x="553.138856521835" y="231.299776111279"/>
      <point x="533.274543762207" y="237.90851593017578" type="curve"/>
      <point x="779.5133285522461" y="1129.083351135254" type="line"/>
      <point x="799.056654628492" y="1086.2278404971319"/>
      <point x="808.433498" y="1030.1598159999999"/>
      <point x="811.9999999999999" y="962.0" type="curve"/>
      <point x="1106" y="962" type="line"/>
      <point x="1090.261376" y="1165.233536"/>
      <point x="1009.9042427617279" y="1331.475316711424"/>
      <point x="858.8405609130859" y="1416.180404663086" type="curve"/>
      <point x="903" y="1576" type="line"/>
      <point x="741" y="1576" type="line"/>
      <point x="711.1369552612305" y="1467.9212036132812" type="line"/>
      <point x="677.637306367075" y="1473.8975772485499"/>
      <point x="641.93581" y="1476.9999999999998"/>
      <point x="604.0" y="1476.9999999999998" type="curve" smooth="yes"/>
      <point x="287" y="1477"/>
      <point x="82" y="1206"/>
      <point x="82" y="775" type="curve"/>
      <point x="82" y="681" type="line"/>
      <point x="82.0" y="392.826504"/>
      <point x="169.17423431392" y="176.62763222841602"/>
      <point x="323.49610137939453" y="64.99121856689453" type="curve"/>
      <point x="271" y="-125" type="line"/>
      <point x="433" y="-125" type="line"/>
      <point x="466.70638275146484" y="-3.0115814208984375" type="line"/>
      <point x="508.2603" y="-14.224953125000107"/>
      <point x="552.76125" y="-20.00000000000011"/>
    </contour>
    <contour>
      <point x="381.0" y="681.0" type="curve" smooth="yes"/>
      <point x="381" y="777" type="line" smooth="yes"/>
      <point x="381" y="1085"/>
      <point x="449" y="1229"/>
      <point x="604" y="1229" type="curve" smooth="yes"/>
      <point x="618.404032" y="1229.0"/>
      <point x="631.859713077248" y="1228.15800619008"/>
      <point x="644.4253234863281" y="1226.4818649291992" type="curve"/>
      <point x="411.85118865966797" y="384.76143646240234" type="line"/>
      <point x="389.817435258112" y="457.88693946105593"/>
      <point x="381.0" y="556.641232"/>
    </contour>
  </outline>
</glyph>
<glyph name="uni023C" format="1">
  <advance width="942"/>
  <unicode hex="023C"/>
  <outline>
    <contour>
      <point x="500.00000000000006" y="-20.00000000000008" type="curve"/>
      <point x="717" y="-20"/>
      <point x="884" y="145"/>
      <point x="885" y="375" type="curve"/>
      <point x="619" y="375" type="line"/>
      <point x="619" y="278"/>
      <point x="573" y="215"/>
      <point x="495" y="215" type="curve" smooth="yes"/>
      <point x="484.459072" y="215.0"/>
      <point x="474.691256340914" y="215.990126331346"/>
      <point x="465.6407470703125" y="217.9034423828125" type="curve"/>
      <point x="613.4907608032227" y="743.3741912841797" type="line"/>
      <point x="617.2165022607629" y="723.093454526379"/>
      <point x="618.9999999999999" y="701.052855"/>
      <point x="619.0" y="678.0" type="curve"/>
      <point x="885" y="678" type="line"/>
      <point x="884.329803" y="853.591614"/>
      <point x="815.386675141032" y="984.2668261191001"/>
      <point x="700.1457595825195" y="1051.3529510498047" type="curve"/>
      <point x="814" y="1456" type="line"/>
      <point x="652" y="1456" type="line"/>
      <point x="551.5776443481445" y="1099.090934753418" type="line"/>
      <point x="534.551009064025" y="1101.0233431439501"/>
      <point x="517.01364" y="1102.0"/>
      <point x="499.0" y="1102.0000000000002" type="curve" smooth="yes"/>
      <point x="209" y="1102"/>
      <point x="70" y="861"/>
      <point x="70" y="555" type="curve" smooth="yes"/>
      <point x="70" y="527" type="line" smooth="yes"/>
      <point x="70.0" y="323.120993"/>
      <point x="131.303189209939" y="148.79100525946703"/>
      <point x="257.71705627441406" y="54.68700408935547" type="curve"/>
      <point x="125" y="-417" type="line"/>
      <point x="287" y="-417" type="line"/>
      <point x="401.5509948730469" y="-9.876632690429688" type="line"/>
      <point x="432.18243053980007" y="-16.526409674000085"/>
      <point x="464.99124500000005" y="-20.000000000000085"/>
    </contour>
    <contour>
      <point x="353.0" y="527.0" type="curve" smooth="yes"/>
      <point x="353" y="555" type="line" smooth="yes"/>
      <point x="353.0" y="714.001866"/>
      <point x="368.413256144784" y="861.4437898914119"/>
      <point x="486.22566986083984" y="866.8248291015625" type="curve"/>
      <point x="357.19171142578125" y="408.22784423828125" type="line"/>
      <point x="353.875742157304" y="445.21586822471994"/>
      <point x="353.0" y="485.482404"/>
    </contour>
  </outline>
</glyph>
<glyph name="uni0242" format="1">
  <advance width="936"/>
  <unicode hex="0242"/>
  <outline>
    <contour>
      <point x="349" y="0" type="line"/>
      <point x="632" y="0" type="line"/>
      <point x="632" y="333.6815719604492" type="line"/>
      <point x="779.383119904732" y="369.010840985594"/>
      <point x="871.0" y="491.219855"/>
      <point x="871.0" y="687.0" type="curve" smooth="yes"/>
      <point x="871" y="919"/>
      <point x="753" y="1102"/>
      <point x="480" y="1102" type="curve" smooth="yes"/>
      <point x="245" y="1102"/>
      <point x="104" y="922"/>
      <point x="104" y="690" type="curve"/>
      <point x="387" y="690" type="line"/>
      <point x="387" y="798"/>
      <point x="423" y="867"/>
      <point x="480" y="867" type="curve" smooth="yes"/>
      <point x="566" y="867"/>
      <point x="588" y="782"/>
      <point x="588" y="683" type="curve" smooth="yes"/>
      <point x="588" y="581"/>
      <point x="563" y="485"/>
      <point x="458" y="485" type="curve" smooth="yes"/>
      <point x="349" y="485" type="line"/>
    </contour>
  </outline>
</glyph>
<glyph name="uni0245" format="1">
  <advance width="1185"/>
  <unicode hex="0245"/>
  <outline>
    <contour>
      <point x="21" y="0" type="line"/>
      <point x="347" y="0" type="line"/>
      <point x="590.573860168457" y="1057.6477279663086" type="line"/>
      <point x="836" y="0" type="line"/>
      <point x="1164" y="0" type="line"/>
      <point x="744" y="1456" type="line"/>
      <point x="438" y="1456" type="line"/>
    </contour>
  </outline>
</glyph>
<glyph name="uni0246" format="1">
  <advance width="1005"/>
  <unicode hex="0246"/>
  <outline>
    <contour>
      <point x="117" y="0" type="line"/>
      <point x="375.6596145629883" y="0" type="line"/>
      <point x="347" y="-125" type="line"/>
      <point x="509" y="-125" type="line"/>
      <point x="537.6596145629883" y="0" type="line"/>
      <point x="953" y="0" type="line"/>
      <point x="953" y="244" type="line"/>
      <point x="593.6031723022461" y="244" type="line"/>
      <point x="682.1040573120117" y="630" type="line"/>
      <point x="869" y="630" type="line"/>
      <point x="869" y="867" type="line"/>
      <point x="736.4426803588867" y="867" type="line"/>
      <point x="815.3139343261719" y="1211" type="line"/>
      <point x="951" y="1211" type="line"/>
      <point x="951" y="1456" type="line"/>
      <point x="871.4867706298828" y="1456" type="line"/>
      <point x="899" y="1576" type="line"/>
      <point x="737" y="1576" type="line"/>
      <point x="709.4867706298828" y="1456" type="line"/>
      <point x="117" y="1456" type="line"/>
    </contour>
    <contour>
      <point x="412" y="867" type="line"/>
      <point x="412" y="1211" type="line"/>
      <point x="653.3139343261719" y="1211" type="line"/>
      <point x="574.4426803588867" y="867" type="line"/>
    </contour>
    <contour>
      <point x="412" y="244" type="line"/>
      <point x="412" y="630" type="line"/>
      <point x="520.1040573120117" y="630" type="line"/>
      <point x="431.6031723022461" y="244" type="line"/>
    </contour>
  </outline>
</glyph>
<glyph name="uni0247" format="1">
  <advance width="983"/>
  <unicode hex="0247"/>
  <outline>
    <contour>
      <point x="539.9999999999999" y="-19.99999999999998" type="curve" smooth="yes"/>
      <point x="724" y="-20"/>
      <point x="848" y="78"/>
      <point x="905" y="176" type="curve"/>
      <point x="768" y="336" type="line"/>
      <point x="716" y="254"/>
      <point x="639" y="215"/>
      <point x="551" y="215" type="curve" smooth="yes"/>
      <point x="529.948244" y="215.0"/>
      <point x="510.219099019028" y="217.568917556189"/>
      <point x="491.9260025024414" y="222.4713592529297" type="curve"/>
      <point x="555.1009063720703" y="447" type="line"/>
      <point x="923" y="447" type="line"/>
      <point x="923" y="571" type="line" smooth="yes"/>
      <point x="923.0" y="793.21824"/>
      <point x="855.969223435264" y="962.872777513984"/>
      <point x="723.5822525024414" y="1045.7961196899414" type="curve"/>
      <point x="839" y="1456" type="line"/>
      <point x="677" y="1456" type="line"/>
      <point x="575.9999237060547" y="1097.7175369262695" type="line"/>
      <point x="555.2524024541441" y="1100.555932461376"/>
      <point x="533.5847440000001" y="1102.0"/>
      <point x="511.00000000000006" y="1102.0000000000002" type="curve" smooth="yes"/>
      <point x="239" y="1102"/>
      <point x="78" y="869"/>
      <point x="78" y="543" type="curve" smooth="yes"/>
      <point x="78" y="504" type="line" smooth="yes"/>
      <point x="78.0" y="314.50876900000003"/>
      <point x="149.795796823847" y="148.23294535621403"/>
      <point x="282.39385986328125" y="56.19451141357422" type="curve"/>
      <point x="149" y="-417" type="line"/>
      <point x="312" y="-417" type="line"/>
      <point x="427.2196502685547" y="-7.5001678466796875" type="line"/>
      <point x="462.39789296563197" y="-15.684513305284979"/>
      <point x="500.02366499999994" y="-19.99999999999998"/>
    </contour>
    <contour>
      <point x="496.0" y="866.9999999999999" type="curve" smooth="yes"/>
      <point x="501.07178" y="867.0"/>
      <point x="506.0109580988" y="866.8383346684"/>
      <point x="510.81947326660156" y="866.4997634887695" type="curve"/>
      <point x="448.3785400390625" y="645" type="line"/>
      <point x="340.0024871826172" y="645" type="line"/>
      <point x="347.607328678" y="771.5355276252"/>
      <point x="398.57115999999996" y="867.0"/>
    </contour>
    <contour>
      <point x="661.0000000000001" y="668.0" type="curve" smooth="yes"/>
      <point x="661" y="645" type="line"/>
      <point x="610.8115310668945" y="645" type="line"/>
      <point x="645.1707458496094" y="767.1153717041016" type="line"/>
      <point x="656.0420488563541" y="737.962807521379"/>
      <point x="661.0000000000001" y="704.11311"/>
    </contour>
    <contour>
      <point x="339.2019958496094" y="447" type="curve"/>
      <point x="392.5622024536133" y="447" type="line"/>
      <point x="361.9122314453125" y="338.2738800048828" type="line"/>
      <point x="348.3117454629524" y="369.908543840611"/>
      <point x="340.52387391511866" y="406.49006533810297"/>
    </contour>
  </outline>
</glyph>
<glyph name="uni024A" format="1">
  <advance width="1353"/>
  <unicode hex="024A"/>
  <outline>
    <contour>
      <point x="890" y="1456" type="line"/>
      <point x="884.8902206420898" y="1433.0400695800781" type="line"/>
      <point x="816.244289580032" y="1458.806416999424"/>
      <point x="731.7735680000001" y="1476.0"/>
      <point x="629.0" y="1476.0" type="curve" smooth="yes"/>
      <point x="298" y="1476"/>
      <point x="82" y="1201"/>
      <point x="82" y="773" type="curve" smooth="yes"/>
      <point x="82" y="684" type="line" smooth="yes"/>
      <point x="82" y="249"/>
      <point x="302" y="-20"/>
      <point x="629" y="-20" type="curve" smooth="yes"/>
      <point x="699.299132" y="-20.0"/>
      <point x="761.034677427932" y="-11.955418674724"/>
      <point x="815" y="1.3916702270507812" type="curve"/>
      <point x="815" y="-34" type="line"/>
      <point x="815" y="-295"/>
      <point x="993" y="-437"/>
      <point x="1195" y="-437" type="curve" smooth="yes"/>
      <point x="1242" y="-437"/>
      <point x="1279" y="-432"/>
      <point x="1322" y="-420" type="curve"/>
      <point x="1324" y="-178" type="line"/>
      <point x="1298" y="-184"/>
      <point x="1281" y="-187"/>
      <point x="1253" y="-187" type="curve" smooth="yes"/>
      <point x="1191" y="-187"/>
      <point x="1109" y="-157"/>
      <point x="1109" y="-34" type="curve"/>
      <point x="1109" y="1456" type="line"/>
    </contour>
    <contour>
      <point x="644" y="1227" type="curve" smooth="yes"/>
      <point x="756" y="1227"/>
      <point x="789" y="1184"/>
      <point x="815" y="1152" type="curve"/>
      <point x="815" y="304" type="line"/>
      <point x="789" y="272"/>
      <point x="756" y="229"/>
      <point x="644" y="229" type="curve" smooth="yes"/>
      <point x="455" y="229"/>
      <point x="380" y="401"/>
      <point x="380" y="684" type="curve" smooth="yes"/>
      <point x="380" y="773" type="line" smooth="yes"/>
      <point x="380" y="1048"/>
      <point x="450" y="1227"/>
    </contour>
  </outline>
</glyph>
<glyph name="uni024B" format="1">
  <advance width="1122"/>
  <unicode hex="024B"/>
  <outline>
    <contour>
      <point x="662" y="1082" type="line"/>
      <point x="646.9782791137695" y="989.3660736083984" type="line"/>
      <point x="593.621806666465" y="1060.819497673729"/>
      <point x="521.844167" y="1102.0"/>
      <point x="425.99999999999994" y="1102.0" type="curve" smooth="yes"/>
      <point x="193" y="1102"/>
      <point x="66" y="881"/>
      <point x="66" y="552" type="curve" smooth="yes"/>
      <point x="66" y="531" type="line"/>
      <point x="66" y="216"/>
      <point x="194" y="-20"/>
      <point x="424" y="-20" type="curve" smooth="yes"/>
      <point x="508.987684" y="-20.0"/>
      <point x="574.939930535767" y="13.068862164141997"/>
      <point x="626" y="70.20013427734375" type="curve"/>
      <point x="626" y="-93" type="line" smooth="yes"/>
      <point x="626" y="-382"/>
      <point x="823" y="-436"/>
      <point x="966" y="-436" type="curve" smooth="yes"/>
      <point x="1022" y="-436"/>
      <point x="1064" y="-431"/>
      <point x="1100" y="-422" type="curve"/>
      <point x="1102" y="-227" type="line"/>
      <point x="1081" y="-231"/>
      <point x="1063" y="-233"/>
      <point x="1044" y="-233" type="curve" smooth="yes"/>
      <point x="988" y="-233"/>
      <point x="910" y="-204"/>
      <point x="910" y="-93" type="curve" smooth="yes"/>
      <point x="910" y="1082" type="line"/>
    </contour>
    <contour>
      <point x="349" y="531" type="curve" smooth="yes"/>
      <point x="349" y="552" type="line"/>
      <point x="349" y="730"/>
      <point x="388" y="867"/>
      <point x="500" y="867" type="curve" smooth="yes"/>
      <point x="559.333344" y="867.0"/>
      <point x="600.143934741496" y="838.093279005668"/>
      <point x="626" y="785.7496871948242" type="curve"/>
      <point x="626" y="294.22010040283203" type="line"/>
      <point x="601.014465859072" y="244.559914751744"/>
      <point x="560.92576" y="215.0"/>
      <point x="498.99999999999994" y="215.0" type="curve" smooth="yes"/>
      <point x="385" y="215"/>
      <point x="349" y="357"/>
    </contour>
  </outline>
</glyph>
<glyph name="uni024E" format="1">
  <advance width="1304"/>
  <unicode hex="024E"/>
  <outline>
    <contour>
      <point x="652" y="1600" type="move" name="top"/>
    </contour>
    <contour>
      <point x="652" y="35" type="move" name="bottom"/>
    </contour>
    <contour>
      <point x="1284" y="1600" type="move" name="top0315"/>
    </contour>
    <contour>
      <point x="801" y="528" type="line"/>
      <point x="1009.1400833129883" y="1022" type="line"/>
      <point x="1253" y="1022" type="line"/>
      <point x="1253" y="1181" type="line"/>
      <point x="1076.1325454711914" y="1181" type="line"/>
      <point x="1192" y="1456" type="line"/>
      <point x="871" y="1456" type="line"/>
      <point x="778.912841796875" y="1181" type="line"/>
      <point x="525.087158203125" y="1181" type="line"/>
      <point x="433" y="1456" type="line"/>
      <point x="113" y="1456" type="line"/>
      <point x="228.5711212158203" y="1181" type="line"/>
      <point x="51" y="1181" type="line"/>
      <point x="51" y="1022" type="line"/>
      <point x="295.3922424316406" y="1022" type="line"/>
      <point x="503" y="528" type="line"/>
      <point x="503" y="0" type="line"/>
      <point x="801" y="0" type="line"/>
    </contour>
    <contour>
      <point x="652" y="802" type="line"/>
      <point x="578.3302764892578" y="1022" type="line"/>
      <point x="725.6697235107422" y="1022" type="line"/>
    </contour>
  </outline>
</glyph>
<glyph name="uni024F" format="1">
  <advance width="1043"/>
  <unicode hex="024F"/>
  <outline>
    <contour>
      <point x="519" y="1290" type="move" name="top"/>
    </contour>
    <contour>
      <point x="764" y="-109" type="move" name="bottom"/>
    </contour>
    <contour>
      <point x="1023" y="1290" type="move" name="top0315"/>
    </contour>
    <contour>
      <point x="613" y="-162" type="curve" smooth="yes"/>
      <point x="830.1663970947266" y="599" type="line"/>
      <point x="992" y="599" type="line"/>
      <point x="992" y="750" type="line"/>
      <point x="873.2572326660156" y="750" type="line"/>
      <point x="968" y="1082" type="line"/>
      <point x="666" y="1082" type="line"/>
      <point x="588.0250549316406" y="750" type="line"/>
      <point x="463.7751922607422" y="750" type="line"/>
      <point x="393" y="1082" type="line"/>
      <point x="89" y="1082" type="line"/>
      <point x="183.72907257080078" y="750" type="line"/>
      <point x="51" y="750" type="line"/>
      <point x="51" y="599" type="line"/>
      <point x="226.81368255615234" y="599" type="line"/>
      <point x="400.59281158447266" y="-10.049247741699219" type="line"/>
      <point x="378" y="-85" type="line" smooth="yes"/>
      <point x="357" y="-164"/>
      <point x="321" y="-199"/>
      <point x="229" y="-199" type="curve" smooth="yes"/>
      <point x="217" y="-199"/>
      <point x="207" y="-198"/>
      <point x="196" y="-198" type="curve"/>
      <point x="195" y="-418" type="line"/>
      <point x="240" y="-431"/>
      <point x="261" y="-437"/>
      <point x="311" y="-437" type="curve" smooth="yes"/>
      <point x="509" y="-437"/>
      <point x="580" y="-271"/>
    </contour>
    <contour>
      <point x="495.9651184082031" y="599" type="line"/>
      <point x="552.5605392456055" y="599" type="line"/>
      <point x="522.8931732177734" y="472.6829299926758" type="line"/>
    </contour>
  </outline>
</glyph>
